  0
SECTION
  2
HEADER
  9
$ACADVER
  1
AC1012
  9
$DWGCODEPAGE
  3
ansi_1252
  9
$INSBASE
 10
0.0
 20
0.0
 30
0.0
  9
$EXTMIN
 10
1.000000000000000E+20
 20
1.000000000000000E+20
 30
1.000000000000000E+20
  9
$EXTMAX
 10
-1.000000000000000E+20
 20
-1.000000000000000E+20
 30
-1.000000000000000E+20
  9
$LIMMIN
 10
0.0
 20
0.0
  9
$LIMMAX
 10
12.0
 20
9.0
  9
$ORTHOMODE
 70
     0
  9
$REGENMODE
 70
     1
  9
$FILLMODE
 70
     1
  9
$QTEXTMODE
 70
     0
  9
$MIRRTEXT
 70
     1
  9
$DRAGMODE
 70
     2
  9
$LTSCALE
 40
1.0
  9
$OSMODE
 70
    37
  9
$ATTMODE
 70
     1
  9
$TEXTSIZE
 40
0.2
  9
$TRACEWID
 40
0.05
  9
$TEXTSTYLE
  7
STANDARD
  9
$CLAYER
  8
0
  9
$CELTYPE
  6
BYLAYER
  9
$CECOLOR
 62
   256
  9
$CELTSCALE
 40
1.0
  9
$DELOBJ
 70
     1
  9
$DISPSILH
 70
     0
  9
$DIMSCALE
 40
1.0
  9
$DIMASZ
 40
0.18
  9
$DIMEXO
 40
0.0625
  9
$DIMDLI
 40
0.38
  9
$DIMRND
 40
0.0
  9
$DIMDLE
 40
0.0
  9
$DIMEXE
 40
0.18
  9
$DIMTP
 40
0.0
  9
$DIMTM
 40
0.0
  9
$DIMTXT
 40
0.18
  9
$DIMCEN
 40
0.09
  9
$DIMTSZ
 40
0.0
  9
$DIMTOL
 70
     0
  9
$DIMLIM
 70
     0
  9
$DIMTIH
 70
     1
  9
$DIMTOH
 70
     1
  9
$DIMSE1
 70
     0
  9
$DIMSE2
 70
     0
  9
$DIMTAD
 70
     0
  9
$DIMZIN
 70
     0
  9
$DIMBLK
  1

  9
$DIMASO
 70
     1
  9
$DIMSHO
 70
     1
  9
$DIMPOST
  1

  9
$DIMAPOST
  1

  9
$DIMALT
 70
     0
  9
$DIMALTD
 70
     2
  9
$DIMALTF
 40
25.4
  9
$DIMLFAC
 40
1.0
  9
$DIMTOFL
 70
     0
  9
$DIMTVP
 40
0.0
  9
$DIMTIX
 70
     0
  9
$DIMSOXD
 70
     0
  9
$DIMSAH
 70
     0
  9
$DIMBLK1
  1

  9
$DIMBLK2
  1

  9
$DIMSTYLE
  2
STANDARD
  9
$DIMCLRD
 70
     0
  9
$DIMCLRE
 70
     0
  9
$DIMCLRT
 70
     0
  9
$DIMTFAC
 40
1.0
  9
$DIMGAP
 40
0.09
  9
$DIMJUST
 70
     0
  9
$DIMSD1
 70
     0
  9
$DIMSD2
 70
     0
  9
$DIMTOLJ
 70
     1
  9
$DIMTZIN
 70
     0
  9
$DIMALTZ
 70
     0
  9
$DIMALTTZ
 70
     0
  9
$DIMFIT
 70
     3
  9
$DIMUPT
 70
     0
  9
$DIMUNIT
 70
     2
  9
$DIMDEC
 70
     4
  9
$DIMTDEC
 70
     4
  9
$DIMALTU
 70
     2
  9
$DIMALTTD
 70
     2
  9
$DIMTXSTY
  7
STANDARD
  9
$DIMAUNIT
 70
     0
  9
$LUNITS
 70
     2
  9
$LUPREC
 70
     4
  9
$SKETCHINC
 40
0.1
  9
$FILLETRAD
 40
0.5
  9
$AUNITS
 70
     0
  9
$AUPREC
 70
     0
  9
$MENU
  1
.
  9
$ELEVATION
 40
0.0
  9
$PELEVATION
 40
0.0
  9
$THICKNESS
 40
0.0
  9
$LIMCHECK
 70
     0
  9
$CHAMFERA
 40
0.5
  9
$CHAMFERB
 40
0.5
  9
$CHAMFERC
 40
1.0
  9
$CHAMFERD
 40
0.0
  9
$SKPOLY
 70
     0
  9
$TDCREATE
 40
2457788.473824687
  9
$TDUPDATE
 40
2457788.473824699
  9
$TDINDWG
 40
0.0000000116
  9
$TDUSRTIMER
 40
0.0000000116
  9
$USRTIMER
 70
     1
  9
$ANGBASE
 50
0.0
  9
$ANGDIR
 70
     0
  9
$PDMODE
 70
     0
  9
$PDSIZE
 40
0.0
  9
$PLINEWID
 40
0.0
  9
$COORDS
 70
     1
  9
$SPLFRAME
 70
     0
  9
$SPLINETYPE
 70
     6
  9
$SPLINESEGS
 70
     8
  9
$ATTDIA
 70
     0
  9
$ATTREQ
 70
     1
  9
$HANDLING
 70
     1
  9
$HANDSEED
  5
279
  9
$SURFTAB1
 70
     6
  9
$SURFTAB2
 70
     6
  9
$SURFTYPE
 70
     6
  9
$SURFU
 70
     6
  9
$SURFV
 70
     6
  9
$UCSNAME
  2

  9
$UCSORG
 10
0.0
 20
0.0
 30
0.0
  9
$UCSXDIR
 10
1.0
 20
0.0
 30
0.0
  9
$UCSYDIR
 10
0.0
 20
1.0
 30
0.0
  9
$PUCSNAME
  2

  9
$PUCSORG
 10
0.0
 20
0.0
 30
0.0
  9
$PUCSXDIR
 10
1.0
 20
0.0
 30
0.0
  9
$PUCSYDIR
 10
0.0
 20
1.0
 30
0.0
  9
$USERI1
 70
     0
  9
$USERI2
 70
     0
  9
$USERI3
 70
     0
  9
$USERI4
 70
     0
  9
$USERI5
 70
     0
  9
$USERR1
 40
0.0
  9
$USERR2
 40
0.0
  9
$USERR3
 40
0.0
  9
$USERR4
 40
0.0
  9
$USERR5
 40
0.0
  9
$WORLDVIEW
 70
     1
  9
$SHADEDGE
 70
     3
  9
$SHADEDIF
 70
    70
  9
$TILEMODE
 70
     1
  9
$MAXACTVP
 70
    64
  9
$PINSBASE
 10
0.0
 20
0.0
 30
0.0
  9
$PLIMCHECK
 70
     0
  9
$PEXTMIN
 10
1.000000000000000E+20
 20
1.000000000000000E+20
 30
1.000000000000000E+20
  9
$PEXTMAX
 10
-1.000000000000000E+20
 20
-1.000000000000000E+20
 30
-1.000000000000000E+20
  9
$PLIMMIN
 10
0.0
 20
0.0
  9
$PLIMMAX
 10
12.0
 20
9.0
  9
$UNITMODE
 70
     0
  9
$VISRETAIN
 70
     1
  9
$PLINEGEN
 70
     0
  9
$PSLTSCALE
 70
     1
  9
$TREEDEPTH
 70
  3020
  9
$PICKSTYLE
 70
     1
  9
$CMLSTYLE
  2
STANDARD
  9
$CMLJUST
 70
     0
  9
$CMLSCALE
 40
1.0
  9
$SAVEIMAGES
 70
     1
  0
ENDSEC
  0
SECTION
  2
CLASSES
  0
CLASS
  1
ACDBDICTIONARYWDFLT
  2
AcDbDictionaryWithDefault
  3
ObjectDBX Classes
 90
    32768
280
     0
281
     0
  0
CLASS
  1
VISUALSTYLE
  2
AcDbVisualStyle
  3
ObjectDBX Classes
 90
     4095
280
     0
281
     0
  0
CLASS
  1
XRECORD
  2
AcDbXrecord
  3
AutoCAD 2000
 90
    32768
280
     0
281
     0
  0
CLASS
  1
LWPOLYLINE
  2
AcDbPolyline
  3
AutoCAD 2000
 90
    32768
280
     0
281
     1
  0
CLASS
  1
HATCH
  2
AcDbHatch
  3
AutoCAD 2000
 90
    32768
280
     0
281
     1
  0
CLASS
  1
ACDBPLACEHOLDER
  2
AcDbPlaceHolder
  3
ObjectDBX Classes
 90
        0
280
     0
281
     0
  0
CLASS
  1
LAYOUT
  2
AcDbLayout
  3
ObjectDBX Classes
 90
        0
280
     0
281
     0
  0
ENDSEC
  0
SECTION
  2
TABLES
  0
TABLE
  2
VPORT
  5
8
330
0
100
AcDbSymbolTable
 70
     1
  0
VPORT
  5
29
330
8
100
AcDbSymbolTableRecord
100
AcDbViewportTableRecord
  2
*ACTIVE
 70
     0
 10
0.0
 20
0.0
 11
1.0
 21
1.0
 12
0.0
 22
0.0
 13
0.0
 23
0.0
 14
0.5
 24
0.5
 15
0.5
 25
0.5
 16
0.0
 26
0.0
 36
1.0
 17
104.9514580985449
 27
148.3431533796239
 37
0.0
 40
210.0000679538643
 41
1.414287636040304
 42
50.0
 43
0.0
 44
0.0
 50
0.0
 51
0.0
 71
     0
 72
   100
 73
     1
 74
     3
 75
     0
 76
     0
 77
     0
 78
     0
  0
ENDTAB
  0
TABLE
  2
LTYPE
  5
5
330
0
100
AcDbSymbolTable
 70
     1
  0
LTYPE
  5
14
330
5
100
AcDbSymbolTableRecord
100
AcDbLinetypeTableRecord
  2
BYBLOCK
 70
     0
  3

 72
    65
 73
     0
 40
0.0
  0
LTYPE
  5
15
330
5
100
AcDbSymbolTableRecord
100
AcDbLinetypeTableRecord
  2
BYLAYER
 70
     0
  3

 72
    65
 73
     0
 40
0.0
  0
LTYPE
  5
16
330
5
100
AcDbSymbolTableRecord
100
AcDbLinetypeTableRecord
  2
CONTINUOUS
 70
     0
  3
Solid line
 72
    65
 73
     0
 40
0.0
  0
ENDTAB
  0
TABLE
  2
LAYER
  5
2
330
0
100
AcDbSymbolTable
 70
     7
  0
LAYER
  5
10
330
2
100
AcDbSymbolTableRecord
100
AcDbLayerTableRecord
  2
0
 70
     0
 62
     7
  6
CONTINUOUS
  0
LAYER
  5
3B
330
2
100
AcDbSymbolTableRecord
100
AcDbLayerTableRecord
  2
ENGRAVING
 70
     1
 62
     7
  6
CONTINUOUS
  0
LAYER
  5
3C
330
2
100
AcDbSymbolTableRecord
100
AcDbLayerTableRecord
  2
STITCH
 70
     5
 62
     7
  6
CONTINUOUS
  0
LAYER
  5
3D
330
2
100
AcDbSymbolTableRecord
100
AcDbLayerTableRecord
  2
POCKETS
 70
     1
 62
     7
  6
CONTINUOUS
  0
LAYER
  5
3E
330
2
100
AcDbSymbolTableRecord
100
AcDbLayerTableRecord
  2
LINING2
 70
     1
 62
     7
  6
CONTINUOUS
  0
LAYER
  5
3F
330
2
100
AcDbSymbolTableRecord
100
AcDbLayerTableRecord
  2
LINING1
 70
     0
 62
     7
  6
CONTINUOUS
  0
LAYER
  5
277
330
2
100
AcDbSymbolTableRecord
100
AcDbLayerTableRecord
  2
OUTER_WALLET
 70
     1
 62
     7
  6
CONTINUOUS
  0
ENDTAB
  0
TABLE
  2
STYLE
  5
3
330
0
100
AcDbSymbolTable
 70
     1
  0
STYLE
  5
11
330
3
100
AcDbSymbolTableRecord
100
AcDbTextStyleTableRecord
  2
STANDARD
 70
     0
 40
0.0
 41
1.0
 50
0.0
 71
     0
 42
0.2
  3
txt
  4

  0
ENDTAB
  0
TABLE
  2
VIEW
  5
6
330
0
100
AcDbSymbolTable
 70
     0
  0
ENDTAB
  0
TABLE
  2
UCS
  5
7
330
0
100
AcDbSymbolTable
 70
     0
  0
ENDTAB
  0
TABLE
  2
APPID
  5
9
330
0
100
AcDbSymbolTable
 70
     1
  0
APPID
  5
12
330
9
100
AcDbSymbolTableRecord
100
AcDbRegAppTableRecord
  2
ACAD
 70
     0
  0
ENDTAB
  0
TABLE
  2
DIMSTYLE
  5
A
330
0
100
AcDbSymbolTable
 70
     1
  0
DIMSTYLE
105
27
330
A
100
AcDbSymbolTableRecord
100
AcDbDimStyleTableRecord
  2
STANDARD
 70
     0
  3

  4

  5

  6

  7

 40
1.0
 41
0.18
 42
0.0625
 43
0.38
 44
0.18
 45
0.0
 46
0.0
 47
0.0
 48
0.0
140
0.18
141
0.09
142
0.0
143
25.4
144
1.0
145
0.0
146
1.0
147
0.09
 71
     0
 72
     0
 73
     1
 74
     1
 75
     0
 76
     0
 77
     0
 78
     0
170
     0
171
     2
172
     0
173
     0
174
     0
175
     0
176
     0
177
     0
178
     0
270
     2
271
     4
272
     4
273
     2
274
     2
340
11
275
     0
280
     0
281
     0
282
     0
283
     1
284
     0
285
     0
286
     0
287
     3
288
     0
  0
ENDTAB
  0
TABLE
  2
BLOCK_RECORD
  5
1
330
0
100
AcDbSymbolTable
 70
     2
  0
BLOCK_RECORD
  5
1F
330
1
100
AcDbSymbolTableRecord
100
AcDbBlockTableRecord
  2
*MODEL_SPACE
  0
BLOCK_RECORD
  5
1B
330
1
100
AcDbSymbolTableRecord
100
AcDbBlockTableRecord
  2
*PAPER_SPACE
  0
BLOCK_RECORD
  5
40
330
1
100
AcDbSymbolTableRecord
100
AcDbBlockTableRecord
  2
BLOCK_2
  0
ENDTAB
  0
ENDSEC
  0
SECTION
  2
BLOCKS
  0
BLOCK
  5
20
330
1F
100
AcDbEntity
  8
0
100
AcDbBlockBegin
  2
*MODEL_SPACE
 70
     0
 71
     0
 10
0.0
 20
0.0
 30
0.0
  3
*MODEL_SPACE
  1

  0
ENDBLK
  5
21
330
1F
100
AcDbEntity
  8
0
100
AcDbBlockEnd
  0
BLOCK
  5
1C
330
1B
100
AcDbEntity
 67
     1
  8
0
100
AcDbBlockBegin
  2
*PAPER_SPACE
 70
     0
 71
     0
 10
0.0
 20
0.0
 30
0.0
  3
*PAPER_SPACE
  1

  0
ENDBLK
  5
1D
330
1B
100
AcDbEntity
 67
     1
  8
0
100
AcDbBlockEnd
  0
BLOCK
  5
42
330
40
100
AcDbEntity
  8
0
100
AcDbBlockBegin
  2
BLOCK_2
 70
     0
 71
     0
 10
0.0
 20
0.0
 30
0.0
  3
BLOCK_2
  1

  0
POLYLINE
  5
44
330
40
100
AcDbEntity
  8
LINING1
 62
     1
100
AcDb2dPolyline
 66
     1
 10
0.0
 20
0.0
 30
0.0
  0
VERTEX
  5
45
330
44
100
AcDbEntity
  8
LINING1
 62
     1
100
AcDbVertex
100
AcDb2dVertex
 10
183.7015697086879
 20
240.0931691245475
 30
0.0
  0
VERTEX
  5
46
330
44
100
AcDbEntity
  8
LINING1
 62
     1
100
AcDbVertex
100
AcDb2dVertex
 10
183.2013415142319
 20
240.0931691245475
 30
0.0
  0
VERTEX
  5
47
330
44
100
AcDbEntity
  8
LINING1
 62
     1
100
AcDbVertex
100
AcDb2dVertex
 10
183.2013415142319
 20
240.3431109668877
 30
0.0
  0
VERTEX
  5
48
330
44
100
AcDbEntity
  8
LINING1
 62
     1
100
AcDbVertex
100
AcDb2dVertex
 10
183.7015697086879
 20
240.3431109668877
 30
0.0
  0
VERTEX
  5
49
330
44
100
AcDbEntity
  8
LINING1
 62
     1
100
AcDbVertex
100
AcDb2dVertex
 10
183.7015697086879
 20
240.0931691245475
 30
0.0
  0
SEQEND
  5
4A
330
44
100
AcDbEntity
  8
LINING1
  0
POLYLINE
  5
4B
330
40
100
AcDbEntity
  8
LINING1
 62
     1
100
AcDb2dPolyline
 66
     1
 10
0.0
 20
0.0
 30
0.0
  0
VERTEX
  5
4C
330
4B
100
AcDbEntity
  8
LINING1
 62
     1
100
AcDbVertex
100
AcDb2dVertex
 10
183.7015697086879
 20
162.3343843942579
 30
0.0
  0
VERTEX
  5
4D
330
4B
100
AcDbEntity
  8
LINING1
 62
     1
100
AcDbVertex
100
AcDb2dVertex
 10
183.2013415142319
 20
162.3343843942579
 30
0.0
  0
VERTEX
  5
4E
330
4B
100
AcDbEntity
  8
LINING1
 62
     1
100
AcDbVertex
100
AcDb2dVertex
 10
183.2013415142319
 20
162.832890039835
 30
0.0
  0
VERTEX
  5
4F
330
4B
100
AcDbEntity
  8
LINING1
 62
     1
100
AcDbVertex
100
AcDb2dVertex
 10
183.7015697086879
 20
162.832890039835
 30
0.0
  0
VERTEX
  5
50
330
4B
100
AcDbEntity
  8
LINING1
 62
     1
100
AcDbVertex
100
AcDb2dVertex
 10
183.7015697086879
 20
162.3343843942579
 30
0.0
  0
SEQEND
  5
51
330
4B
100
AcDbEntity
  8
LINING1
  0
POLYLINE
  5
52
330
40
100
AcDbEntity
  8
LINING1
 62
     1
100
AcDb2dPolyline
 66
     1
 10
0.0
 20
0.0
 30
0.0
  0
VERTEX
  5
53
330
52
100
AcDbEntity
  8
LINING1
 62
     1
100
AcDbVertex
100
AcDb2dVertex
 10
183.7015697086879
 20
165.574326580733
 30
0.0
  0
VERTEX
  5
54
330
52
100
AcDbEntity
  8
LINING1
 62
     1
100
AcDbVertex
100
AcDb2dVertex
 10
183.2013415142319
 20
165.574326580733
 30
0.0
  0
VERTEX
  5
55
330
52
100
AcDbEntity
  8
LINING1
 62
     1
100
AcDbVertex
100
AcDb2dVertex
 10
183.2013415142319
 20
166.0728322263101
 30
0.0
  0
VERTEX
  5
56
330
52
100
AcDbEntity
  8
LINING1
 62
     1
100
AcDbVertex
100
AcDb2dVertex
 10
183.7015697086879
 20
166.0728322263101
 30
0.0
  0
VERTEX
  5
57
330
52
100
AcDbEntity
  8
LINING1
 62
     1
100
AcDbVertex
100
AcDb2dVertex
 10
183.7015697086879
 20
165.574326580733
 30
0.0
  0
SEQEND
  5
58
330
52
100
AcDbEntity
  8
LINING1
  0
POLYLINE
  5
59
330
40
100
AcDbEntity
  8
LINING1
 62
     1
100
AcDb2dPolyline
 66
     1
 10
0.0
 20
0.0
 30
0.0
  0
VERTEX
  5
5A
330
59
100
AcDbEntity
  8
LINING1
 62
     1
100
AcDbVertex
100
AcDb2dVertex
 10
183.7015697086879
 20
168.8142687672081
 30
0.0
  0
VERTEX
  5
5B
330
59
100
AcDbEntity
  8
LINING1
 62
     1
100
AcDbVertex
100
AcDb2dVertex
 10
183.2013415142319
 20
168.8142687672081
 30
0.0
  0
VERTEX
  5
5C
330
59
100
AcDbEntity
  8
LINING1
 62
     1
100
AcDbVertex
100
AcDb2dVertex
 10
183.2013415142319
 20
169.3127744127851
 30
0.0
  0
VERTEX
  5
5D
330
59
100
AcDbEntity
  8
LINING1
 62
     1
100
AcDbVertex
100
AcDb2dVertex
 10
183.7015697086879
 20
169.3127744127851
 30
0.0
  0
VERTEX
  5
5E
330
59
100
AcDbEntity
  8
LINING1
 62
     1
100
AcDbVertex
100
AcDb2dVertex
 10
183.7015697086879
 20
168.8142687672081
 30
0.0
  0
SEQEND
  5
5F
330
59
100
AcDbEntity
  8
LINING1
  0
POLYLINE
  5
60
330
40
100
AcDbEntity
  8
LINING1
 62
     1
100
AcDb2dPolyline
 66
     1
 10
0.0
 20
0.0
 30
0.0
  0
VERTEX
  5
61
330
60
100
AcDbEntity
  8
LINING1
 62
     1
100
AcDbVertex
100
AcDb2dVertex
 10
183.7015697086879
 20
172.0542109536832
 30
0.0
  0
VERTEX
  5
62
330
60
100
AcDbEntity
  8
LINING1
 62
     1
100
AcDbVertex
100
AcDb2dVertex
 10
183.2013415142319
 20
172.0542109536832
 30
0.0
  0
VERTEX
  5
63
330
60
100
AcDbEntity
  8
LINING1
 62
     1
100
AcDbVertex
100
AcDb2dVertex
 10
183.2013415142319
 20
172.5527165992602
 30
0.0
  0
VERTEX
  5
64
330
60
100
AcDbEntity
  8
LINING1
 62
     1
100
AcDbVertex
100
AcDb2dVertex
 10
183.7015697086879
 20
172.5527165992602
 30
0.0
  0
VERTEX
  5
65
330
60
100
AcDbEntity
  8
LINING1
 62
     1
100
AcDbVertex
100
AcDb2dVertex
 10
183.7015697086879
 20
172.0542109536832
 30
0.0
  0
SEQEND
  5
66
330
60
100
AcDbEntity
  8
LINING1
  0
POLYLINE
  5
67
330
40
100
AcDbEntity
  8
LINING1
 62
     1
100
AcDb2dPolyline
 66
     1
 10
0.0
 20
0.0
 30
0.0
  0
VERTEX
  5
68
330
67
100
AcDbEntity
  8
LINING1
 62
     1
100
AcDbVertex
100
AcDb2dVertex
 10
183.7015697086879
 20
175.2941531401582
 30
0.0
  0
VERTEX
  5
69
330
67
100
AcDbEntity
  8
LINING1
 62
     1
100
AcDbVertex
100
AcDb2dVertex
 10
183.2013415142319
 20
175.2941531401582
 30
0.0
  0
VERTEX
  5
6A
330
67
100
AcDbEntity
  8
LINING1
 62
     1
100
AcDbVertex
100
AcDb2dVertex
 10
183.2013415142319
 20
175.7926587857353
 30
0.0
  0
VERTEX
  5
6B
330
67
100
AcDbEntity
  8
LINING1
 62
     1
100
AcDbVertex
100
AcDb2dVertex
 10
183.7015697086879
 20
175.7926587857353
 30
0.0
  0
VERTEX
  5
6C
330
67
100
AcDbEntity
  8
LINING1
 62
     1
100
AcDbVertex
100
AcDb2dVertex
 10
183.7015697086879
 20
175.2941531401582
 30
0.0
  0
SEQEND
  5
6D
330
67
100
AcDbEntity
  8
LINING1
  0
POLYLINE
  5
6E
330
40
100
AcDbEntity
  8
LINING1
 62
     1
100
AcDb2dPolyline
 66
     1
 10
0.0
 20
0.0
 30
0.0
  0
VERTEX
  5
6F
330
6E
100
AcDbEntity
  8
LINING1
 62
     1
100
AcDbVertex
100
AcDb2dVertex
 10
183.7015697086879
 20
178.5340953266333
 30
0.0
  0
VERTEX
  5
70
330
6E
100
AcDbEntity
  8
LINING1
 62
     1
100
AcDbVertex
100
AcDb2dVertex
 10
183.2013415142319
 20
178.5340953266333
 30
0.0
  0
VERTEX
  5
71
330
6E
100
AcDbEntity
  8
LINING1
 62
     1
100
AcDbVertex
100
AcDb2dVertex
 10
183.2013415142319
 20
179.0326009722104
 30
0.0
  0
VERTEX
  5
72
330
6E
100
AcDbEntity
  8
LINING1
 62
     1
100
AcDbVertex
100
AcDb2dVertex
 10
183.7015697086879
 20
179.0326009722104
 30
0.0
  0
VERTEX
  5
73
330
6E
100
AcDbEntity
  8
LINING1
 62
     1
100
AcDbVertex
100
AcDb2dVertex
 10
183.7015697086879
 20
178.5340953266333
 30
0.0
  0
SEQEND
  5
74
330
6E
100
AcDbEntity
  8
LINING1
  0
POLYLINE
  5
75
330
40
100
AcDbEntity
  8
LINING1
 62
     1
100
AcDb2dPolyline
 66
     1
 10
0.0
 20
0.0
 30
0.0
  0
VERTEX
  5
76
330
75
100
AcDbEntity
  8
LINING1
 62
     1
100
AcDbVertex
100
AcDb2dVertex
 10
183.7015697086879
 20
181.7740375131084
 30
0.0
  0
VERTEX
  5
77
330
75
100
AcDbEntity
  8
LINING1
 62
     1
100
AcDbVertex
100
AcDb2dVertex
 10
183.2013415142319
 20
181.7740375131084
 30
0.0
  0
VERTEX
  5
78
330
75
100
AcDbEntity
  8
LINING1
 62
     1
100
AcDbVertex
100
AcDb2dVertex
 10
183.2013415142319
 20
182.2725431586854
 30
0.0
  0
VERTEX
  5
79
330
75
100
AcDbEntity
  8
LINING1
 62
     1
100
AcDbVertex
100
AcDb2dVertex
 10
183.7015697086879
 20
182.2725431586854
 30
0.0
  0
VERTEX
  5
7A
330
75
100
AcDbEntity
  8
LINING1
 62
     1
100
AcDbVertex
100
AcDb2dVertex
 10
183.7015697086879
 20
181.7740375131084
 30
0.0
  0
SEQEND
  5
7B
330
75
100
AcDbEntity
  8
LINING1
  0
POLYLINE
  5
7C
330
40
100
AcDbEntity
  8
LINING1
 62
     1
100
AcDb2dPolyline
 66
     1
 10
0.0
 20
0.0
 30
0.0
  0
VERTEX
  5
7D
330
7C
100
AcDbEntity
  8
LINING1
 62
     1
100
AcDbVertex
100
AcDb2dVertex
 10
183.7015697086879
 20
185.0139796995834
 30
0.0
  0
VERTEX
  5
7E
330
7C
100
AcDbEntity
  8
LINING1
 62
     1
100
AcDbVertex
100
AcDb2dVertex
 10
183.2013415142319
 20
185.0139796995834
 30
0.0
  0
VERTEX
  5
7F
330
7C
100
AcDbEntity
  8
LINING1
 62
     1
100
AcDbVertex
100
AcDb2dVertex
 10
183.2013415142319
 20
185.5124853451605
 30
0.0
  0
VERTEX
  5
80
330
7C
100
AcDbEntity
  8
LINING1
 62
     1
100
AcDbVertex
100
AcDb2dVertex
 10
183.7015697086879
 20
185.5124853451605
 30
0.0
  0
VERTEX
  5
81
330
7C
100
AcDbEntity
  8
LINING1
 62
     1
100
AcDbVertex
100
AcDb2dVertex
 10
183.7015697086879
 20
185.0139796995834
 30
0.0
  0
SEQEND
  5
82
330
7C
100
AcDbEntity
  8
LINING1
  0
POLYLINE
  5
83
330
40
100
AcDbEntity
  8
LINING1
 62
     1
100
AcDb2dPolyline
 66
     1
 10
0.0
 20
0.0
 30
0.0
  0
VERTEX
  5
84
330
83
100
AcDbEntity
  8
LINING1
 62
     1
100
AcDbVertex
100
AcDb2dVertex
 10
183.7015697086879
 20
188.2539218860585
 30
0.0
  0
VERTEX
  5
85
330
83
100
AcDbEntity
  8
LINING1
 62
     1
100
AcDbVertex
100
AcDb2dVertex
 10
183.2013415142319
 20
188.2539218860585
 30
0.0
  0
VERTEX
  5
86
330
83
100
AcDbEntity
  8
LINING1
 62
     1
100
AcDbVertex
100
AcDb2dVertex
 10
183.2013415142319
 20
188.7524275316356
 30
0.0
  0
VERTEX
  5
87
330
83
100
AcDbEntity
  8
LINING1
 62
     1
100
AcDbVertex
100
AcDb2dVertex
 10
183.7015697086879
 20
188.7524275316356
 30
0.0
  0
VERTEX
  5
88
330
83
100
AcDbEntity
  8
LINING1
 62
     1
100
AcDbVertex
100
AcDb2dVertex
 10
183.7015697086879
 20
188.2539218860585
 30
0.0
  0
SEQEND
  5
89
330
83
100
AcDbEntity
  8
LINING1
  0
POLYLINE
  5
8A
330
40
100
AcDbEntity
  8
LINING1
 62
     1
100
AcDb2dPolyline
 66
     1
 10
0.0
 20
0.0
 30
0.0
  0
VERTEX
  5
8B
330
8A
100
AcDbEntity
  8
LINING1
 62
     1
100
AcDbVertex
100
AcDb2dVertex
 10
183.7015697086879
 20
191.4938640725336
 30
0.0
  0
VERTEX
  5
8C
330
8A
100
AcDbEntity
  8
LINING1
 62
     1
100
AcDbVertex
100
AcDb2dVertex
 10
183.2013415142319
 20
191.4938640725336
 30
0.0
  0
VERTEX
  5
8D
330
8A
100
AcDbEntity
  8
LINING1
 62
     1
100
AcDbVertex
100
AcDb2dVertex
 10
183.2013415142319
 20
191.9923697181106
 30
0.0
  0
VERTEX
  5
8E
330
8A
100
AcDbEntity
  8
LINING1
 62
     1
100
AcDbVertex
100
AcDb2dVertex
 10
183.7015697086879
 20
191.9923697181106
 30
0.0
  0
VERTEX
  5
8F
330
8A
100
AcDbEntity
  8
LINING1
 62
     1
100
AcDbVertex
100
AcDb2dVertex
 10
183.7015697086879
 20
191.4938640725336
 30
0.0
  0
SEQEND
  5
90
330
8A
100
AcDbEntity
  8
LINING1
  0
POLYLINE
  5
91
330
40
100
AcDbEntity
  8
LINING1
 62
     1
100
AcDb2dPolyline
 66
     1
 10
0.0
 20
0.0
 30
0.0
  0
VERTEX
  5
92
330
91
100
AcDbEntity
  8
LINING1
 62
     1
100
AcDbVertex
100
AcDb2dVertex
 10
183.7015697086879
 20
194.7338062590086
 30
0.0
  0
VERTEX
  5
93
330
91
100
AcDbEntity
  8
LINING1
 62
     1
100
AcDbVertex
100
AcDb2dVertex
 10
183.2013415142319
 20
194.7338062590086
 30
0.0
  0
VERTEX
  5
94
330
91
100
AcDbEntity
  8
LINING1
 62
     1
100
AcDbVertex
100
AcDb2dVertex
 10
183.2013415142319
 20
195.2323119045857
 30
0.0
  0
VERTEX
  5
95
330
91
100
AcDbEntity
  8
LINING1
 62
     1
100
AcDbVertex
100
AcDb2dVertex
 10
183.7015697086879
 20
195.2323119045857
 30
0.0
  0
VERTEX
  5
96
330
91
100
AcDbEntity
  8
LINING1
 62
     1
100
AcDbVertex
100
AcDb2dVertex
 10
183.7015697086879
 20
194.7338062590086
 30
0.0
  0
SEQEND
  5
97
330
91
100
AcDbEntity
  8
LINING1
  0
POLYLINE
  5
98
330
40
100
AcDbEntity
  8
LINING1
 62
     1
100
AcDb2dPolyline
 66
     1
 10
0.0
 20
0.0
 30
0.0
  0
VERTEX
  5
99
330
98
100
AcDbEntity
  8
LINING1
 62
     1
100
AcDbVertex
100
AcDb2dVertex
 10
183.7015697086879
 20
197.9737484454837
 30
0.0
  0
VERTEX
  5
9A
330
98
100
AcDbEntity
  8
LINING1
 62
     1
100
AcDbVertex
100
AcDb2dVertex
 10
183.2013415142319
 20
197.9737484454837
 30
0.0
  0
VERTEX
  5
9B
330
98
100
AcDbEntity
  8
LINING1
 62
     1
100
AcDbVertex
100
AcDb2dVertex
 10
183.2013415142319
 20
198.4722540910608
 30
0.0
  0
VERTEX
  5
9C
330
98
100
AcDbEntity
  8
LINING1
 62
     1
100
AcDbVertex
100
AcDb2dVertex
 10
183.7015697086879
 20
198.4722540910608
 30
0.0
  0
VERTEX
  5
9D
330
98
100
AcDbEntity
  8
LINING1
 62
     1
100
AcDbVertex
100
AcDb2dVertex
 10
183.7015697086879
 20
197.9737484454837
 30
0.0
  0
SEQEND
  5
9E
330
98
100
AcDbEntity
  8
LINING1
  0
POLYLINE
  5
9F
330
40
100
AcDbEntity
  8
LINING1
 62
     1
100
AcDb2dPolyline
 66
     1
 10
0.0
 20
0.0
 30
0.0
  0
VERTEX
  5
A0
330
9F
100
AcDbEntity
  8
LINING1
 62
     1
100
AcDbVertex
100
AcDb2dVertex
 10
183.7015697086879
 20
201.2136906319588
 30
0.0
  0
VERTEX
  5
A1
330
9F
100
AcDbEntity
  8
LINING1
 62
     1
100
AcDbVertex
100
AcDb2dVertex
 10
183.2013415142319
 20
201.2136906319588
 30
0.0
  0
VERTEX
  5
A2
330
9F
100
AcDbEntity
  8
LINING1
 62
     1
100
AcDbVertex
100
AcDb2dVertex
 10
183.2013415142319
 20
201.7121962775358
 30
0.0
  0
VERTEX
  5
A3
330
9F
100
AcDbEntity
  8
LINING1
 62
     1
100
AcDbVertex
100
AcDb2dVertex
 10
183.7015697086879
 20
201.7121962775358
 30
0.0
  0
VERTEX
  5
A4
330
9F
100
AcDbEntity
  8
LINING1
 62
     1
100
AcDbVertex
100
AcDb2dVertex
 10
183.7015697086879
 20
201.2136906319588
 30
0.0
  0
SEQEND
  5
A5
330
9F
100
AcDbEntity
  8
LINING1
  0
POLYLINE
  5
A6
330
40
100
AcDbEntity
  8
LINING1
 62
     1
100
AcDb2dPolyline
 66
     1
 10
0.0
 20
0.0
 30
0.0
  0
VERTEX
  5
A7
330
A6
100
AcDbEntity
  8
LINING1
 62
     1
100
AcDbVertex
100
AcDb2dVertex
 10
183.7015697086879
 20
204.4536328184338
 30
0.0
  0
VERTEX
  5
A8
330
A6
100
AcDbEntity
  8
LINING1
 62
     1
100
AcDbVertex
100
AcDb2dVertex
 10
183.2013415142319
 20
204.4536328184338
 30
0.0
  0
VERTEX
  5
A9
330
A6
100
AcDbEntity
  8
LINING1
 62
     1
100
AcDbVertex
100
AcDb2dVertex
 10
183.2013415142319
 20
204.9521384640109
 30
0.0
  0
VERTEX
  5
AA
330
A6
100
AcDbEntity
  8
LINING1
 62
     1
100
AcDbVertex
100
AcDb2dVertex
 10
183.7015697086879
 20
204.9521384640109
 30
0.0
  0
VERTEX
  5
AB
330
A6
100
AcDbEntity
  8
LINING1
 62
     1
100
AcDbVertex
100
AcDb2dVertex
 10
183.7015697086879
 20
204.4536328184338
 30
0.0
  0
SEQEND
  5
AC
330
A6
100
AcDbEntity
  8
LINING1
  0
POLYLINE
  5
AD
330
40
100
AcDbEntity
  8
LINING1
 62
     1
100
AcDb2dPolyline
 66
     1
 10
0.0
 20
0.0
 30
0.0
  0
VERTEX
  5
AE
330
AD
100
AcDbEntity
  8
LINING1
 62
     1
100
AcDbVertex
100
AcDb2dVertex
 10
183.7015697086879
 20
207.6935750049089
 30
0.0
  0
VERTEX
  5
AF
330
AD
100
AcDbEntity
  8
LINING1
 62
     1
100
AcDbVertex
100
AcDb2dVertex
 10
183.2013415142319
 20
207.6935750049089
 30
0.0
  0
VERTEX
  5
B0
330
AD
100
AcDbEntity
  8
LINING1
 62
     1
100
AcDbVertex
100
AcDb2dVertex
 10
183.2013415142319
 20
208.192080650486
 30
0.0
  0
VERTEX
  5
B1
330
AD
100
AcDbEntity
  8
LINING1
 62
     1
100
AcDbVertex
100
AcDb2dVertex
 10
183.7015697086879
 20
208.192080650486
 30
0.0
  0
VERTEX
  5
B2
330
AD
100
AcDbEntity
  8
LINING1
 62
     1
100
AcDbVertex
100
AcDb2dVertex
 10
183.7015697086879
 20
207.6935750049089
 30
0.0
  0
SEQEND
  5
B3
330
AD
100
AcDbEntity
  8
LINING1
  0
POLYLINE
  5
B4
330
40
100
AcDbEntity
  8
LINING1
 62
     1
100
AcDb2dPolyline
 66
     1
 10
0.0
 20
0.0
 30
0.0
  0
VERTEX
  5
B5
330
B4
100
AcDbEntity
  8
LINING1
 62
     1
100
AcDbVertex
100
AcDb2dVertex
 10
183.7015697086879
 20
210.933517191384
 30
0.0
  0
VERTEX
  5
B6
330
B4
100
AcDbEntity
  8
LINING1
 62
     1
100
AcDbVertex
100
AcDb2dVertex
 10
183.2013415142319
 20
210.933517191384
 30
0.0
  0
VERTEX
  5
B7
330
B4
100
AcDbEntity
  8
LINING1
 62
     1
100
AcDbVertex
100
AcDb2dVertex
 10
183.2013415142319
 20
211.432022836961
 30
0.0
  0
VERTEX
  5
B8
330
B4
100
AcDbEntity
  8
LINING1
 62
     1
100
AcDbVertex
100
AcDb2dVertex
 10
183.7015697086879
 20
211.432022836961
 30
0.0
  0
VERTEX
  5
B9
330
B4
100
AcDbEntity
  8
LINING1
 62
     1
100
AcDbVertex
100
AcDb2dVertex
 10
183.7015697086879
 20
210.933517191384
 30
0.0
  0
SEQEND
  5
BA
330
B4
100
AcDbEntity
  8
LINING1
  0
POLYLINE
  5
BB
330
40
100
AcDbEntity
  8
LINING1
 62
     1
100
AcDb2dPolyline
 66
     1
 10
0.0
 20
0.0
 30
0.0
  0
VERTEX
  5
BC
330
BB
100
AcDbEntity
  8
LINING1
 62
     1
100
AcDbVertex
100
AcDb2dVertex
 10
183.7015697086879
 20
214.1734593778591
 30
0.0
  0
VERTEX
  5
BD
330
BB
100
AcDbEntity
  8
LINING1
 62
     1
100
AcDbVertex
100
AcDb2dVertex
 10
183.2013415142319
 20
214.1734593778591
 30
0.0
  0
VERTEX
  5
BE
330
BB
100
AcDbEntity
  8
LINING1
 62
     1
100
AcDbVertex
100
AcDb2dVertex
 10
183.2013415142319
 20
214.6719650234361
 30
0.0
  0
VERTEX
  5
BF
330
BB
100
AcDbEntity
  8
LINING1
 62
     1
100
AcDbVertex
100
AcDb2dVertex
 10
183.7015697086879
 20
214.6719650234361
 30
0.0
  0
VERTEX
  5
C0
330
BB
100
AcDbEntity
  8
LINING1
 62
     1
100
AcDbVertex
100
AcDb2dVertex
 10
183.7015697086879
 20
214.1734593778591
 30
0.0
  0
SEQEND
  5
C1
330
BB
100
AcDbEntity
  8
LINING1
  0
POLYLINE
  5
C2
330
40
100
AcDbEntity
  8
LINING1
 62
     1
100
AcDb2dPolyline
 66
     1
 10
0.0
 20
0.0
 30
0.0
  0
VERTEX
  5
C3
330
C2
100
AcDbEntity
  8
LINING1
 62
     1
100
AcDbVertex
100
AcDb2dVertex
 10
183.7015697086879
 20
217.4134015643341
 30
0.0
  0
VERTEX
  5
C4
330
C2
100
AcDbEntity
  8
LINING1
 62
     1
100
AcDbVertex
100
AcDb2dVertex
 10
183.2013415142319
 20
217.4134015643341
 30
0.0
  0
VERTEX
  5
C5
330
C2
100
AcDbEntity
  8
LINING1
 62
     1
100
AcDbVertex
100
AcDb2dVertex
 10
183.2013415142319
 20
217.9119072099112
 30
0.0
  0
VERTEX
  5
C6
330
C2
100
AcDbEntity
  8
LINING1
 62
     1
100
AcDbVertex
100
AcDb2dVertex
 10
183.7015697086879
 20
217.9119072099112
 30
0.0
  0
VERTEX
  5
C7
330
C2
100
AcDbEntity
  8
LINING1
 62
     1
100
AcDbVertex
100
AcDb2dVertex
 10
183.7015697086879
 20
217.4134015643341
 30
0.0
  0
SEQEND
  5
C8
330
C2
100
AcDbEntity
  8
LINING1
  0
POLYLINE
  5
C9
330
40
100
AcDbEntity
  8
LINING1
 62
     1
100
AcDb2dPolyline
 66
     1
 10
0.0
 20
0.0
 30
0.0
  0
VERTEX
  5
CA
330
C9
100
AcDbEntity
  8
LINING1
 62
     1
100
AcDbVertex
100
AcDb2dVertex
 10
183.7015697086879
 20
220.6533437508092
 30
0.0
  0
VERTEX
  5
CB
330
C9
100
AcDbEntity
  8
LINING1
 62
     1
100
AcDbVertex
100
AcDb2dVertex
 10
183.2013415142319
 20
220.6533437508092
 30
0.0
  0
VERTEX
  5
CC
330
C9
100
AcDbEntity
  8
LINING1
 62
     1
100
AcDbVertex
100
AcDb2dVertex
 10
183.2013415142319
 20
221.1518493963863
 30
0.0
  0
VERTEX
  5
CD
330
C9
100
AcDbEntity
  8
LINING1
 62
     1
100
AcDbVertex
100
AcDb2dVertex
 10
183.7015697086879
 20
221.1518493963863
 30
0.0
  0
VERTEX
  5
CE
330
C9
100
AcDbEntity
  8
LINING1
 62
     1
100
AcDbVertex
100
AcDb2dVertex
 10
183.7015697086879
 20
220.6533437508092
 30
0.0
  0
SEQEND
  5
CF
330
C9
100
AcDbEntity
  8
LINING1
  0
POLYLINE
  5
D0
330
40
100
AcDbEntity
  8
LINING1
 62
     1
100
AcDb2dPolyline
 66
     1
 10
0.0
 20
0.0
 30
0.0
  0
VERTEX
  5
D1
330
D0
100
AcDbEntity
  8
LINING1
 62
     1
100
AcDbVertex
100
AcDb2dVertex
 10
183.7015697086879
 20
223.8932859372843
 30
0.0
  0
VERTEX
  5
D2
330
D0
100
AcDbEntity
  8
LINING1
 62
     1
100
AcDbVertex
100
AcDb2dVertex
 10
183.2013415142319
 20
223.8932859372843
 30
0.0
  0
VERTEX
  5
D3
330
D0
100
AcDbEntity
  8
LINING1
 62
     1
100
AcDbVertex
100
AcDb2dVertex
 10
183.2013415142319
 20
224.3917915828613
 30
0.0
  0
VERTEX
  5
D4
330
D0
100
AcDbEntity
  8
LINING1
 62
     1
100
AcDbVertex
100
AcDb2dVertex
 10
183.7015697086879
 20
224.3917915828613
 30
0.0
  0
VERTEX
  5
D5
330
D0
100
AcDbEntity
  8
LINING1
 62
     1
100
AcDbVertex
100
AcDb2dVertex
 10
183.7015697086879
 20
223.8932859372843
 30
0.0
  0
SEQEND
  5
D6
330
D0
100
AcDbEntity
  8
LINING1
  0
POLYLINE
  5
D7
330
40
100
AcDbEntity
  8
LINING1
 62
     1
100
AcDb2dPolyline
 66
     1
 10
0.0
 20
0.0
 30
0.0
  0
VERTEX
  5
D8
330
D7
100
AcDbEntity
  8
LINING1
 62
     1
100
AcDbVertex
100
AcDb2dVertex
 10
183.7015697086879
 20
227.1332281237594
 30
0.0
  0
VERTEX
  5
D9
330
D7
100
AcDbEntity
  8
LINING1
 62
     1
100
AcDbVertex
100
AcDb2dVertex
 10
183.2013415142319
 20
227.1332281237594
 30
0.0
  0
VERTEX
  5
DA
330
D7
100
AcDbEntity
  8
LINING1
 62
     1
100
AcDbVertex
100
AcDb2dVertex
 10
183.2013415142319
 20
227.6317337693364
 30
0.0
  0
VERTEX
  5
DB
330
D7
100
AcDbEntity
  8
LINING1
 62
     1
100
AcDbVertex
100
AcDb2dVertex
 10
183.7015697086879
 20
227.6317337693364
 30
0.0
  0
VERTEX
  5
DC
330
D7
100
AcDbEntity
  8
LINING1
 62
     1
100
AcDbVertex
100
AcDb2dVertex
 10
183.7015697086879
 20
227.1332281237594
 30
0.0
  0
SEQEND
  5
DD
330
D7
100
AcDbEntity
  8
LINING1
  0
POLYLINE
  5
DE
330
40
100
AcDbEntity
  8
LINING1
 62
     1
100
AcDb2dPolyline
 66
     1
 10
0.0
 20
0.0
 30
0.0
  0
VERTEX
  5
DF
330
DE
100
AcDbEntity
  8
LINING1
 62
     1
100
AcDbVertex
100
AcDb2dVertex
 10
183.7015697086879
 20
230.3731703102344
 30
0.0
  0
VERTEX
  5
E0
330
DE
100
AcDbEntity
  8
LINING1
 62
     1
100
AcDbVertex
100
AcDb2dVertex
 10
183.2013415142319
 20
230.3731703102344
 30
0.0
  0
VERTEX
  5
E1
330
DE
100
AcDbEntity
  8
LINING1
 62
     1
100
AcDbVertex
100
AcDb2dVertex
 10
183.2013415142319
 20
230.8716759558115
 30
0.0
  0
VERTEX
  5
E2
330
DE
100
AcDbEntity
  8
LINING1
 62
     1
100
AcDbVertex
100
AcDb2dVertex
 10
183.7015697086879
 20
230.8716759558115
 30
0.0
  0
VERTEX
  5
E3
330
DE
100
AcDbEntity
  8
LINING1
 62
     1
100
AcDbVertex
100
AcDb2dVertex
 10
183.7015697086879
 20
230.3731703102344
 30
0.0
  0
SEQEND
  5
E4
330
DE
100
AcDbEntity
  8
LINING1
  0
POLYLINE
  5
E5
330
40
100
AcDbEntity
  8
LINING1
 62
     1
100
AcDb2dPolyline
 66
     1
 10
0.0
 20
0.0
 30
0.0
  0
VERTEX
  5
E6
330
E5
100
AcDbEntity
  8
LINING1
 62
     1
100
AcDbVertex
100
AcDb2dVertex
 10
183.7015697086879
 20
233.6131124967095
 30
0.0
  0
VERTEX
  5
E7
330
E5
100
AcDbEntity
  8
LINING1
 62
     1
100
AcDbVertex
100
AcDb2dVertex
 10
183.2013415142319
 20
233.6131124967095
 30
0.0
  0
VERTEX
  5
E8
330
E5
100
AcDbEntity
  8
LINING1
 62
     1
100
AcDbVertex
100
AcDb2dVertex
 10
183.2013415142319
 20
234.1116181422865
 30
0.0
  0
VERTEX
  5
E9
330
E5
100
AcDbEntity
  8
LINING1
 62
     1
100
AcDbVertex
100
AcDb2dVertex
 10
183.7015697086879
 20
234.1116181422865
 30
0.0
  0
VERTEX
  5
EA
330
E5
100
AcDbEntity
  8
LINING1
 62
     1
100
AcDbVertex
100
AcDb2dVertex
 10
183.7015697086879
 20
233.6131124967095
 30
0.0
  0
SEQEND
  5
EB
330
E5
100
AcDbEntity
  8
LINING1
  0
POLYLINE
  5
EC
330
40
100
AcDbEntity
  8
LINING1
 62
     1
100
AcDb2dPolyline
 66
     1
 10
0.0
 20
0.0
 30
0.0
  0
VERTEX
  5
ED
330
EC
100
AcDbEntity
  8
LINING1
 62
     1
100
AcDbVertex
100
AcDb2dVertex
 10
183.7015697086879
 20
236.8530546831846
 30
0.0
  0
VERTEX
  5
EE
330
EC
100
AcDbEntity
  8
LINING1
 62
     1
100
AcDbVertex
100
AcDb2dVertex
 10
183.2013415142319
 20
236.8530546831846
 30
0.0
  0
VERTEX
  5
EF
330
EC
100
AcDbEntity
  8
LINING1
 62
     1
100
AcDbVertex
100
AcDb2dVertex
 10
183.2013415142319
 20
237.3515603287616
 30
0.0
  0
VERTEX
  5
F0
330
EC
100
AcDbEntity
  8
LINING1
 62
     1
100
AcDbVertex
100
AcDb2dVertex
 10
183.7015697086879
 20
237.3515603287616
 30
0.0
  0
VERTEX
  5
F1
330
EC
100
AcDbEntity
  8
LINING1
 62
     1
100
AcDbVertex
100
AcDb2dVertex
 10
183.7015697086879
 20
236.8530546831846
 30
0.0
  0
SEQEND
  5
F2
330
EC
100
AcDbEntity
  8
LINING1
  0
POLYLINE
  5
F3
330
40
100
AcDbEntity
  8
LINING1
 62
     1
100
AcDb2dPolyline
 66
     1
 10
0.0
 20
0.0
 30
0.0
  0
VERTEX
  5
F4
330
F3
100
AcDbEntity
  8
LINING1
 62
     1
100
AcDbVertex
100
AcDb2dVertex
 10
183.7015697086879
 20
159.3430060110198
 30
0.0
  0
VERTEX
  5
F5
330
F3
100
AcDbEntity
  8
LINING1
 62
     1
100
AcDbVertex
100
AcDb2dVertex
 10
183.2013415142319
 20
159.3430060110198
 30
0.0
  0
VERTEX
  5
F6
330
F3
100
AcDbEntity
  8
LINING1
 62
     1
100
AcDbVertex
100
AcDb2dVertex
 10
183.2013415142319
 20
159.5929478533599
 30
0.0
  0
VERTEX
  5
F7
330
F3
100
AcDbEntity
  8
LINING1
 62
     1
100
AcDbVertex
100
AcDb2dVertex
 10
183.7015697086879
 20
159.5929478533599
 30
0.0
  0
VERTEX
  5
F8
330
F3
100
AcDbEntity
  8
LINING1
 62
     1
100
AcDbVertex
100
AcDb2dVertex
 10
183.7015697086879
 20
159.3430060110198
 30
0.0
  0
SEQEND
  5
F9
330
F3
100
AcDbEntity
  8
LINING1
  0
POLYLINE
  5
FA
330
40
100
AcDbEntity
  8
LINING1
 62
     1
100
AcDb2dPolyline
 66
     1
 10
0.0
 20
0.0
 30
0.0
  0
VERTEX
  5
FB
330
FA
100
AcDbEntity
  8
LINING1
 62
     1
100
AcDbVertex
100
AcDb2dVertex
 10
183.7015697086879
 20
96.253619789019
 30
0.0
  0
VERTEX
  5
FC
330
FA
100
AcDbEntity
  8
LINING1
 62
     1
100
AcDbVertex
100
AcDb2dVertex
 10
183.2013415142319
 20
96.253619789019
 30
0.0
  0
VERTEX
  5
FD
330
FA
100
AcDbEntity
  8
LINING1
 62
     1
100
AcDbVertex
100
AcDb2dVertex
 10
183.2013415142319
 20
96.75212543459605
 30
0.0
  0
VERTEX
  5
FE
330
FA
100
AcDbEntity
  8
LINING1
 62
     1
100
AcDbVertex
100
AcDb2dVertex
 10
183.7015697086879
 20
96.75212543459605
 30
0.0
  0
VERTEX
  5
FF
330
FA
100
AcDbEntity
  8
LINING1
 62
     1
100
AcDbVertex
100
AcDb2dVertex
 10
183.7015697086879
 20
96.253619789019
 30
0.0
  0
SEQEND
  5
100
330
FA
100
AcDbEntity
  8
LINING1
  0
POLYLINE
  5
101
330
40
100
AcDbEntity
  8
LINING1
 62
     1
100
AcDb2dPolyline
 66
     1
 10
0.0
 20
0.0
 30
0.0
  0
VERTEX
  5
102
330
101
100
AcDbEntity
  8
LINING1
 62
     1
100
AcDbVertex
100
AcDb2dVertex
 10
183.7015697086879
 20
99.49373423038197
 30
0.0
  0
VERTEX
  5
103
330
101
100
AcDbEntity
  8
LINING1
 62
     1
100
AcDbVertex
100
AcDb2dVertex
 10
183.2013415142319
 20
99.49373423038197
 30
0.0
  0
VERTEX
  5
104
330
101
100
AcDbEntity
  8
LINING1
 62
     1
100
AcDbVertex
100
AcDb2dVertex
 10
183.2013415142319
 20
99.99223987595903
 30
0.0
  0
VERTEX
  5
105
330
101
100
AcDbEntity
  8
LINING1
 62
     1
100
AcDbVertex
100
AcDb2dVertex
 10
183.7015697086879
 20
99.99223987595903
 30
0.0
  0
VERTEX
  5
106
330
101
100
AcDbEntity
  8
LINING1
 62
     1
100
AcDbVertex
100
AcDb2dVertex
 10
183.7015697086879
 20
99.49373423038197
 30
0.0
  0
SEQEND
  5
107
330
101
100
AcDbEntity
  8
LINING1
  0
POLYLINE
  5
108
330
40
100
AcDbEntity
  8
LINING1
 62
     1
100
AcDb2dPolyline
 66
     1
 10
0.0
 20
0.0
 30
0.0
  0
VERTEX
  5
109
330
108
100
AcDbEntity
  8
LINING1
 62
     1
100
AcDbVertex
100
AcDb2dVertex
 10
183.7015697086879
 20
102.7335041619691
 30
0.0
  0
VERTEX
  5
10A
330
108
100
AcDbEntity
  8
LINING1
 62
     1
100
AcDbVertex
100
AcDb2dVertex
 10
183.2013415142319
 20
102.7335041619691
 30
0.0
  0
VERTEX
  5
10B
330
108
100
AcDbEntity
  8
LINING1
 62
     1
100
AcDbVertex
100
AcDb2dVertex
 10
183.2013415142319
 20
103.2320098075462
 30
0.0
  0
VERTEX
  5
10C
330
108
100
AcDbEntity
  8
LINING1
 62
     1
100
AcDbVertex
100
AcDb2dVertex
 10
183.7015697086879
 20
103.2320098075462
 30
0.0
  0
VERTEX
  5
10D
330
108
100
AcDbEntity
  8
LINING1
 62
     1
100
AcDbVertex
100
AcDb2dVertex
 10
183.7015697086879
 20
102.7335041619691
 30
0.0
  0
SEQEND
  5
10E
330
108
100
AcDbEntity
  8
LINING1
  0
POLYLINE
  5
10F
330
40
100
AcDbEntity
  8
LINING1
 62
     1
100
AcDb2dPolyline
 66
     1
 10
0.0
 20
0.0
 30
0.0
  0
VERTEX
  5
110
330
10F
100
AcDbEntity
  8
LINING1
 62
     1
100
AcDbVertex
100
AcDb2dVertex
 10
183.7015697086879
 20
105.9736186033321
 30
0.0
  0
VERTEX
  5
111
330
10F
100
AcDbEntity
  8
LINING1
 62
     1
100
AcDbVertex
100
AcDb2dVertex
 10
183.2013415142319
 20
105.9736186033321
 30
0.0
  0
VERTEX
  5
112
330
10F
100
AcDbEntity
  8
LINING1
 62
     1
100
AcDbVertex
100
AcDb2dVertex
 10
183.2013415142319
 20
106.4721242489092
 30
0.0
  0
VERTEX
  5
113
330
10F
100
AcDbEntity
  8
LINING1
 62
     1
100
AcDbVertex
100
AcDb2dVertex
 10
183.7015697086879
 20
106.4721242489092
 30
0.0
  0
VERTEX
  5
114
330
10F
100
AcDbEntity
  8
LINING1
 62
     1
100
AcDbVertex
100
AcDb2dVertex
 10
183.7015697086879
 20
105.9736186033321
 30
0.0
  0
SEQEND
  5
115
330
10F
100
AcDbEntity
  8
LINING1
  0
POLYLINE
  5
116
330
40
100
AcDbEntity
  8
LINING1
 62
     1
100
AcDb2dPolyline
 66
     1
 10
0.0
 20
0.0
 30
0.0
  0
VERTEX
  5
117
330
116
100
AcDbEntity
  8
LINING1
 62
     1
100
AcDbVertex
100
AcDb2dVertex
 10
91.20121167208029
 20
105.9732740935563
 30
0.0
  0
VERTEX
  5
118
330
116
100
AcDbEntity
  8
LINING1
 62
     1
100
AcDbVertex
100
AcDb2dVertex
 10
90.70132798740005
 20
105.9732740935563
 30
0.0
  0
VERTEX
  5
119
330
116
100
AcDbEntity
  8
LINING1
 62
     1
100
AcDbVertex
100
AcDb2dVertex
 10
90.70132798740005
 20
106.4717797391334
 30
0.0
  0
VERTEX
  5
11A
330
116
100
AcDbEntity
  8
LINING1
 62
     1
100
AcDbVertex
100
AcDb2dVertex
 10
91.20121167208029
 20
106.4717797391334
 30
0.0
  0
VERTEX
  5
11B
330
116
100
AcDbEntity
  8
LINING1
 62
     1
100
AcDbVertex
100
AcDb2dVertex
 10
91.20121167208029
 20
105.9732740935563
 30
0.0
  0
SEQEND
  5
11C
330
116
100
AcDbEntity
  8
LINING1
  0
POLYLINE
  5
11D
330
40
100
AcDbEntity
  8
LINING1
 62
     1
100
AcDb2dPolyline
 66
     1
 10
0.0
 20
0.0
 30
0.0
  0
VERTEX
  5
11E
330
11D
100
AcDbEntity
  8
LINING1
 62
     1
100
AcDbVertex
100
AcDb2dVertex
 10
91.20121167208029
 20
109.2133885349193
 30
0.0
  0
VERTEX
  5
11F
330
11D
100
AcDbEntity
  8
LINING1
 62
     1
100
AcDbVertex
100
AcDb2dVertex
 10
90.70132798740005
 20
109.2133885349193
 30
0.0
  0
VERTEX
  5
120
330
11D
100
AcDbEntity
  8
LINING1
 62
     1
100
AcDbVertex
100
AcDb2dVertex
 10
90.70132798740005
 20
109.7118941804963
 30
0.0
  0
VERTEX
  5
121
330
11D
100
AcDbEntity
  8
LINING1
 62
     1
100
AcDbVertex
100
AcDb2dVertex
 10
91.20121167208029
 20
109.7118941804963
 30
0.0
  0
VERTEX
  5
122
330
11D
100
AcDbEntity
  8
LINING1
 62
     1
100
AcDbVertex
100
AcDb2dVertex
 10
91.20121167208029
 20
109.2133885349193
 30
0.0
  0
SEQEND
  5
123
330
11D
100
AcDbEntity
  8
LINING1
  0
POLYLINE
  5
124
330
40
100
AcDbEntity
  8
LINING1
 62
     1
100
AcDb2dPolyline
 66
     1
 10
0.0
 20
0.0
 30
0.0
  0
VERTEX
  5
125
330
124
100
AcDbEntity
  8
LINING1
 62
     1
100
AcDbVertex
100
AcDb2dVertex
 10
91.20121167208029
 20
112.4535029762823
 30
0.0
  0
VERTEX
  5
126
330
124
100
AcDbEntity
  8
LINING1
 62
     1
100
AcDbVertex
100
AcDb2dVertex
 10
90.70132798740005
 20
112.4535029762823
 30
0.0
  0
VERTEX
  5
127
330
124
100
AcDbEntity
  8
LINING1
 62
     1
100
AcDbVertex
100
AcDb2dVertex
 10
90.70132798740005
 20
112.9516641120835
 30
0.0
  0
VERTEX
  5
128
330
124
100
AcDbEntity
  8
LINING1
 62
     1
100
AcDbVertex
100
AcDb2dVertex
 10
91.20121167208029
 20
112.9516641120835
 30
0.0
  0
VERTEX
  5
129
330
124
100
AcDbEntity
  8
LINING1
 62
     1
100
AcDbVertex
100
AcDb2dVertex
 10
91.20121167208029
 20
112.4535029762823
 30
0.0
  0
SEQEND
  5
12A
330
124
100
AcDbEntity
  8
LINING1
  0
POLYLINE
  5
12B
330
40
100
AcDbEntity
  8
LINING1
 62
     1
100
AcDb2dPolyline
 66
     1
 10
0.0
 20
0.0
 30
0.0
  0
VERTEX
  5
12C
330
12B
100
AcDbEntity
  8
LINING1
 62
     1
100
AcDbVertex
100
AcDb2dVertex
 10
91.20121167208029
 20
115.6932729078694
 30
0.0
  0
VERTEX
  5
12D
330
12B
100
AcDbEntity
  8
LINING1
 62
     1
100
AcDbVertex
100
AcDb2dVertex
 10
90.70132798740005
 20
115.6932729078694
 30
0.0
  0
VERTEX
  5
12E
330
12B
100
AcDbEntity
  8
LINING1
 62
     1
100
AcDbVertex
100
AcDb2dVertex
 10
90.70132798740005
 20
116.1917785534465
 30
0.0
  0
VERTEX
  5
12F
330
12B
100
AcDbEntity
  8
LINING1
 62
     1
100
AcDbVertex
100
AcDb2dVertex
 10
91.20121167208029
 20
116.1917785534465
 30
0.0
  0
VERTEX
  5
130
330
12B
100
AcDbEntity
  8
LINING1
 62
     1
100
AcDbVertex
100
AcDb2dVertex
 10
91.20121167208029
 20
115.6932729078694
 30
0.0
  0
SEQEND
  5
131
330
12B
100
AcDbEntity
  8
LINING1
  0
POLYLINE
  5
132
330
40
100
AcDbEntity
  8
LINING1
 62
     1
100
AcDb2dPolyline
 66
     1
 10
0.0
 20
0.0
 30
0.0
  0
VERTEX
  5
133
330
132
100
AcDbEntity
  8
LINING1
 62
     1
100
AcDbVertex
100
AcDb2dVertex
 10
91.20121167208029
 20
118.9333873492324
 30
0.0
  0
VERTEX
  5
134
330
132
100
AcDbEntity
  8
LINING1
 62
     1
100
AcDbVertex
100
AcDb2dVertex
 10
90.70132798740005
 20
118.9333873492324
 30
0.0
  0
VERTEX
  5
135
330
132
100
AcDbEntity
  8
LINING1
 62
     1
100
AcDbVertex
100
AcDb2dVertex
 10
90.70132798740005
 20
119.4318929948094
 30
0.0
  0
VERTEX
  5
136
330
132
100
AcDbEntity
  8
LINING1
 62
     1
100
AcDbVertex
100
AcDb2dVertex
 10
91.20121167208029
 20
119.4318929948094
 30
0.0
  0
VERTEX
  5
137
330
132
100
AcDbEntity
  8
LINING1
 62
     1
100
AcDbVertex
100
AcDb2dVertex
 10
91.20121167208029
 20
118.9333873492324
 30
0.0
  0
SEQEND
  5
138
330
132
100
AcDbEntity
  8
LINING1
  0
POLYLINE
  5
139
330
40
100
AcDbEntity
  8
LINING1
 62
     1
100
AcDb2dPolyline
 66
     1
 10
0.0
 20
0.0
 30
0.0
  0
VERTEX
  5
13A
330
139
100
AcDbEntity
  8
LINING1
 62
     1
100
AcDbVertex
100
AcDb2dVertex
 10
-30.29877350683356
 20
240.0931691245475
 30
0.0
  0
VERTEX
  5
13B
330
139
100
AcDbEntity
  8
LINING1
 62
     1
100
AcDbVertex
100
AcDb2dVertex
 10
-30.7986571915138
 20
240.0931691245475
 30
0.0
  0
VERTEX
  5
13C
330
139
100
AcDbEntity
  8
LINING1
 62
     1
100
AcDbVertex
100
AcDb2dVertex
 10
-30.7986571915138
 20
240.3431109668877
 30
0.0
  0
VERTEX
  5
13D
330
139
100
AcDbEntity
  8
LINING1
 62
     1
100
AcDbVertex
100
AcDb2dVertex
 10
-30.29877350683356
 20
240.3431109668877
 30
0.0
  0
VERTEX
  5
13E
330
139
100
AcDbEntity
  8
LINING1
 62
     1
100
AcDbVertex
100
AcDb2dVertex
 10
-30.29877350683356
 20
240.0931691245475
 30
0.0
  0
SEQEND
  5
13F
330
139
100
AcDbEntity
  8
LINING1
  0
POLYLINE
  5
140
330
40
100
AcDbEntity
  8
LINING1
 62
     1
100
AcDb2dPolyline
 66
     1
 10
0.0
 20
0.0
 30
0.0
  0
VERTEX
  5
141
330
140
100
AcDbEntity
  8
LINING1
 62
     1
100
AcDbVertex
100
AcDb2dVertex
 10
-30.29877350683356
 20
162.3343843942579
 30
0.0
  0
VERTEX
  5
142
330
140
100
AcDbEntity
  8
LINING1
 62
     1
100
AcDbVertex
100
AcDb2dVertex
 10
-30.7986571915138
 20
162.3343843942579
 30
0.0
  0
VERTEX
  5
143
330
140
100
AcDbEntity
  8
LINING1
 62
     1
100
AcDbVertex
100
AcDb2dVertex
 10
-30.7986571915138
 20
162.832890039835
 30
0.0
  0
VERTEX
  5
144
330
140
100
AcDbEntity
  8
LINING1
 62
     1
100
AcDbVertex
100
AcDb2dVertex
 10
-30.29877350683356
 20
162.832890039835
 30
0.0
  0
VERTEX
  5
145
330
140
100
AcDbEntity
  8
LINING1
 62
     1
100
AcDbVertex
100
AcDb2dVertex
 10
-30.29877350683356
 20
162.3343843942579
 30
0.0
  0
SEQEND
  5
146
330
140
100
AcDbEntity
  8
LINING1
  0
POLYLINE
  5
147
330
40
100
AcDbEntity
  8
LINING1
 62
     1
100
AcDb2dPolyline
 66
     1
 10
0.0
 20
0.0
 30
0.0
  0
VERTEX
  5
148
330
147
100
AcDbEntity
  8
LINING1
 62
     1
100
AcDbVertex
100
AcDb2dVertex
 10
-30.29877350683356
 20
165.574326580733
 30
0.0
  0
VERTEX
  5
149
330
147
100
AcDbEntity
  8
LINING1
 62
     1
100
AcDbVertex
100
AcDb2dVertex
 10
-30.7986571915138
 20
165.574326580733
 30
0.0
  0
VERTEX
  5
14A
330
147
100
AcDbEntity
  8
LINING1
 62
     1
100
AcDbVertex
100
AcDb2dVertex
 10
-30.7986571915138
 20
166.0728322263101
 30
0.0
  0
VERTEX
  5
14B
330
147
100
AcDbEntity
  8
LINING1
 62
     1
100
AcDbVertex
100
AcDb2dVertex
 10
-30.29877350683356
 20
166.0728322263101
 30
0.0
  0
VERTEX
  5
14C
330
147
100
AcDbEntity
  8
LINING1
 62
     1
100
AcDbVertex
100
AcDb2dVertex
 10
-30.29877350683356
 20
165.574326580733
 30
0.0
  0
SEQEND
  5
14D
330
147
100
AcDbEntity
  8
LINING1
  0
POLYLINE
  5
14E
330
40
100
AcDbEntity
  8
LINING1
 62
     1
100
AcDb2dPolyline
 66
     1
 10
0.0
 20
0.0
 30
0.0
  0
VERTEX
  5
14F
330
14E
100
AcDbEntity
  8
LINING1
 62
     1
100
AcDbVertex
100
AcDb2dVertex
 10
-30.29877350683356
 20
168.8142687672081
 30
0.0
  0
VERTEX
  5
150
330
14E
100
AcDbEntity
  8
LINING1
 62
     1
100
AcDbVertex
100
AcDb2dVertex
 10
-30.7986571915138
 20
168.8142687672081
 30
0.0
  0
VERTEX
  5
151
330
14E
100
AcDbEntity
  8
LINING1
 62
     1
100
AcDbVertex
100
AcDb2dVertex
 10
-30.7986571915138
 20
169.3127744127851
 30
0.0
  0
VERTEX
  5
152
330
14E
100
AcDbEntity
  8
LINING1
 62
     1
100
AcDbVertex
100
AcDb2dVertex
 10
-30.29877350683356
 20
169.3127744127851
 30
0.0
  0
VERTEX
  5
153
330
14E
100
AcDbEntity
  8
LINING1
 62
     1
100
AcDbVertex
100
AcDb2dVertex
 10
-30.29877350683356
 20
168.8142687672081
 30
0.0
  0
SEQEND
  5
154
330
14E
100
AcDbEntity
  8
LINING1
  0
POLYLINE
  5
155
330
40
100
AcDbEntity
  8
LINING1
 62
     1
100
AcDb2dPolyline
 66
     1
 10
0.0
 20
0.0
 30
0.0
  0
VERTEX
  5
156
330
155
100
AcDbEntity
  8
LINING1
 62
     1
100
AcDbVertex
100
AcDb2dVertex
 10
-30.29877350683356
 20
172.0542109536832
 30
0.0
  0
VERTEX
  5
157
330
155
100
AcDbEntity
  8
LINING1
 62
     1
100
AcDbVertex
100
AcDb2dVertex
 10
-30.7986571915138
 20
172.0542109536832
 30
0.0
  0
VERTEX
  5
158
330
155
100
AcDbEntity
  8
LINING1
 62
     1
100
AcDbVertex
100
AcDb2dVertex
 10
-30.7986571915138
 20
172.5527165992602
 30
0.0
  0
VERTEX
  5
159
330
155
100
AcDbEntity
  8
LINING1
 62
     1
100
AcDbVertex
100
AcDb2dVertex
 10
-30.29877350683356
 20
172.5527165992602
 30
0.0
  0
VERTEX
  5
15A
330
155
100
AcDbEntity
  8
LINING1
 62
     1
100
AcDbVertex
100
AcDb2dVertex
 10
-30.29877350683356
 20
172.0542109536832
 30
0.0
  0
SEQEND
  5
15B
330
155
100
AcDbEntity
  8
LINING1
  0
POLYLINE
  5
15C
330
40
100
AcDbEntity
  8
LINING1
 62
     1
100
AcDb2dPolyline
 66
     1
 10
0.0
 20
0.0
 30
0.0
  0
VERTEX
  5
15D
330
15C
100
AcDbEntity
  8
LINING1
 62
     1
100
AcDbVertex
100
AcDb2dVertex
 10
-30.29877350683356
 20
175.2941531401582
 30
0.0
  0
VERTEX
  5
15E
330
15C
100
AcDbEntity
  8
LINING1
 62
     1
100
AcDbVertex
100
AcDb2dVertex
 10
-30.7986571915138
 20
175.2941531401582
 30
0.0
  0
VERTEX
  5
15F
330
15C
100
AcDbEntity
  8
LINING1
 62
     1
100
AcDbVertex
100
AcDb2dVertex
 10
-30.7986571915138
 20
175.7926587857353
 30
0.0
  0
VERTEX
  5
160
330
15C
100
AcDbEntity
  8
LINING1
 62
     1
100
AcDbVertex
100
AcDb2dVertex
 10
-30.29877350683356
 20
175.7926587857353
 30
0.0
  0
VERTEX
  5
161
330
15C
100
AcDbEntity
  8
LINING1
 62
     1
100
AcDbVertex
100
AcDb2dVertex
 10
-30.29877350683356
 20
175.2941531401582
 30
0.0
  0
SEQEND
  5
162
330
15C
100
AcDbEntity
  8
LINING1
  0
POLYLINE
  5
163
330
40
100
AcDbEntity
  8
LINING1
 62
     1
100
AcDb2dPolyline
 66
     1
 10
0.0
 20
0.0
 30
0.0
  0
VERTEX
  5
164
330
163
100
AcDbEntity
  8
LINING1
 62
     1
100
AcDbVertex
100
AcDb2dVertex
 10
-30.29877350683356
 20
178.5340953266333
 30
0.0
  0
VERTEX
  5
165
330
163
100
AcDbEntity
  8
LINING1
 62
     1
100
AcDbVertex
100
AcDb2dVertex
 10
-30.7986571915138
 20
178.5340953266333
 30
0.0
  0
VERTEX
  5
166
330
163
100
AcDbEntity
  8
LINING1
 62
     1
100
AcDbVertex
100
AcDb2dVertex
 10
-30.7986571915138
 20
179.0326009722104
 30
0.0
  0
VERTEX
  5
167
330
163
100
AcDbEntity
  8
LINING1
 62
     1
100
AcDbVertex
100
AcDb2dVertex
 10
-30.29877350683356
 20
179.0326009722104
 30
0.0
  0
VERTEX
  5
168
330
163
100
AcDbEntity
  8
LINING1
 62
     1
100
AcDbVertex
100
AcDb2dVertex
 10
-30.29877350683356
 20
178.5340953266333
 30
0.0
  0
SEQEND
  5
169
330
163
100
AcDbEntity
  8
LINING1
  0
POLYLINE
  5
16A
330
40
100
AcDbEntity
  8
LINING1
 62
     1
100
AcDb2dPolyline
 66
     1
 10
0.0
 20
0.0
 30
0.0
  0
VERTEX
  5
16B
330
16A
100
AcDbEntity
  8
LINING1
 62
     1
100
AcDbVertex
100
AcDb2dVertex
 10
-30.29877350683356
 20
181.7740375131084
 30
0.0
  0
VERTEX
  5
16C
330
16A
100
AcDbEntity
  8
LINING1
 62
     1
100
AcDbVertex
100
AcDb2dVertex
 10
-30.7986571915138
 20
181.7740375131084
 30
0.0
  0
VERTEX
  5
16D
330
16A
100
AcDbEntity
  8
LINING1
 62
     1
100
AcDbVertex
100
AcDb2dVertex
 10
-30.7986571915138
 20
182.2725431586854
 30
0.0
  0
VERTEX
  5
16E
330
16A
100
AcDbEntity
  8
LINING1
 62
     1
100
AcDbVertex
100
AcDb2dVertex
 10
-30.29877350683356
 20
182.2725431586854
 30
0.0
  0
VERTEX
  5
16F
330
16A
100
AcDbEntity
  8
LINING1
 62
     1
100
AcDbVertex
100
AcDb2dVertex
 10
-30.29877350683356
 20
181.7740375131084
 30
0.0
  0
SEQEND
  5
170
330
16A
100
AcDbEntity
  8
LINING1
  0
POLYLINE
  5
171
330
40
100
AcDbEntity
  8
LINING1
 62
     1
100
AcDb2dPolyline
 66
     1
 10
0.0
 20
0.0
 30
0.0
  0
VERTEX
  5
172
330
171
100
AcDbEntity
  8
LINING1
 62
     1
100
AcDbVertex
100
AcDb2dVertex
 10
-30.29877350683356
 20
185.0139796995834
 30
0.0
  0
VERTEX
  5
173
330
171
100
AcDbEntity
  8
LINING1
 62
     1
100
AcDbVertex
100
AcDb2dVertex
 10
-30.7986571915138
 20
185.0139796995834
 30
0.0
  0
VERTEX
  5
174
330
171
100
AcDbEntity
  8
LINING1
 62
     1
100
AcDbVertex
100
AcDb2dVertex
 10
-30.7986571915138
 20
185.5124853451605
 30
0.0
  0
VERTEX
  5
175
330
171
100
AcDbEntity
  8
LINING1
 62
     1
100
AcDbVertex
100
AcDb2dVertex
 10
-30.29877350683356
 20
185.5124853451605
 30
0.0
  0
VERTEX
  5
176
330
171
100
AcDbEntity
  8
LINING1
 62
     1
100
AcDbVertex
100
AcDb2dVertex
 10
-30.29877350683356
 20
185.0139796995834
 30
0.0
  0
SEQEND
  5
177
330
171
100
AcDbEntity
  8
LINING1
  0
POLYLINE
  5
178
330
40
100
AcDbEntity
  8
LINING1
 62
     1
100
AcDb2dPolyline
 66
     1
 10
0.0
 20
0.0
 30
0.0
  0
VERTEX
  5
179
330
178
100
AcDbEntity
  8
LINING1
 62
     1
100
AcDbVertex
100
AcDb2dVertex
 10
-30.29877350683356
 20
188.2539218860585
 30
0.0
  0
VERTEX
  5
17A
330
178
100
AcDbEntity
  8
LINING1
 62
     1
100
AcDbVertex
100
AcDb2dVertex
 10
-30.7986571915138
 20
188.2539218860585
 30
0.0
  0
VERTEX
  5
17B
330
178
100
AcDbEntity
  8
LINING1
 62
     1
100
AcDbVertex
100
AcDb2dVertex
 10
-30.7986571915138
 20
188.7524275316356
 30
0.0
  0
VERTEX
  5
17C
330
178
100
AcDbEntity
  8
LINING1
 62
     1
100
AcDbVertex
100
AcDb2dVertex
 10
-30.29877350683356
 20
188.7524275316356
 30
0.0
  0
VERTEX
  5
17D
330
178
100
AcDbEntity
  8
LINING1
 62
     1
100
AcDbVertex
100
AcDb2dVertex
 10
-30.29877350683356
 20
188.2539218860585
 30
0.0
  0
SEQEND
  5
17E
330
178
100
AcDbEntity
  8
LINING1
  0
POLYLINE
  5
17F
330
40
100
AcDbEntity
  8
LINING1
 62
     1
100
AcDb2dPolyline
 66
     1
 10
0.0
 20
0.0
 30
0.0
  0
VERTEX
  5
180
330
17F
100
AcDbEntity
  8
LINING1
 62
     1
100
AcDbVertex
100
AcDb2dVertex
 10
-30.29877350683356
 20
191.4938640725336
 30
0.0
  0
VERTEX
  5
181
330
17F
100
AcDbEntity
  8
LINING1
 62
     1
100
AcDbVertex
100
AcDb2dVertex
 10
-30.7986571915138
 20
191.4938640725336
 30
0.0
  0
VERTEX
  5
182
330
17F
100
AcDbEntity
  8
LINING1
 62
     1
100
AcDbVertex
100
AcDb2dVertex
 10
-30.7986571915138
 20
191.9923697181106
 30
0.0
  0
VERTEX
  5
183
330
17F
100
AcDbEntity
  8
LINING1
 62
     1
100
AcDbVertex
100
AcDb2dVertex
 10
-30.29877350683356
 20
191.9923697181106
 30
0.0
  0
VERTEX
  5
184
330
17F
100
AcDbEntity
  8
LINING1
 62
     1
100
AcDbVertex
100
AcDb2dVertex
 10
-30.29877350683356
 20
191.4938640725336
 30
0.0
  0
SEQEND
  5
185
330
17F
100
AcDbEntity
  8
LINING1
  0
POLYLINE
  5
186
330
40
100
AcDbEntity
  8
LINING1
 62
     1
100
AcDb2dPolyline
 66
     1
 10
0.0
 20
0.0
 30
0.0
  0
VERTEX
  5
187
330
186
100
AcDbEntity
  8
LINING1
 62
     1
100
AcDbVertex
100
AcDb2dVertex
 10
-30.29877350683356
 20
194.7338062590086
 30
0.0
  0
VERTEX
  5
188
330
186
100
AcDbEntity
  8
LINING1
 62
     1
100
AcDbVertex
100
AcDb2dVertex
 10
-30.7986571915138
 20
194.7338062590086
 30
0.0
  0
VERTEX
  5
189
330
186
100
AcDbEntity
  8
LINING1
 62
     1
100
AcDbVertex
100
AcDb2dVertex
 10
-30.7986571915138
 20
195.2323119045857
 30
0.0
  0
VERTEX
  5
18A
330
186
100
AcDbEntity
  8
LINING1
 62
     1
100
AcDbVertex
100
AcDb2dVertex
 10
-30.29877350683356
 20
195.2323119045857
 30
0.0
  0
VERTEX
  5
18B
330
186
100
AcDbEntity
  8
LINING1
 62
     1
100
AcDbVertex
100
AcDb2dVertex
 10
-30.29877350683356
 20
194.7338062590086
 30
0.0
  0
SEQEND
  5
18C
330
186
100
AcDbEntity
  8
LINING1
  0
POLYLINE
  5
18D
330
40
100
AcDbEntity
  8
LINING1
 62
     1
100
AcDb2dPolyline
 66
     1
 10
0.0
 20
0.0
 30
0.0
  0
VERTEX
  5
18E
330
18D
100
AcDbEntity
  8
LINING1
 62
     1
100
AcDbVertex
100
AcDb2dVertex
 10
-30.29877350683356
 20
197.9737484454837
 30
0.0
  0
VERTEX
  5
18F
330
18D
100
AcDbEntity
  8
LINING1
 62
     1
100
AcDbVertex
100
AcDb2dVertex
 10
-30.7986571915138
 20
197.9737484454837
 30
0.0
  0
VERTEX
  5
190
330
18D
100
AcDbEntity
  8
LINING1
 62
     1
100
AcDbVertex
100
AcDb2dVertex
 10
-30.7986571915138
 20
198.4722540910608
 30
0.0
  0
VERTEX
  5
191
330
18D
100
AcDbEntity
  8
LINING1
 62
     1
100
AcDbVertex
100
AcDb2dVertex
 10
-30.29877350683356
 20
198.4722540910608
 30
0.0
  0
VERTEX
  5
192
330
18D
100
AcDbEntity
  8
LINING1
 62
     1
100
AcDbVertex
100
AcDb2dVertex
 10
-30.29877350683356
 20
197.9737484454837
 30
0.0
  0
SEQEND
  5
193
330
18D
100
AcDbEntity
  8
LINING1
  0
POLYLINE
  5
194
330
40
100
AcDbEntity
  8
LINING1
 62
     1
100
AcDb2dPolyline
 66
     1
 10
0.0
 20
0.0
 30
0.0
  0
VERTEX
  5
195
330
194
100
AcDbEntity
  8
LINING1
 62
     1
100
AcDbVertex
100
AcDb2dVertex
 10
-30.29877350683356
 20
201.2136906319588
 30
0.0
  0
VERTEX
  5
196
330
194
100
AcDbEntity
  8
LINING1
 62
     1
100
AcDbVertex
100
AcDb2dVertex
 10
-30.7986571915138
 20
201.2136906319588
 30
0.0
  0
VERTEX
  5
197
330
194
100
AcDbEntity
  8
LINING1
 62
     1
100
AcDbVertex
100
AcDb2dVertex
 10
-30.7986571915138
 20
201.7121962775358
 30
0.0
  0
VERTEX
  5
198
330
194
100
AcDbEntity
  8
LINING1
 62
     1
100
AcDbVertex
100
AcDb2dVertex
 10
-30.29877350683356
 20
201.7121962775358
 30
0.0
  0
VERTEX
  5
199
330
194
100
AcDbEntity
  8
LINING1
 62
     1
100
AcDbVertex
100
AcDb2dVertex
 10
-30.29877350683356
 20
201.2136906319588
 30
0.0
  0
SEQEND
  5
19A
330
194
100
AcDbEntity
  8
LINING1
  0
POLYLINE
  5
19B
330
40
100
AcDbEntity
  8
LINING1
 62
     1
100
AcDb2dPolyline
 66
     1
 10
0.0
 20
0.0
 30
0.0
  0
VERTEX
  5
19C
330
19B
100
AcDbEntity
  8
LINING1
 62
     1
100
AcDbVertex
100
AcDb2dVertex
 10
-30.29877350683356
 20
204.4536328184338
 30
0.0
  0
VERTEX
  5
19D
330
19B
100
AcDbEntity
  8
LINING1
 62
     1
100
AcDbVertex
100
AcDb2dVertex
 10
-30.7986571915138
 20
204.4536328184338
 30
0.0
  0
VERTEX
  5
19E
330
19B
100
AcDbEntity
  8
LINING1
 62
     1
100
AcDbVertex
100
AcDb2dVertex
 10
-30.7986571915138
 20
204.9521384640109
 30
0.0
  0
VERTEX
  5
19F
330
19B
100
AcDbEntity
  8
LINING1
 62
     1
100
AcDbVertex
100
AcDb2dVertex
 10
-30.29877350683356
 20
204.9521384640109
 30
0.0
  0
VERTEX
  5
1A0
330
19B
100
AcDbEntity
  8
LINING1
 62
     1
100
AcDbVertex
100
AcDb2dVertex
 10
-30.29877350683356
 20
204.4536328184338
 30
0.0
  0
SEQEND
  5
1A1
330
19B
100
AcDbEntity
  8
LINING1
  0
POLYLINE
  5
1A2
330
40
100
AcDbEntity
  8
LINING1
 62
     1
100
AcDb2dPolyline
 66
     1
 10
0.0
 20
0.0
 30
0.0
  0
VERTEX
  5
1A3
330
1A2
100
AcDbEntity
  8
LINING1
 62
     1
100
AcDbVertex
100
AcDb2dVertex
 10
-30.29877350683356
 20
207.6935750049089
 30
0.0
  0
VERTEX
  5
1A4
330
1A2
100
AcDbEntity
  8
LINING1
 62
     1
100
AcDbVertex
100
AcDb2dVertex
 10
-30.7986571915138
 20
207.6935750049089
 30
0.0
  0
VERTEX
  5
1A5
330
1A2
100
AcDbEntity
  8
LINING1
 62
     1
100
AcDbVertex
100
AcDb2dVertex
 10
-30.7986571915138
 20
208.192080650486
 30
0.0
  0
VERTEX
  5
1A6
330
1A2
100
AcDbEntity
  8
LINING1
 62
     1
100
AcDbVertex
100
AcDb2dVertex
 10
-30.29877350683356
 20
208.192080650486
 30
0.0
  0
VERTEX
  5
1A7
330
1A2
100
AcDbEntity
  8
LINING1
 62
     1
100
AcDbVertex
100
AcDb2dVertex
 10
-30.29877350683356
 20
207.6935750049089
 30
0.0
  0
SEQEND
  5
1A8
330
1A2
100
AcDbEntity
  8
LINING1
  0
POLYLINE
  5
1A9
330
40
100
AcDbEntity
  8
LINING1
 62
     1
100
AcDb2dPolyline
 66
     1
 10
0.0
 20
0.0
 30
0.0
  0
VERTEX
  5
1AA
330
1A9
100
AcDbEntity
  8
LINING1
 62
     1
100
AcDbVertex
100
AcDb2dVertex
 10
-30.29877350683356
 20
210.933517191384
 30
0.0
  0
VERTEX
  5
1AB
330
1A9
100
AcDbEntity
  8
LINING1
 62
     1
100
AcDbVertex
100
AcDb2dVertex
 10
-30.7986571915138
 20
210.933517191384
 30
0.0
  0
VERTEX
  5
1AC
330
1A9
100
AcDbEntity
  8
LINING1
 62
     1
100
AcDbVertex
100
AcDb2dVertex
 10
-30.7986571915138
 20
211.432022836961
 30
0.0
  0
VERTEX
  5
1AD
330
1A9
100
AcDbEntity
  8
LINING1
 62
     1
100
AcDbVertex
100
AcDb2dVertex
 10
-30.29877350683356
 20
211.432022836961
 30
0.0
  0
VERTEX
  5
1AE
330
1A9
100
AcDbEntity
  8
LINING1
 62
     1
100
AcDbVertex
100
AcDb2dVertex
 10
-30.29877350683356
 20
210.933517191384
 30
0.0
  0
SEQEND
  5
1AF
330
1A9
100
AcDbEntity
  8
LINING1
  0
POLYLINE
  5
1B0
330
40
100
AcDbEntity
  8
LINING1
 62
     1
100
AcDb2dPolyline
 66
     1
 10
0.0
 20
0.0
 30
0.0
  0
VERTEX
  5
1B1
330
1B0
100
AcDbEntity
  8
LINING1
 62
     1
100
AcDbVertex
100
AcDb2dVertex
 10
-30.29877350683356
 20
214.1734593778591
 30
0.0
  0
VERTEX
  5
1B2
330
1B0
100
AcDbEntity
  8
LINING1
 62
     1
100
AcDbVertex
100
AcDb2dVertex
 10
-30.7986571915138
 20
214.1734593778591
 30
0.0
  0
VERTEX
  5
1B3
330
1B0
100
AcDbEntity
  8
LINING1
 62
     1
100
AcDbVertex
100
AcDb2dVertex
 10
-30.7986571915138
 20
214.6719650234361
 30
0.0
  0
VERTEX
  5
1B4
330
1B0
100
AcDbEntity
  8
LINING1
 62
     1
100
AcDbVertex
100
AcDb2dVertex
 10
-30.29877350683356
 20
214.6719650234361
 30
0.0
  0
VERTEX
  5
1B5
330
1B0
100
AcDbEntity
  8
LINING1
 62
     1
100
AcDbVertex
100
AcDb2dVertex
 10
-30.29877350683356
 20
214.1734593778591
 30
0.0
  0
SEQEND
  5
1B6
330
1B0
100
AcDbEntity
  8
LINING1
  0
POLYLINE
  5
1B7
330
40
100
AcDbEntity
  8
LINING1
 62
     1
100
AcDb2dPolyline
 66
     1
 10
0.0
 20
0.0
 30
0.0
  0
VERTEX
  5
1B8
330
1B7
100
AcDbEntity
  8
LINING1
 62
     1
100
AcDbVertex
100
AcDb2dVertex
 10
-30.29877350683356
 20
217.4134015643341
 30
0.0
  0
VERTEX
  5
1B9
330
1B7
100
AcDbEntity
  8
LINING1
 62
     1
100
AcDbVertex
100
AcDb2dVertex
 10
-30.7986571915138
 20
217.4134015643341
 30
0.0
  0
VERTEX
  5
1BA
330
1B7
100
AcDbEntity
  8
LINING1
 62
     1
100
AcDbVertex
100
AcDb2dVertex
 10
-30.7986571915138
 20
217.9119072099112
 30
0.0
  0
VERTEX
  5
1BB
330
1B7
100
AcDbEntity
  8
LINING1
 62
     1
100
AcDbVertex
100
AcDb2dVertex
 10
-30.29877350683356
 20
217.9119072099112
 30
0.0
  0
VERTEX
  5
1BC
330
1B7
100
AcDbEntity
  8
LINING1
 62
     1
100
AcDbVertex
100
AcDb2dVertex
 10
-30.29877350683356
 20
217.4134015643341
 30
0.0
  0
SEQEND
  5
1BD
330
1B7
100
AcDbEntity
  8
LINING1
  0
POLYLINE
  5
1BE
330
40
100
AcDbEntity
  8
LINING1
 62
     1
100
AcDb2dPolyline
 66
     1
 10
0.0
 20
0.0
 30
0.0
  0
VERTEX
  5
1BF
330
1BE
100
AcDbEntity
  8
LINING1
 62
     1
100
AcDbVertex
100
AcDb2dVertex
 10
-30.29877350683356
 20
220.6533437508092
 30
0.0
  0
VERTEX
  5
1C0
330
1BE
100
AcDbEntity
  8
LINING1
 62
     1
100
AcDbVertex
100
AcDb2dVertex
 10
-30.7986571915138
 20
220.6533437508092
 30
0.0
  0
VERTEX
  5
1C1
330
1BE
100
AcDbEntity
  8
LINING1
 62
     1
100
AcDbVertex
100
AcDb2dVertex
 10
-30.7986571915138
 20
221.1518493963863
 30
0.0
  0
VERTEX
  5
1C2
330
1BE
100
AcDbEntity
  8
LINING1
 62
     1
100
AcDbVertex
100
AcDb2dVertex
 10
-30.29877350683356
 20
221.1518493963863
 30
0.0
  0
VERTEX
  5
1C3
330
1BE
100
AcDbEntity
  8
LINING1
 62
     1
100
AcDbVertex
100
AcDb2dVertex
 10
-30.29877350683356
 20
220.6533437508092
 30
0.0
  0
SEQEND
  5
1C4
330
1BE
100
AcDbEntity
  8
LINING1
  0
POLYLINE
  5
1C5
330
40
100
AcDbEntity
  8
LINING1
 62
     1
100
AcDb2dPolyline
 66
     1
 10
0.0
 20
0.0
 30
0.0
  0
VERTEX
  5
1C6
330
1C5
100
AcDbEntity
  8
LINING1
 62
     1
100
AcDbVertex
100
AcDb2dVertex
 10
-30.29877350683356
 20
223.8932859372843
 30
0.0
  0
VERTEX
  5
1C7
330
1C5
100
AcDbEntity
  8
LINING1
 62
     1
100
AcDbVertex
100
AcDb2dVertex
 10
-30.7986571915138
 20
223.8932859372843
 30
0.0
  0
VERTEX
  5
1C8
330
1C5
100
AcDbEntity
  8
LINING1
 62
     1
100
AcDbVertex
100
AcDb2dVertex
 10
-30.7986571915138
 20
224.3917915828613
 30
0.0
  0
VERTEX
  5
1C9
330
1C5
100
AcDbEntity
  8
LINING1
 62
     1
100
AcDbVertex
100
AcDb2dVertex
 10
-30.29877350683356
 20
224.3917915828613
 30
0.0
  0
VERTEX
  5
1CA
330
1C5
100
AcDbEntity
  8
LINING1
 62
     1
100
AcDbVertex
100
AcDb2dVertex
 10
-30.29877350683356
 20
223.8932859372843
 30
0.0
  0
SEQEND
  5
1CB
330
1C5
100
AcDbEntity
  8
LINING1
  0
POLYLINE
  5
1CC
330
40
100
AcDbEntity
  8
LINING1
 62
     1
100
AcDb2dPolyline
 66
     1
 10
0.0
 20
0.0
 30
0.0
  0
VERTEX
  5
1CD
330
1CC
100
AcDbEntity
  8
LINING1
 62
     1
100
AcDbVertex
100
AcDb2dVertex
 10
-30.29877350683356
 20
227.1332281237594
 30
0.0
  0
VERTEX
  5
1CE
330
1CC
100
AcDbEntity
  8
LINING1
 62
     1
100
AcDbVertex
100
AcDb2dVertex
 10
-30.7986571915138
 20
227.1332281237594
 30
0.0
  0
VERTEX
  5
1CF
330
1CC
100
AcDbEntity
  8
LINING1
 62
     1
100
AcDbVertex
100
AcDb2dVertex
 10
-30.7986571915138
 20
227.6317337693364
 30
0.0
  0
VERTEX
  5
1D0
330
1CC
100
AcDbEntity
  8
LINING1
 62
     1
100
AcDbVertex
100
AcDb2dVertex
 10
-30.29877350683356
 20
227.6317337693364
 30
0.0
  0
VERTEX
  5
1D1
330
1CC
100
AcDbEntity
  8
LINING1
 62
     1
100
AcDbVertex
100
AcDb2dVertex
 10
-30.29877350683356
 20
227.1332281237594
 30
0.0
  0
SEQEND
  5
1D2
330
1CC
100
AcDbEntity
  8
LINING1
  0
POLYLINE
  5
1D3
330
40
100
AcDbEntity
  8
LINING1
 62
     1
100
AcDb2dPolyline
 66
     1
 10
0.0
 20
0.0
 30
0.0
  0
VERTEX
  5
1D4
330
1D3
100
AcDbEntity
  8
LINING1
 62
     1
100
AcDbVertex
100
AcDb2dVertex
 10
-30.29877350683356
 20
230.3731703102344
 30
0.0
  0
VERTEX
  5
1D5
330
1D3
100
AcDbEntity
  8
LINING1
 62
     1
100
AcDbVertex
100
AcDb2dVertex
 10
-30.7986571915138
 20
230.3731703102344
 30
0.0
  0
VERTEX
  5
1D6
330
1D3
100
AcDbEntity
  8
LINING1
 62
     1
100
AcDbVertex
100
AcDb2dVertex
 10
-30.7986571915138
 20
230.8716759558115
 30
0.0
  0
VERTEX
  5
1D7
330
1D3
100
AcDbEntity
  8
LINING1
 62
     1
100
AcDbVertex
100
AcDb2dVertex
 10
-30.29877350683356
 20
230.8716759558115
 30
0.0
  0
VERTEX
  5
1D8
330
1D3
100
AcDbEntity
  8
LINING1
 62
     1
100
AcDbVertex
100
AcDb2dVertex
 10
-30.29877350683356
 20
230.3731703102344
 30
0.0
  0
SEQEND
  5
1D9
330
1D3
100
AcDbEntity
  8
LINING1
  0
POLYLINE
  5
1DA
330
40
100
AcDbEntity
  8
LINING1
 62
     1
100
AcDb2dPolyline
 66
     1
 10
0.0
 20
0.0
 30
0.0
  0
VERTEX
  5
1DB
330
1DA
100
AcDbEntity
  8
LINING1
 62
     1
100
AcDbVertex
100
AcDb2dVertex
 10
-30.29877350683356
 20
233.6131124967095
 30
0.0
  0
VERTEX
  5
1DC
330
1DA
100
AcDbEntity
  8
LINING1
 62
     1
100
AcDbVertex
100
AcDb2dVertex
 10
-30.7986571915138
 20
233.6131124967095
 30
0.0
  0
VERTEX
  5
1DD
330
1DA
100
AcDbEntity
  8
LINING1
 62
     1
100
AcDbVertex
100
AcDb2dVertex
 10
-30.7986571915138
 20
234.1116181422865
 30
0.0
  0
VERTEX
  5
1DE
330
1DA
100
AcDbEntity
  8
LINING1
 62
     1
100
AcDbVertex
100
AcDb2dVertex
 10
-30.29877350683356
 20
234.1116181422865
 30
0.0
  0
VERTEX
  5
1DF
330
1DA
100
AcDbEntity
  8
LINING1
 62
     1
100
AcDbVertex
100
AcDb2dVertex
 10
-30.29877350683356
 20
233.6131124967095
 30
0.0
  0
SEQEND
  5
1E0
330
1DA
100
AcDbEntity
  8
LINING1
  0
POLYLINE
  5
1E1
330
40
100
AcDbEntity
  8
LINING1
 62
     1
100
AcDb2dPolyline
 66
     1
 10
0.0
 20
0.0
 30
0.0
  0
VERTEX
  5
1E2
330
1E1
100
AcDbEntity
  8
LINING1
 62
     1
100
AcDbVertex
100
AcDb2dVertex
 10
-30.29877350683356
 20
236.8530546831846
 30
0.0
  0
VERTEX
  5
1E3
330
1E1
100
AcDbEntity
  8
LINING1
 62
     1
100
AcDbVertex
100
AcDb2dVertex
 10
-30.7986571915138
 20
236.8530546831846
 30
0.0
  0
VERTEX
  5
1E4
330
1E1
100
AcDbEntity
  8
LINING1
 62
     1
100
AcDbVertex
100
AcDb2dVertex
 10
-30.7986571915138
 20
237.3515603287616
 30
0.0
  0
VERTEX
  5
1E5
330
1E1
100
AcDbEntity
  8
LINING1
 62
     1
100
AcDbVertex
100
AcDb2dVertex
 10
-30.29877350683356
 20
237.3515603287616
 30
0.0
  0
VERTEX
  5
1E6
330
1E1
100
AcDbEntity
  8
LINING1
 62
     1
100
AcDbVertex
100
AcDb2dVertex
 10
-30.29877350683356
 20
236.8530546831846
 30
0.0
  0
SEQEND
  5
1E7
330
1E1
100
AcDbEntity
  8
LINING1
  0
POLYLINE
  5
1E8
330
40
100
AcDbEntity
  8
LINING1
 62
     1
100
AcDb2dPolyline
 66
     1
 10
0.0
 20
0.0
 30
0.0
  0
VERTEX
  5
1E9
330
1E8
100
AcDbEntity
  8
LINING1
 62
     1
100
AcDbVertex
100
AcDb2dVertex
 10
-30.29877350683356
 20
159.3430060110198
 30
0.0
  0
VERTEX
  5
1EA
330
1E8
100
AcDbEntity
  8
LINING1
 62
     1
100
AcDbVertex
100
AcDb2dVertex
 10
-30.7986571915138
 20
159.3430060110198
 30
0.0
  0
VERTEX
  5
1EB
330
1E8
100
AcDbEntity
  8
LINING1
 62
     1
100
AcDbVertex
100
AcDb2dVertex
 10
-30.7986571915138
 20
159.5929478533599
 30
0.0
  0
VERTEX
  5
1EC
330
1E8
100
AcDbEntity
  8
LINING1
 62
     1
100
AcDbVertex
100
AcDb2dVertex
 10
-30.29877350683356
 20
159.5929478533599
 30
0.0
  0
VERTEX
  5
1ED
330
1E8
100
AcDbEntity
  8
LINING1
 62
     1
100
AcDbVertex
100
AcDb2dVertex
 10
-30.29877350683356
 20
159.3430060110198
 30
0.0
  0
SEQEND
  5
1EE
330
1E8
100
AcDbEntity
  8
LINING1
  0
POLYLINE
  5
1EF
330
40
100
AcDbEntity
  8
LINING1
 62
     1
100
AcDb2dPolyline
 66
     1
 10
0.0
 20
0.0
 30
0.0
  0
VERTEX
  5
1F0
330
1EF
100
AcDbEntity
  8
LINING1
 62
     1
100
AcDbVertex
100
AcDb2dVertex
 10
-30.29877350683356
 20
96.253619789019
 30
0.0
  0
VERTEX
  5
1F1
330
1EF
100
AcDbEntity
  8
LINING1
 62
     1
100
AcDbVertex
100
AcDb2dVertex
 10
-30.7986571915138
 20
96.253619789019
 30
0.0
  0
VERTEX
  5
1F2
330
1EF
100
AcDbEntity
  8
LINING1
 62
     1
100
AcDbVertex
100
AcDb2dVertex
 10
-30.7986571915138
 20
96.75212543459605
 30
0.0
  0
VERTEX
  5
1F3
330
1EF
100
AcDbEntity
  8
LINING1
 62
     1
100
AcDbVertex
100
AcDb2dVertex
 10
-30.29877350683356
 20
96.75212543459605
 30
0.0
  0
VERTEX
  5
1F4
330
1EF
100
AcDbEntity
  8
LINING1
 62
     1
100
AcDbVertex
100
AcDb2dVertex
 10
-30.29877350683356
 20
96.253619789019
 30
0.0
  0
SEQEND
  5
1F5
330
1EF
100
AcDbEntity
  8
LINING1
  0
POLYLINE
  5
1F6
330
40
100
AcDbEntity
  8
LINING1
 62
     1
100
AcDb2dPolyline
 66
     1
 10
0.0
 20
0.0
 30
0.0
  0
VERTEX
  5
1F7
330
1F6
100
AcDbEntity
  8
LINING1
 62
     1
100
AcDbVertex
100
AcDb2dVertex
 10
-30.29877350683356
 20
99.49373423038197
 30
0.0
  0
VERTEX
  5
1F8
330
1F6
100
AcDbEntity
  8
LINING1
 62
     1
100
AcDbVertex
100
AcDb2dVertex
 10
-30.7986571915138
 20
99.49373423038197
 30
0.0
  0
VERTEX
  5
1F9
330
1F6
100
AcDbEntity
  8
LINING1
 62
     1
100
AcDbVertex
100
AcDb2dVertex
 10
-30.7986571915138
 20
99.99223987595903
 30
0.0
  0
VERTEX
  5
1FA
330
1F6
100
AcDbEntity
  8
LINING1
 62
     1
100
AcDbVertex
100
AcDb2dVertex
 10
-30.29877350683356
 20
99.99223987595903
 30
0.0
  0
VERTEX
  5
1FB
330
1F6
100
AcDbEntity
  8
LINING1
 62
     1
100
AcDbVertex
100
AcDb2dVertex
 10
-30.29877350683356
 20
99.49373423038197
 30
0.0
  0
SEQEND
  5
1FC
330
1F6
100
AcDbEntity
  8
LINING1
  0
POLYLINE
  5
1FD
330
40
100
AcDbEntity
  8
LINING1
 62
     1
100
AcDb2dPolyline
 66
     1
 10
0.0
 20
0.0
 30
0.0
  0
VERTEX
  5
1FE
330
1FD
100
AcDbEntity
  8
LINING1
 62
     1
100
AcDbVertex
100
AcDb2dVertex
 10
-30.29877350683356
 20
102.7335041619691
 30
0.0
  0
VERTEX
  5
1FF
330
1FD
100
AcDbEntity
  8
LINING1
 62
     1
100
AcDbVertex
100
AcDb2dVertex
 10
-30.7986571915138
 20
102.7335041619691
 30
0.0
  0
VERTEX
  5
200
330
1FD
100
AcDbEntity
  8
LINING1
 62
     1
100
AcDbVertex
100
AcDb2dVertex
 10
-30.7986571915138
 20
103.2320098075462
 30
0.0
  0
VERTEX
  5
201
330
1FD
100
AcDbEntity
  8
LINING1
 62
     1
100
AcDbVertex
100
AcDb2dVertex
 10
-30.29877350683356
 20
103.2320098075462
 30
0.0
  0
VERTEX
  5
202
330
1FD
100
AcDbEntity
  8
LINING1
 62
     1
100
AcDbVertex
100
AcDb2dVertex
 10
-30.29877350683356
 20
102.7335041619691
 30
0.0
  0
SEQEND
  5
203
330
1FD
100
AcDbEntity
  8
LINING1
  0
POLYLINE
  5
204
330
40
100
AcDbEntity
  8
LINING1
 62
     1
100
AcDb2dPolyline
 66
     1
 10
0.0
 20
0.0
 30
0.0
  0
VERTEX
  5
205
330
204
100
AcDbEntity
  8
LINING1
 62
     1
100
AcDbVertex
100
AcDb2dVertex
 10
-30.29877350683356
 20
105.9736186033321
 30
0.0
  0
VERTEX
  5
206
330
204
100
AcDbEntity
  8
LINING1
 62
     1
100
AcDbVertex
100
AcDb2dVertex
 10
-30.7986571915138
 20
105.9736186033321
 30
0.0
  0
VERTEX
  5
207
330
204
100
AcDbEntity
  8
LINING1
 62
     1
100
AcDbVertex
100
AcDb2dVertex
 10
-30.7986571915138
 20
106.4721242489092
 30
0.0
  0
VERTEX
  5
208
330
204
100
AcDbEntity
  8
LINING1
 62
     1
100
AcDbVertex
100
AcDb2dVertex
 10
-30.29877350683356
 20
106.4721242489092
 30
0.0
  0
VERTEX
  5
209
330
204
100
AcDbEntity
  8
LINING1
 62
     1
100
AcDbVertex
100
AcDb2dVertex
 10
-30.29877350683356
 20
105.9736186033321
 30
0.0
  0
SEQEND
  5
20A
330
204
100
AcDbEntity
  8
LINING1
  0
POLYLINE
  5
20B
330
40
100
AcDbEntity
  8
LINING1
 62
     1
100
AcDb2dPolyline
 66
     1
 10
0.0
 20
0.0
 30
0.0
  0
VERTEX
  5
20C
330
20B
100
AcDbEntity
  8
LINING1
 62
     1
100
AcDbVertex
100
AcDb2dVertex
 10
62.20124001999829
 20
105.9736186033321
 30
0.0
  0
VERTEX
  5
20D
330
20B
100
AcDbEntity
  8
LINING1
 62
     1
100
AcDbVertex
100
AcDb2dVertex
 10
61.70135633531805
 20
105.9736186033321
 30
0.0
  0
VERTEX
  5
20E
330
20B
100
AcDbEntity
  8
LINING1
 62
     1
100
AcDbVertex
100
AcDb2dVertex
 10
61.70135633531805
 20
106.4721242489092
 30
0.0
  0
VERTEX
  5
20F
330
20B
100
AcDbEntity
  8
LINING1
 62
     1
100
AcDbVertex
100
AcDb2dVertex
 10
62.20124001999829
 20
106.4721242489092
 30
0.0
  0
VERTEX
  5
210
330
20B
100
AcDbEntity
  8
LINING1
 62
     1
100
AcDbVertex
100
AcDb2dVertex
 10
62.20124001999829
 20
105.9736186033321
 30
0.0
  0
SEQEND
  5
211
330
20B
100
AcDbEntity
  8
LINING1
  0
POLYLINE
  5
212
330
40
100
AcDbEntity
  8
LINING1
 62
     1
100
AcDb2dPolyline
 66
     1
 10
0.0
 20
0.0
 30
0.0
  0
VERTEX
  5
213
330
212
100
AcDbEntity
  8
LINING1
 62
     1
100
AcDbVertex
100
AcDb2dVertex
 10
62.20124001999829
 20
109.2133885349193
 30
0.0
  0
VERTEX
  5
214
330
212
100
AcDbEntity
  8
LINING1
 62
     1
100
AcDbVertex
100
AcDb2dVertex
 10
61.70135633531805
 20
109.2133885349193
 30
0.0
  0
VERTEX
  5
215
330
212
100
AcDbEntity
  8
LINING1
 62
     1
100
AcDbVertex
100
AcDb2dVertex
 10
61.70135633531805
 20
109.7118941804963
 30
0.0
  0
VERTEX
  5
216
330
212
100
AcDbEntity
  8
LINING1
 62
     1
100
AcDbVertex
100
AcDb2dVertex
 10
62.20124001999829
 20
109.7118941804963
 30
0.0
  0
VERTEX
  5
217
330
212
100
AcDbEntity
  8
LINING1
 62
     1
100
AcDbVertex
100
AcDb2dVertex
 10
62.20124001999829
 20
109.2133885349193
 30
0.0
  0
SEQEND
  5
218
330
212
100
AcDbEntity
  8
LINING1
  0
POLYLINE
  5
219
330
40
100
AcDbEntity
  8
LINING1
 62
     1
100
AcDb2dPolyline
 66
     1
 10
0.0
 20
0.0
 30
0.0
  0
VERTEX
  5
21A
330
219
100
AcDbEntity
  8
LINING1
 62
     1
100
AcDbVertex
100
AcDb2dVertex
 10
62.20124001999829
 20
112.4535029762823
 30
0.0
  0
VERTEX
  5
21B
330
219
100
AcDbEntity
  8
LINING1
 62
     1
100
AcDbVertex
100
AcDb2dVertex
 10
61.70135633531805
 20
112.4535029762823
 30
0.0
  0
VERTEX
  5
21C
330
219
100
AcDbEntity
  8
LINING1
 62
     1
100
AcDbVertex
100
AcDb2dVertex
 10
61.70135633531805
 20
112.9520086218593
 30
0.0
  0
VERTEX
  5
21D
330
219
100
AcDbEntity
  8
LINING1
 62
     1
100
AcDbVertex
100
AcDb2dVertex
 10
62.20124001999829
 20
112.9520086218593
 30
0.0
  0
VERTEX
  5
21E
330
219
100
AcDbEntity
  8
LINING1
 62
     1
100
AcDbVertex
100
AcDb2dVertex
 10
62.20124001999829
 20
112.4535029762823
 30
0.0
  0
SEQEND
  5
21F
330
219
100
AcDbEntity
  8
LINING1
  0
POLYLINE
  5
220
330
40
100
AcDbEntity
  8
LINING1
 62
     1
100
AcDb2dPolyline
 66
     1
 10
0.0
 20
0.0
 30
0.0
  0
VERTEX
  5
221
330
220
100
AcDbEntity
  8
LINING1
 62
     1
100
AcDbVertex
100
AcDb2dVertex
 10
62.20124001999829
 20
115.6936174176452
 30
0.0
  0
VERTEX
  5
222
330
220
100
AcDbEntity
  8
LINING1
 62
     1
100
AcDbVertex
100
AcDb2dVertex
 10
61.70135633531805
 20
115.6936174176452
 30
0.0
  0
VERTEX
  5
223
330
220
100
AcDbEntity
  8
LINING1
 62
     1
100
AcDbVertex
100
AcDb2dVertex
 10
61.70135633531805
 20
116.1917785534465
 30
0.0
  0
VERTEX
  5
224
330
220
100
AcDbEntity
  8
LINING1
 62
     1
100
AcDbVertex
100
AcDb2dVertex
 10
62.20124001999829
 20
116.1917785534465
 30
0.0
  0
VERTEX
  5
225
330
220
100
AcDbEntity
  8
LINING1
 62
     1
100
AcDbVertex
100
AcDb2dVertex
 10
62.20124001999829
 20
115.6936174176452
 30
0.0
  0
SEQEND
  5
226
330
220
100
AcDbEntity
  8
LINING1
  0
POLYLINE
  5
227
330
40
100
AcDbEntity
  8
LINING1
 62
     1
100
AcDb2dPolyline
 66
     1
 10
0.0
 20
0.0
 30
0.0
  0
VERTEX
  5
228
330
227
100
AcDbEntity
  8
LINING1
 62
     1
100
AcDbVertex
100
AcDb2dVertex
 10
62.20124001999829
 20
118.9333873492324
 30
0.0
  0
VERTEX
  5
229
330
227
100
AcDbEntity
  8
LINING1
 62
     1
100
AcDbVertex
100
AcDb2dVertex
 10
61.70135633531805
 20
118.9333873492324
 30
0.0
  0
VERTEX
  5
22A
330
227
100
AcDbEntity
  8
LINING1
 62
     1
100
AcDbVertex
100
AcDb2dVertex
 10
61.70135633531805
 20
119.4318929948094
 30
0.0
  0
VERTEX
  5
22B
330
227
100
AcDbEntity
  8
LINING1
 62
     1
100
AcDbVertex
100
AcDb2dVertex
 10
62.20124001999829
 20
119.4318929948094
 30
0.0
  0
VERTEX
  5
22C
330
227
100
AcDbEntity
  8
LINING1
 62
     1
100
AcDbVertex
100
AcDb2dVertex
 10
62.20124001999829
 20
118.9333873492324
 30
0.0
  0
SEQEND
  5
22D
330
227
100
AcDbEntity
  8
LINING1
  0
ENDBLK
  5
43
330
40
100
AcDbEntity
  8
0
100
AcDbBlockEnd
  0
ENDSEC
  0
SECTION
  2
ENTITIES
  0
INSERT
  5
41
330
1F
100
AcDbEntity
  8
LINING1
100
AcDbBlockReference
  2
BLOCK_2
 10
0.0
 20
0.0
 30
0.0
  0
POLYLINE
  5
22E
330
1F
100
AcDbEntity
  8
LINING1
 62
     1
100
AcDb2dPolyline
 66
     1
 10
0.0
 20
0.0
 30
0.0
  0
VERTEX
  5
22F
330
22E
100
AcDbEntity
  8
LINING1
 62
     1
100
AcDbVertex
100
AcDb2dVertex
 10
186.3201885145146
 20
243.3431020945207
 30
0.0
  0
VERTEX
  5
230
330
22E
100
AcDbEntity
  8
LINING1
 62
     1
100
AcDbVertex
100
AcDb2dVertex
 10
186.3201885145146
 20
160.2642251514988
 30
0.0
  0
VERTEX
  5
231
330
22E
100
AcDbEntity
  8
LINING1
 62
     1
100
AcDbVertex
100
AcDb2dVertex
 10
186.0556050067032
 20
160.2642251514988
 30
0.0
  0
VERTEX
  5
232
330
22E
100
AcDbEntity
  8
LINING1
 62
     1
100
AcDbVertex
100
AcDb2dVertex
 10
185.2618544832688
 20
160.2642251514988
 30
0.0
  0
VERTEX
  5
233
330
22E
100
AcDbEntity
  8
LINING1
 62
     1
100
AcDbVertex
100
AcDb2dVertex
 10
184.4681039598344
 20
159.9996416436873
 30
0.0
  0
VERTEX
  5
234
330
22E
100
AcDbEntity
  8
LINING1
 62
     1
100
AcDbVertex
100
AcDb2dVertex
 10
183.9389369442115
 20
159.4704746280644
 30
0.0
  0
VERTEX
  5
235
330
22E
100
AcDbEntity
  8
LINING1
 62
     1
100
AcDbVertex
100
AcDb2dVertex
 10
183.4097699285886
 20
158.9413076124415
 30
0.0
  0
VERTEX
  5
236
330
22E
100
AcDbEntity
  8
LINING1
 62
     1
100
AcDbVertex
100
AcDb2dVertex
 10
182.8806029129657
 20
158.1475570890071
 30
0.0
  0
VERTEX
  5
237
330
22E
100
AcDbEntity
  8
LINING1
 62
     1
100
AcDbVertex
100
AcDb2dVertex
 10
182.6160194051542
 20
157.6183900733842
 30
0.0
  0
VERTEX
  5
238
330
22E
100
AcDbEntity
  8
LINING1
 62
     1
100
AcDbVertex
100
AcDb2dVertex
 10
182.3514358973428
 20
156.8246395499498
 30
0.0
  0
VERTEX
  5
239
330
22E
100
AcDbEntity
  8
LINING1
 62
     1
100
AcDbVertex
100
AcDb2dVertex
 10
182.3514358973428
 20
156.2954725343269
 30
0.0
  0
VERTEX
  5
23A
330
22E
100
AcDbEntity
  8
LINING1
 62
     1
100
AcDbVertex
100
AcDb2dVertex
 10
161.713922288049
 20
156.2954725343269
 30
0.0
  0
VERTEX
  5
23B
330
22E
100
AcDbEntity
  8
LINING1
 62
     1
100
AcDbVertex
100
AcDb2dVertex
 10
181.2931018660969
 20
105.495439034527
 30
0.0
  0
VERTEX
  5
23C
330
22E
100
AcDbEntity
  8
LINING1
 62
     1
100
AcDbVertex
100
AcDb2dVertex
 10
186.3201885145146
 20
105.495439034527
 30
0.0
  0
VERTEX
  5
23D
330
22E
100
AcDbEntity
  8
LINING1
 62
     1
100
AcDbVertex
100
AcDb2dVertex
 10
186.3201885145146
 20
97.29335029237184
 30
0.0
  0
VERTEX
  5
23E
330
22E
100
AcDbEntity
  8
LINING1
 62
     1
100
AcDbVertex
100
AcDb2dVertex
 10
181.8222688817198
 20
97.29335029237184
 30
0.0
  0
VERTEX
  5
23F
330
22E
100
AcDbEntity
  8
LINING1
 62
     1
100
AcDbVertex
100
AcDb2dVertex
 10
173.8847636473761
 20
97.55793380018329
 30
0.0
  0
VERTEX
  5
240
330
22E
100
AcDbEntity
  8
LINING1
 62
     1
100
AcDbVertex
100
AcDb2dVertex
 10
166.4764254286553
 20
98.08710081580621
 30
0.0
  0
VERTEX
  5
241
330
22E
100
AcDbEntity
  8
LINING1
 62
     1
100
AcDbVertex
100
AcDb2dVertex
 10
160.1264212411803
 20
98.61626783142913
 30
0.0
  0
VERTEX
  5
242
330
22E
100
AcDbEntity
  8
LINING1
 62
     1
100
AcDbVertex
100
AcDb2dVertex
 10
154.3055840693282
 20
99.4100183548635
 30
0.0
  0
VERTEX
  5
243
330
22E
100
AcDbEntity
  8
LINING1
 62
     1
100
AcDbVertex
100
AcDb2dVertex
 10
149.0139139130991
 20
100.2037688782979
 30
0.0
  0
VERTEX
  5
244
330
22E
100
AcDbEntity
  8
LINING1
 62
     1
100
AcDbVertex
100
AcDb2dVertex
 10
141.8701592021897
 20
101.7912699251666
 30
0.0
  0
VERTEX
  5
245
330
22E
100
AcDbEntity
  8
LINING1
 62
     1
100
AcDbVertex
100
AcDb2dVertex
 10
132.6097364287887
 20
103.6433544798468
 30
0.0
  0
VERTEX
  5
246
330
22E
100
AcDbEntity
  8
LINING1
 62
     1
100
AcDbVertex
100
AcDb2dVertex
 10
125.2013982100679
 20
105.2308555267156
 30
0.0
  0
VERTEX
  5
247
330
22E
100
AcDbEntity
  8
LINING1
 62
     1
100
AcDbVertex
100
AcDb2dVertex
 10
120.1743115616502
 20
106.0246060501499
 30
0.0
  0
VERTEX
  5
248
330
22E
100
AcDbEntity
  8
LINING1
 62
     1
100
AcDbVertex
100
AcDb2dVertex
 10
114.3534743897981
 20
106.8183565735843
 30
0.0
  0
VERTEX
  5
249
330
22E
100
AcDbEntity
  8
LINING1
 62
     1
100
AcDbVertex
100
AcDb2dVertex
 10
108.0034702023231
 20
107.3475235892072
 30
0.0
  0
VERTEX
  5
24A
330
22E
100
AcDbEntity
  8
LINING1
 62
     1
100
AcDbVertex
100
AcDb2dVertex
 10
100.5951319836023
 20
107.8766906048301
 30
0.0
  0
VERTEX
  5
24B
330
22E
100
AcDbEntity
  8
LINING1
 62
     1
100
AcDbVertex
100
AcDb2dVertex
 10
92.6576267492586
 20
108.1412741126416
 30
0.0
  0
VERTEX
  5
24C
330
22E
100
AcDbEntity
  8
LINING1
 62
     1
100
AcDbVertex
100
AcDb2dVertex
 10
87.89512360865236
 20
108.1412741126416
 30
0.0
  0
VERTEX
  5
24D
330
22E
100
AcDbEntity
  8
LINING1
 62
     1
100
AcDbVertex
100
AcDb2dVertex
 10
87.89512360865236
 20
116.3433628547968
 30
0.0
  0
VERTEX
  5
24E
330
22E
100
AcDbEntity
  8
LINING1
 62
     1
100
AcDbVertex
100
AcDb2dVertex
 10
92.39304324144713
 20
116.3433628547968
 30
0.0
  0
VERTEX
  5
24F
330
22E
100
AcDbEntity
  8
LINING1
 62
     1
100
AcDbVertex
100
AcDb2dVertex
 10
112.5013898351179
 20
156.2954725343269
 30
0.0
  0
VERTEX
  5
250
330
22E
100
AcDbEntity
  8
LINING1
 62
     1
100
AcDbVertex
100
AcDb2dVertex
 10
40.27009220258997
 20
156.2954725343269
 30
0.0
  0
VERTEX
  5
251
330
22E
100
AcDbEntity
  8
LINING1
 62
     1
100
AcDbVertex
100
AcDb2dVertex
 10
59.84927178063784
 20
116.0787793469853
 30
0.0
  0
VERTEX
  5
252
330
22E
100
AcDbEntity
  8
LINING1
 62
     1
100
AcDbVertex
100
AcDb2dVertex
 10
64.87635842905554
 20
116.3433628547968
 30
0.0
  0
VERTEX
  5
253
330
22E
100
AcDbEntity
  8
LINING1
 62
     1
100
AcDbVertex
100
AcDb2dVertex
 10
64.87635842905554
 20
108.1412741126416
 30
0.0
  0
VERTEX
  5
254
330
22E
100
AcDbEntity
  8
LINING1
 62
     1
100
AcDbVertex
100
AcDb2dVertex
 10
60.37843879626075
 20
108.1412741126416
 30
0.0
  0
VERTEX
  5
255
330
22E
100
AcDbEntity
  8
LINING1
 62
     1
100
AcDbVertex
100
AcDb2dVertex
 10
52.17635005410557
 20
107.8766906048301
 30
0.0
  0
VERTEX
  5
256
330
22E
100
AcDbEntity
  8
LINING1
 62
     1
100
AcDbVertex
100
AcDb2dVertex
 10
45.03259534319621
 20
107.3475235892072
 30
0.0
  0
VERTEX
  5
257
330
22E
100
AcDbEntity
  8
LINING1
 62
     1
100
AcDbVertex
100
AcDb2dVertex
 10
38.68259115572123
 20
106.8183565735843
 30
0.0
  0
VERTEX
  5
258
330
22E
100
AcDbEntity
  8
LINING1
 62
     1
100
AcDbVertex
100
AcDb2dVertex
 10
32.86175398386916
 20
106.0246060501499
 30
0.0
  0
VERTEX
  5
259
330
22E
100
AcDbEntity
  8
LINING1
 62
     1
100
AcDbVertex
100
AcDb2dVertex
 10
27.57008382764
 20
105.2308555267156
 30
0.0
  0
VERTEX
  5
25A
330
22E
100
AcDbEntity
  8
LINING1
 62
     1
100
AcDbVertex
100
AcDb2dVertex
 10
20.16174560891919
 20
103.6433544798468
 30
0.0
  0
VERTEX
  5
25B
330
22E
100
AcDbEntity
  8
LINING1
 62
     1
100
AcDbVertex
100
AcDb2dVertex
 10
11.16590634332963
 20
101.7912699251666
 30
0.0
  0
VERTEX
  5
25C
330
22E
100
AcDbEntity
  8
LINING1
 62
     1
100
AcDbVertex
100
AcDb2dVertex
 10
3.757568124608814
 20
100.2037688782979
 30
0.0
  0
VERTEX
  5
25D
330
22E
100
AcDbEntity
  8
LINING1
 62
     1
100
AcDbVertex
100
AcDb2dVertex
 10
-1.53410203162034
 20
99.4100183548635
 30
0.0
  0
VERTEX
  5
25E
330
22E
100
AcDbEntity
  8
LINING1
 62
     1
100
AcDbVertex
100
AcDb2dVertex
 10
-7.354939203472409
 20
98.61626783142913
 30
0.0
  0
VERTEX
  5
25F
330
22E
100
AcDbEntity
  8
LINING1
 62
     1
100
AcDbVertex
100
AcDb2dVertex
 10
-13.70494339094739
 20
98.08710081580621
 30
0.0
  0
VERTEX
  5
260
330
22E
100
AcDbEntity
  8
LINING1
 62
     1
100
AcDbVertex
100
AcDb2dVertex
 10
-20.84869810185675
 20
97.55793380018329
 30
0.0
  0
VERTEX
  5
261
330
22E
100
AcDbEntity
  8
LINING1
 62
     1
100
AcDbVertex
100
AcDb2dVertex
 10
-29.05078684401194
 20
97.29335029237184
 30
0.0
  0
VERTEX
  5
262
330
22E
100
AcDbEntity
  8
LINING1
 62
     1
100
AcDbVertex
100
AcDb2dVertex
 10
-33.54870647680672
 20
97.29335029237184
 30
0.0
  0
VERTEX
  5
263
330
22E
100
AcDbEntity
  8
LINING1
 62
     1
100
AcDbVertex
100
AcDb2dVertex
 10
-33.54870647680672
 20
105.495439034527
 30
0.0
  0
VERTEX
  5
264
330
22E
100
AcDbEntity
  8
LINING1
 62
     1
100
AcDbVertex
100
AcDb2dVertex
 10
-29.3153703518234
 20
105.495439034527
 30
0.0
  0
VERTEX
  5
265
330
22E
100
AcDbEntity
  8
LINING1
 62
     1
100
AcDbVertex
100
AcDb2dVertex
 10
-8.942440250341155
 20
156.2954725343269
 30
0.0
  0
VERTEX
  5
266
330
22E
100
AcDbEntity
  8
LINING1
 62
     1
100
AcDbVertex
100
AcDb2dVertex
 10
-29.57995385963485
 20
156.2954725343269
 30
0.0
  0
VERTEX
  5
267
330
22E
100
AcDbEntity
  8
LINING1
 62
     1
100
AcDbVertex
100
AcDb2dVertex
 10
-29.57995385963485
 20
156.8246395499498
 30
0.0
  0
VERTEX
  5
268
330
22E
100
AcDbEntity
  8
LINING1
 62
     1
100
AcDbVertex
100
AcDb2dVertex
 10
-29.84453736744631
 20
157.6183900733842
 30
0.0
  0
VERTEX
  5
269
330
22E
100
AcDbEntity
  8
LINING1
 62
     1
100
AcDbVertex
100
AcDb2dVertex
 10
-30.10912087525777
 20
158.1475570890071
 30
0.0
  0
VERTEX
  5
26A
330
22E
100
AcDbEntity
  8
LINING1
 62
     1
100
AcDbVertex
100
AcDb2dVertex
 10
-30.37370438306923
 20
158.9413076124415
 30
0.0
  0
VERTEX
  5
26B
330
22E
100
AcDbEntity
  8
LINING1
 62
     1
100
AcDbVertex
100
AcDb2dVertex
 10
-30.90287139869214
 20
159.4704746280644
 30
0.0
  0
VERTEX
  5
26C
330
22E
100
AcDbEntity
  8
LINING1
 62
     1
100
AcDbVertex
100
AcDb2dVertex
 10
-31.69662192212651
 20
159.9996416436873
 30
0.0
  0
VERTEX
  5
26D
330
22E
100
AcDbEntity
  8
LINING1
 62
     1
100
AcDbVertex
100
AcDb2dVertex
 10
-32.49037244556089
 20
160.2642251514988
 30
0.0
  0
VERTEX
  5
26E
330
22E
100
AcDbEntity
  8
LINING1
 62
     1
100
AcDbVertex
100
AcDb2dVertex
 10
-33.28412296899526
 20
160.2642251514988
 30
0.0
  0
VERTEX
  5
26F
330
22E
100
AcDbEntity
  8
LINING1
 62
     1
100
AcDbVertex
100
AcDb2dVertex
 10
-33.54870647680672
 20
160.2642251514988
 30
0.0
  0
VERTEX
  5
270
330
22E
100
AcDbEntity
  8
LINING1
 62
     1
100
AcDbVertex
100
AcDb2dVertex
 10
-33.54870647680672
 20
243.3431020945207
 30
0.0
  0
VERTEX
  5
271
330
22E
100
AcDbEntity
  8
LINING1
 62
     1
100
AcDbVertex
100
AcDb2dVertex
 10
-25.34661773465153
 20
243.3431020945207
 30
0.0
  0
VERTEX
  5
272
330
22E
100
AcDbEntity
  8
LINING1
 62
     1
100
AcDbVertex
100
AcDb2dVertex
 10
-22.4361991487255
 20
240.4326835085946
 30
0.0
  0
VERTEX
  5
273
330
22E
100
AcDbEntity
  8
LINING1
 62
     1
100
AcDbVertex
100
AcDb2dVertex
 10
175.4722646942448
 20
240.4326835085946
 30
0.0
  0
VERTEX
  5
274
330
22E
100
AcDbEntity
  8
LINING1
 62
     1
100
AcDbVertex
100
AcDb2dVertex
 10
178.3826832801709
 20
243.3431020945207
 30
0.0
  0
VERTEX
  5
275
330
22E
100
AcDbEntity
  8
LINING1
 62
     1
100
AcDbVertex
100
AcDb2dVertex
 10
186.3201885145146
 20
243.3431020945207
 30
0.0
  0
SEQEND
  5
276
330
22E
100
AcDbEntity
  8
LINING1
  0
ENDSEC
  0
SECTION
  2
OBJECTS
  0
DICTIONARY
  5
C
330
0
100
AcDbDictionary
  3
ACAD_GROUP
350
D
  3
ACAD_LAYOUT
350
1A
  3
ACAD_MLINESTYLE
350
17
  3
ACAD_PLOTSETTINGS
350
19
  3
ACAD_TABLESTYLE
350
278
  3
ACAD_VISUALSTYLE
350
2A
1001
ACAD
1000
TREAT_AS_HARD
1070
     0
  0
DICTIONARY
  5
D
102
{ACAD_REACTORS
330
C
102
}
330
C
100
AcDbDictionary
1001
ACAD
1000
TREAT_AS_HARD
1070
     0
  0
DICTIONARY
  5
1A
102
{ACAD_REACTORS
330
C
102
}
330
C
100
AcDbDictionary
1001
ACAD
1000
TREAT_AS_HARD
1070
     0
  0
DICTIONARY
  5
17
102
{ACAD_REACTORS
330
C
102
}
330
C
100
AcDbDictionary
  3
STANDARD
350
18
1001
ACAD
1000
TREAT_AS_HARD
1070
     0
  0
DICTIONARY
  5
19
102
{ACAD_REACTORS
330
C
102
}
330
C
100
AcDbDictionary
1001
ACAD
1000
TREAT_AS_HARD
1070
     0
  0
DICTIONARY
  5
278
102
{ACAD_REACTORS
330
C
102
}
330
C
100
AcDbDictionary
1001
ACAD
1000
TREAT_AS_HARD
1070
     0
  0
DICTIONARY
  5
2A
102
{ACAD_REACTORS
330
C
102
}
330
C
100
AcDbDictionary
  3
2DWIREFRAME
350
2F
  3
3D_HIDDEN
350
31
  3
3DWIREFRAME
350
30
  3
BASIC
350
32
  3
BRIGHTEN
350
36
  3
COLORCHANGE
350
3A
  3
CONCEPTUAL
350
34
  3
DIM
350
35
  3
FACEPATTERN
350
39
  3
FLAT
350
2B
  3
FLATWITHEDGES
350
2C
  3
GOURAUD
350
2D
  3
GOURAUDWITHEDGES
350
2E
  3
LINEPATTERN
350
38
  3
REALISTIC
350
33
  3
THICKEN
350
37
1001
ACAD
1000
TREAT_AS_HARD
1070
     0
  0
MLINESTYLE
  5
18
102
{ACAD_REACTORS
330
17
102
}
330
17
100
AcDbMlineStyle
  2
Standard
 70
     0
  3

 62
   256
 51
90.0
 52
90.0
 71
     2
 49
0.5
 62
   256
  6
BYLAYER
 49
-0.5
 62
   256
  6
BYLAYER
  0
VISUALSTYLE
  5
2F
102
{ACAD_REACTORS
330
2A
102
}
330
2A
100
AcDbVisualStyle
  2
2dWireframe
 70
     4
 71
     0
 72
     2
 73
     0
 90
        0
 40
-0.6
 41
-30.0
 62
     5
 63
     7
 74
     1
 91
        4
 64
     7
 65
   257
 75
     1
175
     1
 42
1.0
 92
        0
 66
   257
 43
1.0
 76
     1
 77
     6
 78
     2
 67
     7
 79
     5
170
     0
171
     0
290
     0
174
     0
 93
        1
 44
0.0
173
     0
291
     0
 45
0.0
1001
ACAD
1000
AcDbSavedByObjectVersion
1070
     0
  0
VISUALSTYLE
  5
31
102
{ACAD_REACTORS
330
2A
102
}
330
2A
100
AcDbVisualStyle
  2
3D Hidden
 70
     6
 71
     1
 72
     2
 73
     2
 90
        0
 40
-0.6
 41
-30.0
 62
     5
 63
     7
 74
     2
 91
        2
 64
     7
 65
   257
 75
     2
175
     1
 42
40.0
 92
        0
 66
   257
 43
1.0
 76
     1
 77
     6
 78
     2
 67
     7
 79
     3
170
     0
171
     0
290
     0
174
     0
 93
        1
 44
0.0
173
     0
291
     0
 45
0.0
1001
ACAD
1000
AcDbSavedByObjectVersion
1070
     0
  0
VISUALSTYLE
  5
30
102
{ACAD_REACTORS
330
2A
102
}
330
2A
100
AcDbVisualStyle
  2
3dWireframe
 70
     5
 71
     0
 72
     2
 73
     0
 90
        0
 40
-0.6
 41
-30.0
 62
     5
 63
     7
 74
     1
 91
        4
 64
     7
 65
   257
 75
     1
175
     1
 42
1.0
 92
        0
 66
   257
 43
1.0
 76
     1
 77
     6
 78
     2
 67
     7
 79
     5
170
     0
171
     0
290
     0
174
     0
 93
        1
 44
0.0
173
     0
291
     0
 45
0.0
1001
ACAD
1000
AcDbSavedByObjectVersion
1070
     0
  0
VISUALSTYLE
  5
32
102
{ACAD_REACTORS
330
2A
102
}
330
2A
100
AcDbVisualStyle
  2
Basic
 70
     7
 71
     1
 72
     0
 73
     1
 90
        0
 40
-0.6
 41
-30.0
 62
     5
 63
     7
 74
     0
 91
        4
 64
     7
 65
   257
 75
     1
175
     1
 42
1.0
 92
        8
 66
     7
 43
1.0
 76
     1
 77
     6
 78
     2
 67
     7
 79
     5
170
     0
171
     0
290
     0
174
     0
 93
        1
 44
0.0
173
     0
291
     1
 45
0.0
1001
ACAD
1000
AcDbSavedByObjectVersion
1070
     0
  0
VISUALSTYLE
  5
36
102
{ACAD_REACTORS
330
2A
102
}
330
2A
100
AcDbVisualStyle
  2
Brighten
 70
    12
 71
     2
 72
     2
 73
     0
 90
        0
 40
-0.6
 41
-30.0
 62
     5
 63
     7
 74
     1
 91
        4
 64
     7
 65
   257
 75
     1
175
     1
 42
1.0
 92
        8
 66
     7
 43
1.0
 76
     1
 77
     6
 78
     2
 67
     7
 79
     5
170
     0
171
     0
290
     0
174
     0
 93
        1
 44
50.0
173
     0
291
     1
 45
0.0
1001
ACAD
1000
AcDbSavedByObjectVersion
1070
     0
  0
VISUALSTYLE
  5
3A
102
{ACAD_REACTORS
330
2A
102
}
330
2A
100
AcDbVisualStyle
  2
ColorChange
 70
    16
 71
     2
 72
     2
 73
     3
 90
        0
 40
-0.6
 41
-30.0
 62
     5
 63
     8
 74
     1
 91
        4
 64
     7
 65
   257
 75
     1
175
     1
 42
1.0
 92
        8
 66
     8
 43
1.0
 76
     1
 77
     6
 78
     2
 67
     7
 79
     5
170
     0
171
     0
290
     0
174
     0
 93
        1
 44
0.0
173
     0
291
     1
 45
0.0
1001
ACAD
1000
AcDbSavedByObjectVersion
1070
     0
  0
VISUALSTYLE
  5
34
102
{ACAD_REACTORS
330
2A
102
}
330
2A
100
AcDbVisualStyle
  2
Conceptual
 70
     9
 71
     3
 72
     2
 73
     0
 90
        0
 40
-0.6
 41
-30.0
 62
     5
 63
     7
 74
     2
 91
        2
 64
     7
 65
   257
 75
     1
175
     1
 42
40.0
 92
        8
 66
     7
 43
1.0
 76
     1
 77
     6
 78
     2
 67
     7
 79
     3
170
     0
171
     0
290
     0
174
     0
 93
        1
 44
0.0
173
     0
291
     0
 45
0.0
1001
ACAD
1000
AcDbSavedByObjectVersion
1070
     0
  0
VISUALSTYLE
  5
35
102
{ACAD_REACTORS
330
2A
102
}
330
2A
100
AcDbVisualStyle
  2
Dim
 70
    11
 71
     2
 72
     2
 73
     0
 90
        0
 40
-0.6
 41
-30.0
 62
     5
 63
     7
 74
     1
 91
        4
 64
     7
 65
   257
 75
     1
175
     1
 42
1.0
 92
        8
 66
     7
 43
1.0
 76
     1
 77
     6
 78
     2
 67
     7
 79
     5
170
     0
171
     0
290
     0
174
     0
 93
        1
 44
-50.0
173
     0
291
     1
 45
0.0
1001
ACAD
1000
AcDbSavedByObjectVersion
1070
     0
  0
VISUALSTYLE
  5
39
102
{ACAD_REACTORS
330
2A
102
}
330
2A
100
AcDbVisualStyle
  2
Facepattern
 70
    15
 71
     2
 72
     2
 73
     0
 90
        0
 40
-0.6
 41
-30.0
 62
     5
 63
     7
 74
     1
 91
        4
 64
     7
 65
   257
 75
     1
175
     1
 42
1.0
 92
        8
 66
     7
 43
1.0
 76
     1
 77
     6
 78
     2
 67
     7
 79
     5
170
     0
171
     0
290
     0
174
     0
 93
        1
 44
0.0
173
     0
291
     1
 45
0.0
1001
ACAD
1000
AcDbSavedByObjectVersion
1070
     0
  0
VISUALSTYLE
  5
2B
102
{ACAD_REACTORS
330
2A
102
}
330
2A
100
AcDbVisualStyle
  2
Flat
 70
     0
 71
     2
 72
     1
 73
     1
 90
        2
 40
-0.6
 41
30.0
 62
     5
 63
     7
 74
     0
 91
        4
 64
     7
 65
   257
 75
     1
175
     1
 42
1.0
 92
        8
 66
     7
 43
1.0
 76
     1
 77
     6
 78
     2
 67
     7
 79
     5
170
     0
171
     0
290
     0
174
     0
 93
       13
 44
0.0
173
     0
291
     1
 45
0.0
1001
ACAD
1000
AcDbSavedByObjectVersion
1070
     0
  0
VISUALSTYLE
  5
2C
102
{ACAD_REACTORS
330
2A
102
}
330
2A
100
AcDbVisualStyle
  2
FlatWithEdges
 70
     1
 71
     2
 72
     1
 73
     1
 90
        2
 40
-0.6
 41
30.0
 62
     5
 63
     7
 74
     1
 91
        4
 64
     7
 65
   257
 75
     1
175
     1
 42
1.0
 92
        0
 66
   257
 43
1.0
 76
     1
 77
     6
 78
     2
 67
     7
 79
     5
170
     0
171
     0
290
     0
174
     0
 93
       13
 44
0.0
173
     0
291
     1
 45
0.0
1001
ACAD
1000
AcDbSavedByObjectVersion
1070
     0
  0
VISUALSTYLE
  5
2D
102
{ACAD_REACTORS
330
2A
102
}
330
2A
100
AcDbVisualStyle
  2
Gouraud
 70
     2
 71
     2
 72
     2
 73
     1
 90
        2
 40
-0.6
 41
30.0
 62
     5
 63
     7
 74
     0
 91
        4
 64
     7
 65
   257
 75
     1
175
     1
 42
1.0
 92
        0
 66
     7
 43
1.0
 76
     1
 77
     6
 78
     2
 67
     7
 79
     5
170
     0
171
     0
290
     0
174
     0
 93
       13
 44
0.0
173
     0
291
     1
 45
0.0
1001
ACAD
1000
AcDbSavedByObjectVersion
1070
     0
  0
VISUALSTYLE
  5
2E
102
{ACAD_REACTORS
330
2A
102
}
330
2A
100
AcDbVisualStyle
  2
GouraudWithEdges
 70
     3
 71
     2
 72
     2
 73
     1
 90
        2
 40
-0.6
 41
30.0
 62
     5
 63
     7
 74
     1
 91
        4
 64
     7
 65
   257
 75
     1
175
     1
 42
1.0
 92
        0
 66
   257
 43
1.0
 76
     1
 77
     6
 78
     2
 67
     7
 79
     5
170
     0
171
     0
290
     0
174
     0
 93
       13
 44
0.0
173
     0
291
     1
 45
0.0
1001
ACAD
1000
AcDbSavedByObjectVersion
1070
     0
  0
VISUALSTYLE
  5
38
102
{ACAD_REACTORS
330
2A
102
}
330
2A
100
AcDbVisualStyle
  2
Linepattern
 70
    14
 71
     2
 72
     2
 73
     0
 90
        0
 40
-0.6
 41
-30.0
 62
     5
 63
     7
 74
     1
 91
        4
 64
     7
 65
   257
 75
     7
175
     7
 42
1.0
 92
        8
 66
     7
 43
1.0
 76
     1
 77
     6
 78
     2
 67
     7
 79
     5
170
     0
171
     0
290
     0
174
     0
 93
        1
 44
0.0
173
     0
291
     1
 45
0.0
1001
ACAD
1000
AcDbSavedByObjectVersion
1070
     0
  0
VISUALSTYLE
  5
33
102
{ACAD_REACTORS
330
2A
102
}
330
2A
100
AcDbVisualStyle
  2
Realistic
 70
     8
 71
     2
 72
     2
 73
     0
 90
        0
 40
-0.6
 41
-30.0
 62
     5
 63
     7
 74
     1
 91
        0
 64
     7
 65
   257
 75
     1
175
     1
 42
1.0
 92
        8
 66
     8
 43
1.0
 76
     1
 77
     6
 78
     2
 67
     7
 79
     5
170
     0
171
     0
290
     0
174
     0
 93
       13
 44
0.0
173
     0
291
     0
 45
0.0
1001
ACAD
1000
AcDbSavedByObjectVersion
1070
     0
  0
VISUALSTYLE
  5
37
102
{ACAD_REACTORS
330
2A
102
}
330
2A
100
AcDbVisualStyle
  2
Thicken
 70
    13
 71
     2
 72
     2
 73
     0
 90
        0
 40
-0.6
 41
-30.0
 62
     5
 63
     7
 74
     1
 91
        4
 64
     7
 65
   257
 75
     1
175
     1
 42
1.0
 92
       12
 66
     7
 43
1.0
 76
     1
 77
     6
 78
     2
 67
     7
 79
     5
170
     0
171
     0
290
     0
174
     0
 93
        1
 44
0.0
173
     0
291
     1
 45
0.0
1001
ACAD
1000
AcDbSavedByObjectVersion
1070
     0
  0
ENDSEC
  0
EOF
