999
dxflib 3.12.2.0
  0
SECTION
  2
HEADER
  9
$ACADVER
  1
AC1015
  9
$HANDSEED
  5
FFFF
  9
$ANGBASE
 50
0.0
  9
$ANGDIR
 70
0
  9
$ATTMODE
 70
1
  9
$AUNITS
 70
0
  9
$AUPREC
 70
0
  9
$CECOLOR
 62
256
  9
$CELTSCALE
 40
1.0
  9
$CHAMFERA
 40
0.5
  9
$CHAMFERB
 40
0.5
  9
$CHAMFERC
 40
1.0
  9
$CHAMFERD
 40
0.0
  9
$CMLJUST
 70
0
  9
$CMLSCALE
 40
1.0
  9
$DIMADEC
 70
0
  9
$DIMALT
 70
0
  9
$DIMALTD
 70
2
  9
$DIMALTF
 40
25.3999999999999986
  9
$DIMALTTD
 70
2
  9
$DIMALTTZ
 70
0
  9
$DIMALTU
 70
2
  9
$DIMALTZ
 70
0
  9
$DIMAPOST
  1

  9
$DIMASZ
 40
0.18
  9
$DIMAUNIT
 70
0
  9
$DIMAZIN
 70
0
  9
$DIMBLK
  1

  9
$DIMBLK1
  1

  9
$DIMBLK2
  1

  9
$DIMCEN
 40
0.09
  9
$DIMCLRD
 70
0
  9
$DIMCLRE
 70
0
  9
$DIMCLRT
 70
0
  9
$DIMDEC
 70
4
  9
$DIMDLE
 40
0.0
  9
$DIMDLI
 40
0.38
  9
$DIMEXE
 40
0.18
  9
$DIMEXO
 40
0.0625
  9
$DIMGAP
 40
0.09
  9
$DIMJUST
 70
0
  9
$DIMLFAC
 40
1.0
  9
$DIMLIM
 70
0
  9
$DIMLUNIT
 70
2
  9
$DIMPOST
  1

  9
$DIMRND
 40
0.0
  9
$DIMSAH
 70
0
  9
$DIMSCALE
 40
1.0
  9
$DIMSD1
 70
0
  9
$DIMSD2
 70
0
  9
$DIMSE1
 70
0
  9
$DIMSE2
 70
0
  9
$DIMSOXD
 70
0
  9
$DIMTAD
 70
0
  9
$DIMTDEC
 70
4
  9
$DIMTFAC
 40
1.0
  9
$DIMTIH
 70
1
  9
$DIMTIX
 70
0
  9
$DIMTM
 40
0.0
  9
$DIMTOFL
 70
0
  9
$DIMTOH
 70
1
  9
$DIMTOL
 70
0
  9
$DIMTOLJ
 70
1
  9
$DIMTP
 40
0.0
  9
$DIMTSZ
 40
0.0
  9
$DIMTVP
 40
0.0
  9
$DIMTXSTY
  7
STANDARD
  9
$DIMTXT
 40
0.18
  9
$DIMTZIN
 70
0
  9
$DIMUPT
 70
0
  9
$DIMZIN
 70
0
  9
$DISPSILH
 70
0
  9
$DWGCODEPAGE
  3
ANSI_1252
  9
$ELEVATION
 40
0.0
  9
$EXTMAX
 10
-100000000000000000000.0
 20
-100000000000000000000.0
 30
-100000000000000000000.0
  9
$EXTMIN
 10
100000000000000000000.0
 20
100000000000000000000.0
 30
100000000000000000000.0
  9
$FILLETRAD
 40
0.5
  9
$FILLMODE
 70
1
  9
$INSBASE
 10
0.0
 20
0.0
 30
0.0
  9
$INSUNITS
 70
0
  9
$LIMCHECK
 70
0
  9
$LIMMAX
 10
12.0
 20
9.0
  9
$LIMMIN
 10
0.0
 20
0.0
  9
$LTSCALE
 40
1.0
  9
$LUNITS
 70
2
  9
$LUPREC
 70
4
  9
$MAXACTVP
 70
64
  9
$MEASUREMENT
 70
1
  9
$MIRRTEXT
 70
1
  9
$ORTHOMODE
 70
0
  9
$PDMODE
 70
0
  9
$PDSIZE
 40
0
  9
$PELEVATION
 40
0.0
  9
$PEXTMAX
 10
-100000000000000000000.0
 20
-100000000000000000000.0
 30
-100000000000000000000.0
  9
$PEXTMIN
 10
100000000000000000000.0
 20
100000000000000000000.0
 30
100000000000000000000.0
  9
$PINSBASE
 10
0.0
 20
0.0
 30
0.0
  9
$PLIMCHECK
 70
0
  9
$PLIMMAX
 10
12.0
 20
9.0
  9
$PLIMMIN
 10
0.0
 20
0.0
  9
$PLINEGEN
 70
0
  9
$PLINEWID
 40
0.0
  9
$PSLTSCALE
 70
1
  9
$PUCSNAME
  2

  9
$PUCSORG
 10
0.0
 20
0.0
 30
0.0
  9
$PUCSXDIR
 10
1.0
 20
0.0
 30
0.0
  9
$PUCSYDIR
 10
0.0
 20
1.0
 30
0.0
  9
$QTEXTMODE
 70
0
  9
$REGENMODE
 70
1
  9
$SHADEDGE
 70
3
  9
$SHADEDIF
 70
70
  9
$SKETCHINC
 40
0.1
  9
$SKPOLY
 70
0
  9
$SPLFRAME
 70
0
  9
$SPLINESEGS
 70
8
  9
$SPLINETYPE
 70
6
  9
$SURFTAB1
 70
6
  9
$SURFTAB2
 70
6
  9
$SURFTYPE
 70
6
  9
$SURFU
 70
6
  9
$SURFV
 70
6
  9
$TEXTSIZE
 40
0.2
  9
$TEXTSTYLE
  7
STANDARD
  9
$THICKNESS
 40
0.0
  9
$TILEMODE
 70
1
  9
$TRACEWID
 40
0.05
  9
$TREEDEPTH
 70
3020
  9
$UCSNAME
  2

  9
$UCSORG
 10
0.0
 20
0.0
 30
0.0
  9
$UCSXDIR
 10
1.0
 20
0.0
 30
0.0
  9
$UCSYDIR
 10
0.0
 20
1.0
 30
0.0
  9
$UNITMODE
 70
0
  9
$USERI1
 70
0
  9
$USERI2
 70
0
  9
$USERI3
 70
0
  9
$USERI4
 70
0
  9
$USERI5
 70
0
  9
$USERR1
 40
0.0
  9
$USERR2
 40
0.0
  9
$USERR3
 40
0.0
  9
$USERR4
 40
0.0
  9
$USERR5
 40
0.0
  9
$USRTIMER
 70
1
  9
$VISRETAIN
 70
1
  0
ENDSEC
  0
SECTION
  2
TABLES
  0
TABLE
  2
VPORT
  5
8
100
AcDbSymbolTable
 70
1
  0
VPORT
  5
30
100
AcDbSymbolTableRecord
100
AcDbViewportTableRecord
  2
*Active
 70
0
 10
0.0
 20
0.0
 11
1.0
 21
1.0
 12
286.3055555555554861
 22
148.5
 13
0.0
 23
0.0
 14
10.0
 24
10.0
 15
10.0
 25
10.0
 16
0.0
 26
0.0
 36
1.0
 17
0.0
 27
0.0
 37
0.0
 40
297.0
 41
1.92798353909465
 42
50.0
 43
0.0
 44
0.0
 50
0.0
 51
0.0
 71
0
 72
100
 73
1
 74
3
 75
1
 76
1
 77
0
 78
0
281
0
 65
1
110
0.0
120
0.0
130
0.0
111
1.0
121
0.0
131
0.0
112
0.0
122
1.0
132
0.0
 79
0
146
0.0
  0
ENDTAB
  0
TABLE
  2
LTYPE
  5
5
100
AcDbSymbolTable
 70
41
  0
LTYPE
  5
16
100
AcDbSymbolTableRecord
100
AcDbLinetypeTableRecord
  2
CONTINUOUS
 70
0
  3
Solid line
 72
65
 73
0
 40
0.0
  0
LTYPE
  5
31
100
AcDbSymbolTableRecord
100
AcDbLinetypeTableRecord
  2
ACAD_ISO15W100
 70
0
  3
ISO double-dash triple-dot __ __ . . . __ __ . .
 72
65
 73
10
 40
39.0
 49
12.0
 74
0
 49
-3.0
 74
0
 49
12.0
 74
0
 49
-3.0
 74
0
 49
0.0
 74
0
 49
-3.0
 74
0
 49
0.0
 74
0
 49
-3.0
 74
0
 49
0.0
 74
0
 49
-3.0
 74
0
  0
LTYPE
  5
32
100
AcDbSymbolTableRecord
100
AcDbLinetypeTableRecord
  2
DIVIDE
 70
0
  3
Divide ____ . . ____ . . ____ . . ____ . . ____
 72
65
 73
6
 40
31.75
 49
12.6999999999999993
 74
0
 49
-6.3499999999999996
 74
0
 49
0.0
 74
0
 49
-6.3499999999999996
 74
0
 49
0.0
 74
0
 49
-6.3499999999999996
 74
0
  0
LTYPE
  5
33
100
AcDbSymbolTableRecord
100
AcDbLinetypeTableRecord
  2
ACAD_ISO10W100
 70
0
  3
ISO dash dot __ . __ . __ . __ . __ . __ . __ . 
 72
65
 73
4
 40
18.0
 49
12.0
 74
0
 49
-3.0
 74
0
 49
0.0
 74
0
 49
-3.0
 74
0
  0
LTYPE
  5
34
100
AcDbSymbolTableRecord
100
AcDbLinetypeTableRecord
  2
ACAD_ISO04W100
 70
0
  3
ISO long-dash dot ____ . ____ . ____ . ____ . _
 72
65
 73
4
 40
30.0
 49
24.0
 74
0
 49
-3.0
 74
0
 49
0.0
 74
0
 49
-3.0
 74
0
  0
LTYPE
  5
35
100
AcDbSymbolTableRecord
100
AcDbLinetypeTableRecord
  2
CENTER2
 70
0
  3
Center (.5x) ___ _ ___ _ ___ _ ___ _ ___ _ ___
 72
65
 73
4
 40
28.5750000000000028
 49
19.0500000000000007
 74
0
 49
-3.1749999999999998
 74
0
 49
3.1749999999999998
 74
0
 49
-3.1749999999999998
 74
0
  0
LTYPE
  5
36
100
AcDbSymbolTableRecord
100
AcDbLinetypeTableRecord
  2
ACAD_ISO11W100
 70
0
  3
ISO double-dash dot __ __ . __ __ . __ __ . __ _
 72
65
 73
6
 40
33.0
 49
12.0
 74
0
 49
-3.0
 74
0
 49
12.0
 74
0
 49
-3.0
 74
0
 49
0.0
 74
0
 49
-3.0
 74
0
  0
LTYPE
  5
37
100
AcDbSymbolTableRecord
100
AcDbLinetypeTableRecord
  2
HIDDEN2
 70
0
  3
Hidden (.5x) _ _ _ _ _ _ _ _ _ _ _ _ _ _ _ _ _ 
 72
65
 73
2
 40
4.7624999999999993
 49
3.1749999999999998
 74
0
 49
-1.5874999999999999
 74
0
  0
LTYPE
  5
38
100
AcDbSymbolTableRecord
100
AcDbLinetypeTableRecord
  2
BORDERX2
 70
0
  3
Border (2x) ____  ____  .  ____  ____  .  ___
 72
65
 73
6
 40
88.8999999999999915
 49
25.3999999999999986
 74
0
 49
-12.6999999999999993
 74
0
 49
25.3999999999999986
 74
0
 49
-12.6999999999999993
 74
0
 49
0.0
 74
0
 49
-12.6999999999999993
 74
0
  0
LTYPE
  5
39
100
AcDbSymbolTableRecord
100
AcDbLinetypeTableRecord
  2
ACAD_ISO05W100
 70
0
  3
ISO long-dash double-dot ____ .. ____ .. ____ . 
 72
65
 73
6
 40
33.0
 49
24.0
 74
0
 49
-3.0
 74
0
 49
0.0
 74
0
 49
-3.0
 74
0
 49
0.0
 74
0
 49
-3.0
 74
0
  0
LTYPE
  5
3A
100
AcDbSymbolTableRecord
100
AcDbLinetypeTableRecord
  2
DASHDOTX2
 70
0
  3
Dash dot (2x) ____  .  ____  .  ____  .  ___
 72
65
 73
4
 40
50.7999999999999972
 49
25.3999999999999986
 74
0
 49
-12.6999999999999993
 74
0
 49
0.0
 74
0
 49
-12.6999999999999993
 74
0
  0
LTYPE
  5
3B
100
AcDbSymbolTableRecord
100
AcDbLinetypeTableRecord
  2
HIDDENX2
 70
0
  3
Hidden (2x) ____ ____ ____ ____ ____ ____ ____ 
 72
65
 73
2
 40
19.0499999999999972
 49
12.6999999999999993
 74
0
 49
-6.3499999999999996
 74
0
  0
LTYPE
  5
3C
100
AcDbSymbolTableRecord
100
AcDbLinetypeTableRecord
  2
CENTERX2
 70
0
  3
Center (2x) ________  __  ________  __  _____
 72
65
 73
4
 40
101.6000000000000085
 49
63.5
 74
0
 49
-12.6999999999999993
 74
0
 49
12.6999999999999993
 74
0
 49
-12.6999999999999993
 74
0
  0
LTYPE
  5
3D
100
AcDbSymbolTableRecord
100
AcDbLinetypeTableRecord
  2
BORDER2
 70
0
  3
Border (.5x) __.__.__.__.__.__.__.__.__.__.__.
 72
65
 73
6
 40
22.2249999999999979
 49
6.3499999999999996
 74
0
 49
-3.1749999999999998
 74
0
 49
6.3499999999999996
 74
0
 49
-3.1749999999999998
 74
0
 49
0.0
 74
0
 49
-3.1749999999999998
 74
0
  0
LTYPE
  5
3E
100
AcDbSymbolTableRecord
100
AcDbLinetypeTableRecord
  2
DASHDOT2
 70
0
  3
Dash dot (.5x) _._._._._._._._._._._._._._._.
 72
65
 73
4
 40
12.6999999999999993
 49
6.3499999999999996
 74
0
 49
-3.1749999999999998
 74
0
 49
0.0
 74
0
 49
-3.1749999999999998
 74
0
  0
LTYPE
  5
3F
100
AcDbSymbolTableRecord
100
AcDbLinetypeTableRecord
  2
ACAD_ISO12W100
 70
0
  3
ISO dash double-dot __ . . __ . . __ . . __ . . 
 72
65
 73
6
 40
21.0
 49
12.0
 74
0
 49
-3.0
 74
0
 49
0.0
 74
0
 49
-3.0
 74
0
 49
0.0
 74
0
 49
-3.0
 74
0
  0
LTYPE
  5
40
100
AcDbSymbolTableRecord
100
AcDbLinetypeTableRecord
  2
ACAD_ISO07W100
 70
0
  3
ISO dot . . . . . . . . . . . . . . . . . . . . 
 72
65
 73
2
 40
3.0
 49
0.0
 74
0
 49
-3.0
 74
0
  0
LTYPE
  5
41
100
AcDbSymbolTableRecord
100
AcDbLinetypeTableRecord
  2
HIDDEN
 70
0
  3
Hidden __ __ __ __ __ __ __ __ __ __ __ __ __ __
 72
65
 73
2
 40
9.5249999999999986
 49
6.3499999999999996
 74
0
 49
-3.1749999999999998
 74
0
  0
LTYPE
  5
42
100
AcDbSymbolTableRecord
100
AcDbLinetypeTableRecord
  2
ACAD_ISO06W100
 70
0
  3
ISO long-dash triple-dot ____ ... ____ ... ____
 72
65
 73
8
 40
36.0
 49
24.0
 74
0
 49
-3.0
 74
0
 49
0.0
 74
0
 49
-3.0
 74
0
 49
0.0
 74
0
 49
-3.0
 74
0
 49
0.0
 74
0
 49
-3.0
 74
0
  0
LTYPE
  5
43
100
AcDbSymbolTableRecord
100
AcDbLinetypeTableRecord
  2
CENTER
 70
0
  3
Center ____ _ ____ _ ____ _ ____ _ ____ _ ____
 72
65
 73
4
 40
50.8000000000000043
 49
31.75
 74
0
 49
-6.3499999999999996
 74
0
 49
6.3499999999999996
 74
0
 49
-6.3499999999999996
 74
0
  0
LTYPE
  5
44
100
AcDbSymbolTableRecord
100
AcDbLinetypeTableRecord
  2
DOTX2
 70
0
  3
Dot (2x) .  .  .  .  .  .  .  .  .  .  .  .  .  .
 72
65
 73
2
 40
12.6999999999999993
 49
0.0
 74
0
 49
-12.6999999999999993
 74
0
  0
LTYPE
  5
45
100
AcDbSymbolTableRecord
100
AcDbLinetypeTableRecord
  2
PHANTOM
 70
0
  3
Phantom ______  __  __  ______  __  __  ______ 
 72
65
 73
6
 40
63.5000000000000071
 49
31.75
 74
0
 49
-6.3499999999999996
 74
0
 49
6.3499999999999996
 74
0
 49
-6.3499999999999996
 74
0
 49
6.3499999999999996
 74
0
 49
-6.3499999999999996
 74
0
  0
LTYPE
  5
46
100
AcDbSymbolTableRecord
100
AcDbLinetypeTableRecord
  2
ACAD_ISO08W100
 70
0
  3
ISO long-dash short-dash ____ __ ____ __ ____ _
 72
65
 73
4
 40
36.0
 49
24.0
 74
0
 49
-3.0
 74
0
 49
6.0
 74
0
 49
-3.0
 74
0
  0
LTYPE
  5
47
100
AcDbSymbolTableRecord
100
AcDbLinetypeTableRecord
  2
DASHEDX2
 70
0
  3
Dashed (2x) ____  ____  ____  ____  ____  ___
 72
65
 73
2
 40
38.0999999999999943
 49
25.3999999999999986
 74
0
 49
-12.6999999999999993
 74
0
  0
LTYPE
  5
48
100
AcDbSymbolTableRecord
100
AcDbLinetypeTableRecord
  2
ACAD_ISO02W100
 70
0
  3
ISO dash __ __ __ __ __ __ __ __ __ __ __ __ __
 72
65
 73
2
 40
15.0
 49
12.0
 74
0
 49
-3.0
 74
0
  0
LTYPE
  5
49
100
AcDbSymbolTableRecord
100
AcDbLinetypeTableRecord
  2
PHANTOM2
 70
0
  3
Phantom (.5x) ___ _ _ ___ _ _ ___ _ _ ___ _ _
 72
65
 73
6
 40
31.7500000000000036
 49
15.875
 74
0
 49
-3.1749999999999998
 74
0
 49
3.1749999999999998
 74
0
 49
-3.1749999999999998
 74
0
 49
3.1749999999999998
 74
0
 49
-3.1749999999999998
 74
0
  0
LTYPE
  5
4A
100
AcDbSymbolTableRecord
100
AcDbLinetypeTableRecord
  2
DASHED2
 70
0
  3
Dashed (.5x) _ _ _ _ _ _ _ _ _ _ _ _ _ _ _ _ _ 
 72
65
 73
2
 40
9.5249999999999986
 49
6.3499999999999996
 74
0
 49
-3.1749999999999998
 74
0
  0
LTYPE
  5
4B
100
AcDbSymbolTableRecord
100
AcDbLinetypeTableRecord
  2
ACAD_ISO09W100
 70
0
  3
ISO long-dash double-short-dash ____ __ __ ____
 72
65
 73
6
 40
45.0
 49
24.0
 74
0
 49
-3.0
 74
0
 49
6.0
 74
0
 49
-3.0
 74
0
 49
6.0
 74
0
 49
-3.0
 74
0
  0
LTYPE
  5
4C
100
AcDbSymbolTableRecord
100
AcDbLinetypeTableRecord
  2
ACAD_ISO13W100
 70
0
  3
ISO double-dash double-dot __ __ . . __ __ . . _
 72
65
 73
8
 40
36.0
 49
12.0
 74
0
 49
-3.0
 74
0
 49
12.0
 74
0
 49
-3.0
 74
0
 49
0.0
 74
0
 49
-3.0
 74
0
 49
0.0
 74
0
 49
-3.0
 74
0
  0
LTYPE
  5
4D
100
AcDbSymbolTableRecord
100
AcDbLinetypeTableRecord
  2
DOT2
 70
0
  3
Dot (.5x) ........................................
 72
65
 73
2
 40
3.1749999999999998
 49
0.0
 74
0
 49
-3.1749999999999998
 74
0
  0
LTYPE
  5
4E
100
AcDbSymbolTableRecord
100
AcDbLinetypeTableRecord
  2
DASHED
 70
0
  3
Dashed __ __ __ __ __ __ __ __ __ __ __ __ __ _
 72
65
 73
2
 40
19.0499999999999972
 49
12.6999999999999993
 74
0
 49
-6.3499999999999996
 74
0
  0
LTYPE
  5
4F
100
AcDbSymbolTableRecord
100
AcDbLinetypeTableRecord
  2
ACAD_ISO14W100
 70
0
  3
ISO dash triple-dot __ . . . __ . . . __ . . . _
 72
65
 73
8
 40
24.0
 49
12.0
 74
0
 49
-3.0
 74
0
 49
0.0
 74
0
 49
-3.0
 74
0
 49
0.0
 74
0
 49
-3.0
 74
0
 49
0.0
 74
0
 49
-3.0
 74
0
  0
LTYPE
  5
15
100
AcDbSymbolTableRecord
100
AcDbLinetypeTableRecord
  2
BYLAYER
 70
0
  3

 72
65
 73
0
 40
0.0
  0
LTYPE
  5
50
100
AcDbSymbolTableRecord
100
AcDbLinetypeTableRecord
  2
PHANTOMX2
 70
0
  3
Phantom (2x) ____________    ____    ____   _
 72
65
 73
6
 40
127.0000000000000142
 49
63.5
 74
0
 49
-12.6999999999999993
 74
0
 49
12.6999999999999993
 74
0
 49
-12.6999999999999993
 74
0
 49
12.6999999999999993
 74
0
 49
-12.6999999999999993
 74
0
  0
LTYPE
  5
14
100
AcDbSymbolTableRecord
100
AcDbLinetypeTableRecord
  2
BYBLOCK
 70
0
  3

 72
65
 73
0
 40
0.0
  0
LTYPE
  5
51
100
AcDbSymbolTableRecord
100
AcDbLinetypeTableRecord
  2
DIVIDEX2
 70
0
  3
Divide (2x) ________  .  .  ________  .  .  _
 72
65
 73
6
 40
63.5
 49
25.3999999999999986
 74
0
 49
-12.6999999999999993
 74
0
 49
0.0
 74
0
 49
-12.6999999999999993
 74
0
 49
0.0
 74
0
 49
-12.6999999999999993
 74
0
  0
LTYPE
  5
52
100
AcDbSymbolTableRecord
100
AcDbLinetypeTableRecord
  2
BORDER
 70
0
  3
Border __ __ . __ __ . __ __ . __ __ . __ __ .
 72
65
 73
6
 40
44.4499999999999957
 49
12.6999999999999993
 74
0
 49
-6.3499999999999996
 74
0
 49
12.6999999999999993
 74
0
 49
-6.3499999999999996
 74
0
 49
0.0
 74
0
 49
-6.3499999999999996
 74
0
  0
LTYPE
  5
53
100
AcDbSymbolTableRecord
100
AcDbLinetypeTableRecord
  2
DIVIDE2
 70
0
  3
Divide (.5x) __..__..__..__..__..__..__..__.._
 72
65
 73
6
 40
15.875
 49
6.3499999999999996
 74
0
 49
-3.1749999999999998
 74
0
 49
0.0
 74
0
 49
-3.1749999999999998
 74
0
 49
0.0
 74
0
 49
-3.1749999999999998
 74
0
  0
LTYPE
  5
54
100
AcDbSymbolTableRecord
100
AcDbLinetypeTableRecord
  2
DOT
 70
0
  3
Dot . . . . . . . . . . . . . . . . . . . . . . . .
 72
65
 73
2
 40
6.3499999999999996
 49
0.0
 74
0
 49
-6.3499999999999996
 74
0
  0
LTYPE
  5
55
100
AcDbSymbolTableRecord
100
AcDbLinetypeTableRecord
  2
DASHDOT
 70
0
  3
Dash dot __ . __ . __ . __ . __ . __ . __ . __
 72
65
 73
4
 40
25.3999999999999986
 49
12.6999999999999993
 74
0
 49
-6.3499999999999996
 74
0
 49
0.0
 74
0
 49
-6.3499999999999996
 74
0
  0
LTYPE
  5
56
100
AcDbSymbolTableRecord
100
AcDbLinetypeTableRecord
  2
ACAD_ISO03W100
 70
0
  3
ISO dash space __    __    __    __    __    __
 72
65
 73
2
 40
30.0
 49
12.0
 74
0
 49
-18.0
 74
0
  0
ENDTAB
  0
TABLE
  2
LAYER
  5
2
100
AcDbSymbolTable
 70
2
  0
LAYER
  5
57
100
AcDbSymbolTableRecord
100
AcDbLayerTableRecord
  2
POCKETS
 70
0
 62
7
420
16777215
  6
CONTINUOUS
370
5
390
F
  0
LAYER
  5
10
100
AcDbSymbolTableRecord
100
AcDbLayerTableRecord
  2
0
 70
0
 62
7
420
16777215
  6
CONTINUOUS
370
5
390
F
  0
ENDTAB
  0
TABLE
  2
STYLE
  5
3
100
AcDbSymbolTable
 70
1
  0
STYLE
  5
58
100
AcDbSymbolTableRecord
100
AcDbTextStyleTableRecord
  2
Standard
 70
0
 40
0.0
 41
1.0
 50
0.0
 71
0
 42
2.5
  3

  4

1001
ACAD
1000
txt
1071
0
  0
ENDTAB
  0
TABLE
  2
VIEW
  5
6
100
AcDbSymbolTable
 70
0
  0
ENDTAB
  0
TABLE
  2
UCS
  5
7
100
AcDbSymbolTable
 70
0
  0
ENDTAB
  0
TABLE
  2
APPID
  5
9
100
AcDbSymbolTable
 70
1
  0
APPID
  5
12
100
AcDbSymbolTableRecord
100
AcDbRegAppTableRecord
  2
ACAD
 70
0
  0
APPID
  5
59
100
AcDbSymbolTableRecord
100
AcDbRegAppTableRecord
  2
QCAD
 70
0
  0
ENDTAB
  0
TABLE
  2
DIMSTYLE
  5
A
100
AcDbSymbolTable
 70
1
100
AcDbDimStyleTable
 71
0
  0
DIMSTYLE
105
27
100
AcDbSymbolTableRecord
100
AcDbDimStyleTableRecord
  2
Standard
 41
0.18
 42
0.0625
 43
3.75
 44
0.18
 70
0
 73
0
 74
0
 77
1
 78
8
140
0.18
141
2.5
143
0.03937007874016
147
0.09
171
3
172
1
271
2
272
2
274
3
278
44
283
0
284
8
340
58
  0
ENDTAB
  0
TABLE
  2
BLOCK_RECORD
  5
1
100
AcDbSymbolTable
 70
1
  0
BLOCK_RECORD
  5
1F
100
AcDbSymbolTableRecord
100
AcDbBlockTableRecord
  2
*Model_Space
340
22
  0
BLOCK_RECORD
  5
1B
100
AcDbSymbolTableRecord
100
AcDbBlockTableRecord
  2
*Paper_Space
340
1E
  0
BLOCK_RECORD
  5
23
100
AcDbSymbolTableRecord
100
AcDbBlockTableRecord
  2
*Paper_Space0
340
26
  0
BLOCK_RECORD
  5
5A
100
AcDbSymbolTableRecord
100
AcDbBlockTableRecord
  2
BLOCK_2
340
0
  0
ENDTAB
  0
ENDSEC
  0
SECTION
  2
BLOCKS
  0
BLOCK
  5
20
100
AcDbEntity
  8
0
100
AcDbBlockBegin
  2
*Model_Space
 70
0
 10
0.0
 20
0.0
 30
0.0
  3
*Model_Space
  1

  0
ENDBLK
  5
21
100
AcDbEntity
  8
0
100
AcDbBlockEnd
  0
BLOCK
  5
1C
100
AcDbEntity
 67
1
  8
0
100
AcDbBlockBegin
  2
*Paper_Space
 70
0
 10
0.0
 20
0.0
 30
0.0
  3
*Paper_Space
  1

  0
ENDBLK
  5
1D
100
AcDbEntity
 67
1
  8
0
100
AcDbBlockEnd
  0
BLOCK
  5
24
100
AcDbEntity
  8
0
100
AcDbBlockBegin
  2
*Paper_Space0
 70
0
 10
0.0
 20
0.0
 30
0.0
  3
*Paper_Space0
  1

  0
ENDBLK
  5
25
100
AcDbEntity
  8
0
100
AcDbBlockEnd
  0
BLOCK
  5
5B
100
AcDbEntity
  8
0
100
AcDbBlockBegin
  2
BLOCK_2
 70
0
 10
0.0
 20
0.0
 30
0.0
  3
BLOCK_2
  1

  0
LWPOLYLINE
  5
5C
100
AcDbEntity
  8
POCKETS
 62
1
420
16711680
370
-1
 48
1.0
  6
BYLAYER
100
AcDbPolyline
 90
5
 70
0
 10
183.3973675766598888
 20
233.5502394626267062
 30
0.0
 10
183.1496650478624986
 20
233.5552348543756978
 30
0.0
 10
183.159311321584795
 20
234.0551185390559965
 30
0.0
 10
183.4083918894853866
 20
234.0501231473068913
 30
0.0
 10
183.3973675766598888
 20
233.5502394626267062
 30
0.0
  0
SPLINE
  5
5D
100
AcDbEntity
  8
POCKETS
 62
1
420
16711680
370
-1
 48
1.0
  6
BYLAYER
100
AcDbSpline
 70
8
 71
3
 72
17
 73
13
 74
0
 40
0.0
 40
0.0
 40
0.0
 40
0.0
 40
1.0
 40
1.0
 40
1.0
 40
2.0
 40
2.0
 40
2.0
 40
3.0
 40
3.0
 40
3.0
 40
4.0
 40
4.0
 40
4.0
 40
4.0
 10
123.9649526247354032
 20
230.1165105272663141
 30
0.0
 10
123.9649526247354032
 20
230.1165105272663141
 30
0.0
 10
123.8526424378259065
 20
230.6036473502421131
 30
0.0
 10
123.8526424378259065
 20
230.6036473502421131
 30
0.0
 10
124.0169736008807035
 20
230.6413711706917127
 30
0.0
 10
124.1830273128144029
 20
230.6785782264776969
 30
0.0
 10
124.3504590638513037
 20
230.7154407724879093
 30
0.0
 10
124.3504590638513037
 20
230.7154407724879093
 30
0.0
 10
124.4579461138997942
 20
230.2272704201847091
 30
0.0
 10
124.4579461138997942
 20
230.2272704201847091
 30
0.0
 10
124.2918924019659954
 20
230.1907523839504108
 30
0.0
 10
124.1272167291353981
 20
230.1538898379401132
 30
0.0
 10
123.9649526247354032
 20
230.1165105272663141
 30
0.0
  0
LWPOLYLINE
  5
5E
100
AcDbEntity
  8
POCKETS
 62
1
420
16711680
370
-1
 48
1.0
  6
BYLAYER
100
AcDbPolyline
 90
5
 70
0
 10
127.1899086359634055
 20
230.770217826839513
 30
0.0
 10
127.101714133359593
 20
231.2621777866764035
 30
0.0
 10
127.6033203669187941
 20
231.350889053943888
 30
0.0
 10
127.6887587913162037
 20
230.8582400745553969
 30
0.0
 10
127.1899086359634055
 20
230.770217826839513
 30
0.0
  0
LWPOLYLINE
  5
5F
100
AcDbEntity
  8
POCKETS
 62
1
420
16711680
370
-1
 48
1.0
  6
BYLAYER
100
AcDbPolyline
 90
5
 70
0
 10
130.4424254292549961
 20
231.2968010191439134
 30
0.0
 10
130.3700783763378013
 20
231.7915170571872068
 30
0.0
 10
130.8737516685517903
 20
231.8640363649923017
 30
0.0
 10
130.9440316628142114
 20
231.368975817173208
 30
0.0
 10
130.4424254292549961
 20
231.2968010191439134
 30
0.0
  0
LWPOLYLINE
  5
60
100
AcDbEntity
  8
POCKETS
 62
1
420
16711680
370
-1
 48
1.0
  6
BYLAYER
100
AcDbPolyline
 90
5
 70
0
 10
133.7104451624574892
 20
231.7312278464229109
 30
0.0
 10
133.6505004614689085
 20
232.2276664333452061
 30
0.0
 10
134.155551792786099
 20
232.2877833892216017
 30
0.0
 10
134.214118454671393
 20
231.7913448022993066
 30
0.0
 10
133.7104451624574892
 20
231.7312278464229109
 30
0.0
  0
LWPOLYLINE
  5
61
100
AcDbEntity
  8
POCKETS
 62
1
420
16711680
370
-1
 48
1.0
  6
BYLAYER
100
AcDbPolyline
 90
5
 70
0
 10
136.9888001889337943
 20
232.0943411501120863
 30
0.0
 10
136.9388462714433956
 20
232.591813266361811
 30
0.0
 10
137.4445866223121016
 20
232.6422839485159102
 30
0.0
 10
137.4935070104752128
 20
232.144811832266214
 30
0.0
 10
136.9888001889337943
 20
232.0943411501120863
 30
0.0
  0
LWPOLYLINE
  5
62
100
AcDbEntity
  8
POCKETS
 62
1
420
16711680
370
-1
 48
1.0
  6
BYLAYER
100
AcDbPolyline
 90
5
 70
0
 10
140.2733563913745058
 20
232.4000935761312121
 30
0.0
 10
140.2313261987272881
 20
232.8982547119323954
 30
0.0
 10
140.7377555691477085
 20
232.9409739241312138
 30
0.0
 10
140.7790967422432118
 20
232.4428127883298885
 30
0.0
 10
140.2733563913745058
 20
232.4000935761312121
 30
0.0
  0
LWPOLYLINE
  5
63
100
AcDbEntity
  8
POCKETS
 62
1
420
16711680
370
-1
 48
1.0
  6
BYLAYER
100
AcDbPolyline
 90
5
 70
0
 10
143.5630802404521091
 20
232.6584759079782998
 30
0.0
 10
143.5272512237692979
 20
233.1573260633311122
 30
0.0
 10
144.0343696137412906
 20
233.1933273349019089
 30
0.0
 10
144.0695096108725011
 20
232.6944771795490112
 30
0.0
 10
143.5630802404521091
 20
232.6584759079782998
 30
0.0
  0
LWPOLYLINE
  5
64
100
AcDbEntity
  8
POCKETS
 62
1
420
16711680
370
-1
 48
1.0
  6
BYLAYER
100
AcDbPolyline
 90
5
 70
0
 10
146.8593497752698056
 20
232.8767228509452138
 30
0.0
 10
146.8290329149998001
 20
233.3759175160737982
 30
0.0
 10
147.3382183636265097
 20
233.4064066312317891
 30
0.0
 10
147.3678462043449997
 20
232.9072119661030911
 30
0.0
 10
146.8593497752698056
 20
232.8767228509452138
 30
0.0
  0
LWPOLYLINE
  5
65
100
AcDbEntity
  8
POCKETS
 62
1
420
16711680
370
-1
 48
1.0
  6
BYLAYER
100
AcDbPolyline
 90
5
 70
0
 10
150.1569973491907888
 20
233.0605188163324044
 30
0.0
 10
150.1315036257817894
 20
233.5597134814611024
 30
0.0
 10
150.6393110353054112
 20
233.5852072048699881
 30
0.0
 10
150.6634267196110955
 20
233.0856680299654897
 30
0.0
 10
150.1569973491907888
 20
233.0605188163324044
 30
0.0
  0
LWPOLYLINE
  5
66
100
AcDbEntity
  8
POCKETS
 62
1
420
16711680
370
-1
 48
1.0
  6
BYLAYER
100
AcDbPolyline
 90
5
 70
0
 10
153.4515443351295119
 20
233.2129643921221884
 30
0.0
 10
153.4308737485816891
 20
233.7125035670266868
 30
0.0
 10
153.9362695896747084
 20
233.7333464084624097
 30
0.0
 10
153.9569401762225027
 20
233.2338072335579113
 30
0.0
 10
153.4515443351295119
 20
233.2129643921221884
 30
0.0
  0
LWPOLYLINE
  5
67
100
AcDbEntity
  8
POCKETS
 62
1
420
16711680
370
-1
 48
1.0
  6
BYLAYER
100
AcDbPolyline
 90
5
 70
0
 10
156.748158379723094
 20
233.3380214407362132
 30
0.0
 10
156.7309328909331896
 20
233.8375606156407116
 30
0.0
 10
157.2390848102326117
 20
233.8547861044305023
 30
0.0
 10
157.2556212794708017
 20
233.3549024197502888
 30
0.0
 10
156.748158379723094
 20
233.3380214407362132
 30
0.0
  0
LWPOLYLINE
  5
68
100
AcDbEntity
  8
POCKETS
 62
1
420
16711680
370
-1
 48
1.0
  6
BYLAYER
100
AcDbPolyline
 90
5
 70
0
 10
160.0482175220745944
 20
233.4384460403807964
 30
0.0
 10
160.0344371310426936
 20
233.9383297250610951
 30
0.0
 10
160.5425890503420874
 20
233.9517656063171103
 30
0.0
 10
160.5556804218223022
 20
233.4518819216368968
 30
0.0
 10
160.0482175220745944
 20
233.4384460403807964
 30
0.0
  0
LWPOLYLINE
  5
69
100
AcDbEntity
  8
POCKETS
 62
1
420
16711680
370
-1
 48
1.0
  6
BYLAYER
100
AcDbPolyline
 90
5
 70
0
 10
163.3489656839776956
 20
233.5161329948228968
 30
0.0
 10
163.3386303907037984
 20
234.0160166795031103
 30
0.0
 10
163.8264562332311129
 20
234.0256629532254067
 30
0.0
 10
163.8564285837254033
 20
233.5261237783209936
 30
0.0
 10
163.3489656839776956
 20
233.5161329948228968
 30
0.0
  0
LWPOLYLINE
  5
6A
100
AcDbEntity
  8
POCKETS
 62
1
420
16711680
370
-1
 48
1.0
  6
BYLAYER
100
AcDbPolyline
 90
5
 70
0
 10
166.6504028654323122
 20
233.5726325980533886
 30
0.0
 10
166.6435126699163902
 20
234.0725162827336874
 30
0.0
 10
167.1237592973762958
 20
234.079061968473809
 30
0.0
 10
167.1582102749559056
 20
233.5795227935693958
 30
0.0
 10
166.6504028654323122
 20
233.5726325980533886
 30
0.0
  0
LWPOLYLINE
  5
6B
100
AcDbEntity
  8
POCKETS
 62
1
420
16711680
370
-1
 48
1.0
  6
BYLAYER
100
AcDbPolyline
 90
5
 70
0
 10
180.3605139030167095
 20
233.596231517695486
 30
0.0
 10
179.8527064934930877
 20
233.6015714192203063
 30
0.0
 10
179.8582186499058935
 20
234.1014551039004914
 30
0.0
 10
180.3660260594294016
 20
234.0961152023756995
 30
0.0
 10
180.3605139030167095
 20
233.596231517695486
 30
0.0
  0
LWPOLYLINE
  5
6C
100
AcDbEntity
  8
POCKETS
 62
1
420
16711680
370
-1
 48
1.0
  6
BYLAYER
100
AcDbPolyline
 90
5
 70
0
 10
169.952184556662786
 20
233.6091506342878006
 30
0.0
 10
169.9480504393532954
 20
234.1090343189680993
 30
0.0
 10
170.4279525570372869
 20
234.1126516716138894
 30
0.0
 10
170.4596474564106074
 20
233.6129402418216046
 30
0.0
 10
169.952184556662786
 20
233.6091506342878006
 30
0.0
  0
LWPOLYLINE
  5
6D
100
AcDbEntity
  8
POCKETS
 62
1
420
16711680
370
-1
 48
1.0
  6
BYLAYER
100
AcDbPolyline
 90
5
 70
0
 10
177.0618327997684105
 20
233.6217252411044001
 30
0.0
 10
176.5540253902447887
 20
233.6237922997592023
 30
0.0
 10
176.5560924488995909
 20
234.1236759844393873
 30
0.0
 10
177.0638998584232127
 20
234.1216089257846136
 30
0.0
 10
177.0618327997684105
 20
233.6217252411044001
 30
0.0
  0
LWPOLYLINE
  5
6E
100
AcDbEntity
  8
POCKETS
 62
1
420
16711680
370
-1
 48
1.0
  6
BYLAYER
100
AcDbPolyline
 90
5
 70
0
 10
173.262578992288212
 20
233.6260316133017909
 30
0.0
 10
173.2532772283416875
 20
234.1259152979820897
 30
0.0
 10
173.7614291476411097
 20
234.1267765724215906
 30
0.0
 10
173.7621181671927104
 20
233.6268928877412918
 30
0.0
 10
173.262578992288212
 20
233.6260316133017909
 30
0.0
  0
LWPOLYLINE
  5
6F
100
AcDbEntity
  8
POCKETS
 62
1
420
16711680
370
-1
 48
1.0
  6
BYLAYER
100
AcDbPolyline
 90
5
 70
0
 10
121.0745156058056011
 20
229.3606560791695017
 30
0.0
 10
120.9305105195227981
 20
229.8395246675260921
 30
0.0
 10
121.1709783430284944
 20
229.9108381911158858
 30
0.0
 10
121.3122273511048945
 20
229.4312805832076947
 30
0.0
 10
121.0745156058056011
 20
229.3606560791695017
 30
0.0
  0
LWPOLYLINE
  5
70
100
AcDbEntity
  8
POCKETS
 62
1
420
16711680
370
-1
 48
1.0
  6
BYLAYER
100
AcDbPolyline
 90
5
 70
0
 10
-30.4946273143736803
 20
233.5502394626267062
 30
0.0
 10
-30.5056516271991605
 20
234.0501231473068913
 30
0.0
 10
-30.2563988044106296
 20
234.0551185390559965
 30
0.0
 10
-30.2469247855762404
 20
233.5552348543756978
 30
0.0
 10
-30.4946273143736803
 20
233.5502394626267062
 30
0.0
  0
SPLINE
  5
71
100
AcDbEntity
  8
POCKETS
 62
1
420
16711680
370
-1
 48
1.0
  6
BYLAYER
100
AcDbSpline
 70
8
 71
3
 72
17
 73
13
 74
0
 40
0.0
 40
0.0
 40
0.0
 40
0.0
 40
1.0
 40
1.0
 40
1.0
 40
2.0
 40
2.0
 40
2.0
 40
3.0
 40
3.0
 40
3.0
 40
4.0
 40
4.0
 40
4.0
 40
4.0
 10
28.937787637550791
 20
230.1163382723784139
 30
0.0
 10
28.7750067684871098
 20
230.1537175830522131
 30
0.0
 10
28.6105033505444304
 20
230.1907523839504108
 30
0.0
 10
28.4444496386106813
 20
230.2272704201847091
 30
0.0
 10
28.4444496386106813
 20
230.2272704201847091
 30
0.0
 10
28.5519366886590902
 20
230.7154407724879093
 30
0.0
 10
28.5519366886590902
 20
230.7154407724879093
 30
0.0
 10
28.7193684396960194
 20
230.6785782264776969
 30
0.0
 10
28.8852498967418789
 20
230.6415434255796129
 30
0.0
 10
29.0497533146845512
 20
230.6038196051300133
 30
0.0
 10
29.0497533146845512
 20
230.6038196051300133
 30
0.0
 10
28.937787637550791
 20
230.1163382723784139
 30
0.0
 10
28.937787637550791
 20
230.1163382723784139
 30
0.0
  0
LWPOLYLINE
  5
72
100
AcDbEntity
  8
POCKETS
 62
1
420
16711680
370
-1
 48
1.0
  6
BYLAYER
100
AcDbPolyline
 90
5
 70
0
 10
25.7126593714349596
 20
230.770217826839513
 30
0.0
 10
25.2139814709700012
 20
230.8582400745553969
 30
0.0
 10
25.2994198953674605
 20
231.350889053943888
 30
0.0
 10
25.8011983838145795
 20
231.2621777866764035
 30
0.0
 10
25.7126593714349596
 20
230.770217826839513
 30
0.0
  0
LWPOLYLINE
  5
73
100
AcDbEntity
  8
POCKETS
 62
1
420
16711680
370
-1
 48
1.0
  6
BYLAYER
100
AcDbPolyline
 90
5
 70
0
 10
22.4603148330312301
 20
231.2968010191439134
 30
0.0
 10
21.9583640896962109
 20
231.368975817173208
 30
0.0
 10
22.0286440839586284
 20
231.8640363649923017
 30
0.0
 10
22.5323173761726316
 20
231.7915170571872068
 30
0.0
 10
22.4603148330312301
 20
231.2968010191439134
 30
0.0
  0
LWPOLYLINE
  5
74
100
AcDbEntity
  8
POCKETS
 62
1
420
16711680
370
-1
 48
1.0
  6
BYLAYER
100
AcDbPolyline
 90
5
 70
0
 10
19.1919505900529792
 20
231.7312278464229109
 30
0.0
 10
18.6886218076147692
 20
231.7913448022993066
 30
0.0
 10
18.7468439597243197
 20
232.2877833892216017
 30
0.0
 10
19.2522398008172999
 20
232.2276664333452061
 30
0.0
 10
19.1919505900529792
 20
231.7312278464229109
 30
0.0
  0
LWPOLYLINE
  5
75
100
AcDbEntity
  8
POCKETS
 62
1
420
16711680
370
-1
 48
1.0
  6
BYLAYER
100
AcDbPolyline
 90
5
 70
0
 10
15.9141123282403196
 20
232.0943411501120863
 30
0.0
 10
15.4090609969231398
 20
232.144811832266214
 30
0.0
 10
15.4583258948619893
 20
232.6422839485159102
 30
0.0
 10
15.9640662457307698
 20
232.591813266361811
 30
0.0
 10
15.9141123282403196
 20
232.0943411501120863
 30
0.0
  0
LWPOLYLINE
  5
76
100
AcDbEntity
  8
POCKETS
 62
1
420
16711680
370
-1
 48
1.0
  6
BYLAYER
100
AcDbPolyline
 90
5
 70
0
 10
12.6288671062480606
 20
232.4000935761312121
 30
0.0
 10
12.1231267553792801
 20
232.4428127883298885
 30
0.0
 10
12.1648124382506193
 20
232.9409739241312138
 30
0.0
 10
12.6712418086709899
 20
232.8982547119323954
 30
0.0
 10
12.6288671062480606
 20
232.4000935761312121
 30
0.0
  0
LWPOLYLINE
  5
77
100
AcDbEntity
  8
POCKETS
 62
1
420
16711680
370
-1
 48
1.0
  6
BYLAYER
100
AcDbPolyline
 90
5
 70
0
 10
9.3394877669462399
 20
232.6584759079782998
 30
0.0
 10
8.8330583965258711
 20
232.6944771795490112
 30
0.0
 10
8.8681983936570798
 20
233.1933273349019089
 30
0.0
 10
9.3749722738532455
 20
233.1573260633311122
 30
0.0
 10
9.3394877669462399
 20
232.6584759079782998
 30
0.0
  0
LWPOLYLINE
  5
78
100
AcDbEntity
  8
POCKETS
 62
1
420
16711680
370
-1
 48
1.0
  6
BYLAYER
100
AcDbPolyline
 90
5
 70
0
 10
6.0432182321284964
 20
232.876895105833114
 30
0.0
 10
5.5348940579412487
 20
232.9073842209909913
 30
0.0
 10
5.5641773888839232
 20
233.4065788861196893
 30
0.0
 10
6.0735350923985587
 20
233.3760897709616984
 30
0.0
 10
6.0432182321284964
 20
232.876895105833114
 30
0.0
  0
LWPOLYLINE
  5
79
100
AcDbEntity
  8
POCKETS
 62
1
420
16711680
370
-1
 48
1.0
  6
BYLAYER
100
AcDbPolyline
 90
5
 70
0
 10
2.745570658207567
 20
233.0605188163324044
 30
0.0
 10
2.238969032899301
 20
233.0856680299654897
 30
0.0
 10
2.2634292269808292
 20
233.5852072048699881
 30
0.0
 10
2.7710643816164842
 20
233.5597134814611024
 30
0.0
 10
2.745570658207567
 20
233.0605188163324044
 30
0.0
  0
LWPOLYLINE
  5
7A
100
AcDbEntity
  8
POCKETS
 62
1
420
16711680
370
-1
 48
1.0
  6
BYLAYER
100
AcDbPolyline
 90
6
 70
0
 10
-0.5491485826190932
 20
233.2129643921221884
 30
0.0
 10
-1.033529327388506
 20
233.2329459591184104
 30
0.0
 10
-1.04403687555029
 20
233.4835768210101037
 30
0.0
 10
-1.013203250616532
 20
233.7324851340229088
 30
0.0
 10
-0.5281334862955268
 20
233.7125035670266868
 30
0.0
 10
-0.5491485826190932
 20
233.2129643921221884
 30
0.0
  0
LWPOLYLINE
  5
7B
100
AcDbEntity
  8
POCKETS
 62
1
420
16711680
370
-1
 48
1.0
  6
BYLAYER
100
AcDbPolyline
 90
5
 70
0
 10
-3.8457626272126331
 20
233.3380214407362132
 30
0.0
 10
-4.3528810171845933
 20
233.3549024197502888
 30
0.0
 10
-4.3366890577221744
 20
233.8547861044305023
 30
0.0
 10
-3.8285371384228251
 20
233.8375606156407116
 30
0.0
 10
-3.8457626272126331
 20
233.3380214407362132
 30
0.0
  0
LWPOLYLINE
  5
7C
100
AcDbEntity
  8
POCKETS
 62
1
420
16711680
370
-1
 48
1.0
  6
BYLAYER
100
AcDbPolyline
 90
5
 70
0
 10
-7.1456495146762364
 20
233.4384460403807964
 30
0.0
 10
-7.6529401595360946
 20
233.4518819216368968
 30
0.0
 10
-7.6401932978316367
 20
233.9517656063171103
 30
0.0
 10
-7.131869123644389
 20
233.9383297250610951
 30
0.0
 10
-7.1456495146762364
 20
233.4384460403807964
 30
0.0
  0
LWPOLYLINE
  5
7D
100
AcDbEntity
  8
POCKETS
 62
1
420
16711680
370
-1
 48
1.0
  6
BYLAYER
100
AcDbPolyline
 90
5
 70
0
 10
-10.4462254216914303
 20
233.5161329948228968
 30
0.0
 10
-10.9538605763270898
 20
233.5261237783209936
 30
0.0
 10
-10.9442143026047898
 20
234.026007463001207
 30
0.0
 10
-10.4362346381933406
 20
234.0160166795031103
 30
0.0
 10
-10.4462254216914303
 20
233.5161329948228968
 30
0.0
  0
LWPOLYLINE
  5
7E
100
AcDbEntity
  8
POCKETS
 62
1
420
16711680
370
-1
 48
1.0
  6
BYLAYER
100
AcDbPolyline
 90
6
 70
0
 10
-13.7476626031461198
 20
233.5726325980533886
 30
0.0
 10
-14.2217080546416508
 20
233.5790060289056953
 30
0.0
 10
-14.2520249149117095
 20
233.8294646359094884
 30
0.0
 10
-14.2151623689015203
 20
234.079061968473809
 30
0.0
 10
-13.7404278978543992
 20
234.0725162827336874
 30
0.0
 10
-13.7476626031461198
 20
233.5726325980533886
 30
0.0
  0
LWPOLYLINE
  5
7F
100
AcDbEntity
  8
POCKETS
 62
1
420
16711680
370
-1
 48
1.0
  6
BYLAYER
100
AcDbPolyline
 90
5
 70
0
 10
-27.4579458956183515
 20
233.596231517695486
 30
0.0
 10
-27.4631135422552894
 20
234.0961152023756995
 30
0.0
 10
-26.9554783876196389
 20
234.1014551039004914
 30
0.0
 10
-26.9499662312069006
 20
233.6015714192203063
 30
0.0
 10
-27.4579458956183515
 20
233.596231517695486
 30
0.0
  0
LWPOLYLINE
  5
80
100
AcDbEntity
  8
POCKETS
 62
1
420
16711680
370
-1
 48
1.0
  6
BYLAYER
100
AcDbPolyline
 90
6
 70
0
 10
-17.0494442943765989
 20
233.6091506342878006
 30
0.0
 10
-17.5317579804912391
 20
233.6127679869337044
 30
0.0
 10
-17.555356900133269
 20
233.8628820841616971
 30
0.0
 10
-17.528312882733271
 20
234.1126516716138894
 30
0.0
 10
-17.0453101770670408
 20
234.1090343189680993
 30
0.0
 10
-17.0494442943765989
 20
233.6091506342878006
 30
0.0
  0
LWPOLYLINE
  5
81
100
AcDbEntity
  8
POCKETS
 62
1
420
16711680
370
-1
 48
1.0
  6
BYLAYER
100
AcDbPolyline
 90
5
 70
0
 10
-24.1590925374821417
 20
233.6217252411044001
 30
0.0
 10
-24.1611595961369083
 20
234.1216089257846136
 30
0.0
 10
-23.6533521866133611
 20
234.1236759844393873
 30
0.0
 10
-23.6512851279585803
 20
233.6237922997592023
 30
0.0
 10
-24.1590925374821417
 20
233.6217252411044001
 30
0.0
  0
LWPOLYLINE
  5
82
100
AcDbEntity
  8
POCKETS
 62
1
420
16711680
370
-1
 48
1.0
  6
BYLAYER
100
AcDbPolyline
 90
5
 70
0
 10
-20.3515704953828802
 20
233.6260316133017909
 30
0.0
 10
-20.8592056500185308
 20
233.6268928877412918
 30
0.0
 10
-20.8586888853548409
 20
234.1267765724215906
 30
0.0
 10
-20.3608722593293798
 20
234.1259152979820897
 30
0.0
 10
-20.3515704953828802
 20
233.6260316133017909
 30
0.0
  0
LWPOLYLINE
  5
83
100
AcDbEntity
  8
POCKETS
 62
1
420
16711680
370
-1
 48
1.0
  6
BYLAYER
100
AcDbPolyline
 90
5
 70
0
 10
31.8280524015927497
 20
229.3606560791695017
 30
0.0
 10
31.5905129111812997
 20
229.4312805832076947
 30
0.0
 10
31.7314174094819315
 20
229.9108381911158858
 30
0.0
 10
31.9720574878755492
 20
229.8395246675260921
 30
0.0
 10
31.8280524015927497
 20
229.3606560791695017
 30
0.0
  0
LWPOLYLINE
  5
84
100
AcDbEntity
  8
POCKETS
 62
1
420
16711680
370
-1
 48
1.0
  6
BYLAYER
100
AcDbPolyline
 90
5
 70
0
 10
183.7015697086879129
 20
240.0931691245475008
 30
0.0
 10
183.2013415142318991
 20
240.0931691245475008
 30
0.0
 10
183.2013415142318991
 20
240.343110966887707
 30
0.0
 10
183.7015697086879129
 20
240.343110966887707
 30
0.0
 10
183.7015697086879129
 20
240.0931691245475008
 30
0.0
  0
LWPOLYLINE
  5
85
100
AcDbEntity
  8
POCKETS
 62
1
420
16711680
370
-1
 48
1.0
  6
BYLAYER
100
AcDbPolyline
 90
5
 70
0
 10
183.7015697086879129
 20
162.3343843942579099
 30
0.0
 10
183.2013415142318991
 20
162.3343843942579099
 30
0.0
 10
183.2013415142318991
 20
162.8328900398350072
 30
0.0
 10
183.7015697086879129
 20
162.8328900398350072
 30
0.0
 10
183.7015697086879129
 20
162.3343843942579099
 30
0.0
  0
LWPOLYLINE
  5
86
100
AcDbEntity
  8
POCKETS
 62
1
420
16711680
370
-1
 48
1.0
  6
BYLAYER
100
AcDbPolyline
 90
5
 70
0
 10
183.7015697086879129
 20
165.5743265807329863
 30
0.0
 10
183.2013415142318991
 20
165.5743265807329863
 30
0.0
 10
183.2013415142318991
 20
166.072832226310112
 30
0.0
 10
183.7015697086879129
 20
166.072832226310112
 30
0.0
 10
183.7015697086879129
 20
165.5743265807329863
 30
0.0
  0
LWPOLYLINE
  5
87
100
AcDbEntity
  8
POCKETS
 62
1
420
16711680
370
-1
 48
1.0
  6
BYLAYER
100
AcDbPolyline
 90
5
 70
0
 10
183.7015697086879129
 20
168.814268767208091
 30
0.0
 10
183.2013415142318991
 20
168.814268767208091
 30
0.0
 10
183.2013415142318991
 20
169.3127744127851031
 30
0.0
 10
183.7015697086879129
 20
169.3127744127851031
 30
0.0
 10
183.7015697086879129
 20
168.814268767208091
 30
0.0
  0
LWPOLYLINE
  5
88
100
AcDbEntity
  8
POCKETS
 62
1
420
16711680
370
-1
 48
1.0
  6
BYLAYER
100
AcDbPolyline
 90
5
 70
0
 10
183.7015697086879129
 20
172.0542109536831958
 30
0.0
 10
183.2013415142318991
 20
172.0542109536831958
 30
0.0
 10
183.2013415142318991
 20
172.5527165992602079
 30
0.0
 10
183.7015697086879129
 20
172.5527165992602079
 30
0.0
 10
183.7015697086879129
 20
172.0542109536831958
 30
0.0
  0
LWPOLYLINE
  5
89
100
AcDbEntity
  8
POCKETS
 62
1
420
16711680
370
-1
 48
1.0
  6
BYLAYER
100
AcDbPolyline
 90
5
 70
0
 10
183.7015697086879129
 20
175.2941531401581869
 30
0.0
 10
183.2013415142318991
 20
175.2941531401581869
 30
0.0
 10
183.2013415142318991
 20
175.7926587857353127
 30
0.0
 10
183.7015697086879129
 20
175.7926587857353127
 30
0.0
 10
183.7015697086879129
 20
175.2941531401581869
 30
0.0
  0
LWPOLYLINE
  5
8A
100
AcDbEntity
  8
POCKETS
 62
1
420
16711680
370
-1
 48
1.0
  6
BYLAYER
100
AcDbPolyline
 90
5
 70
0
 10
183.7015697086879129
 20
178.5340953266332917
 30
0.0
 10
183.2013415142318991
 20
178.5340953266332917
 30
0.0
 10
183.2013415142318991
 20
179.032600972210389
 30
0.0
 10
183.7015697086879129
 20
179.032600972210389
 30
0.0
 10
183.7015697086879129
 20
178.5340953266332917
 30
0.0
  0
LWPOLYLINE
  5
8B
100
AcDbEntity
  8
POCKETS
 62
1
420
16711680
370
-1
 48
1.0
  6
BYLAYER
100
AcDbPolyline
 90
5
 70
0
 10
183.7015697086879129
 20
181.7740375131083965
 30
0.0
 10
183.2013415142318991
 20
181.7740375131083965
 30
0.0
 10
183.2013415142318991
 20
182.2725431586854086
 30
0.0
 10
183.7015697086879129
 20
182.2725431586854086
 30
0.0
 10
183.7015697086879129
 20
181.7740375131083965
 30
0.0
  0
LWPOLYLINE
  5
8C
100
AcDbEntity
  8
POCKETS
 62
1
420
16711680
370
-1
 48
1.0
  6
BYLAYER
100
AcDbPolyline
 90
5
 70
0
 10
183.7015697086879129
 20
185.0139796995833876
 30
0.0
 10
183.2013415142318991
 20
185.0139796995833876
 30
0.0
 10
183.2013415142318991
 20
185.5124853451605134
 30
0.0
 10
183.7015697086879129
 20
185.5124853451605134
 30
0.0
 10
183.7015697086879129
 20
185.0139796995833876
 30
0.0
  0
LWPOLYLINE
  5
8D
100
AcDbEntity
  8
POCKETS
 62
1
420
16711680
370
-1
 48
1.0
  6
BYLAYER
100
AcDbPolyline
 90
5
 70
0
 10
183.7015697086879129
 20
188.2539218860584924
 30
0.0
 10
183.2013415142318991
 20
188.2539218860584924
 30
0.0
 10
183.2013415142318991
 20
188.7524275316355897
 30
0.0
 10
183.7015697086879129
 20
188.7524275316355897
 30
0.0
 10
183.7015697086879129
 20
188.2539218860584924
 30
0.0
  0
LWPOLYLINE
  5
8E
100
AcDbEntity
  8
POCKETS
 62
1
420
16711680
370
-1
 48
1.0
  6
BYLAYER
100
AcDbPolyline
 90
5
 70
0
 10
183.7015697086879129
 20
191.4938640725335972
 30
0.0
 10
183.2013415142318991
 20
191.4938640725335972
 30
0.0
 10
183.2013415142318991
 20
191.9923697181106093
 30
0.0
 10
183.7015697086879129
 20
191.9923697181106093
 30
0.0
 10
183.7015697086879129
 20
191.4938640725335972
 30
0.0
  0
LWPOLYLINE
  5
8F
100
AcDbEntity
  8
POCKETS
 62
1
420
16711680
370
-1
 48
1.0
  6
BYLAYER
100
AcDbPolyline
 90
5
 70
0
 10
183.7015697086879129
 20
194.7338062590085883
 30
0.0
 10
183.2013415142318991
 20
194.7338062590085883
 30
0.0
 10
183.2013415142318991
 20
195.232311904585714
 30
0.0
 10
183.7015697086879129
 20
195.232311904585714
 30
0.0
 10
183.7015697086879129
 20
194.7338062590085883
 30
0.0
  0
LWPOLYLINE
  5
90
100
AcDbEntity
  8
POCKETS
 62
1
420
16711680
370
-1
 48
1.0
  6
BYLAYER
100
AcDbPolyline
 90
5
 70
0
 10
183.7015697086879129
 20
197.9737484454836931
 30
0.0
 10
183.2013415142318991
 20
197.9737484454836931
 30
0.0
 10
183.2013415142318991
 20
198.4722540910607904
 30
0.0
 10
183.7015697086879129
 20
198.4722540910607904
 30
0.0
 10
183.7015697086879129
 20
197.9737484454836931
 30
0.0
  0
LWPOLYLINE
  5
91
100
AcDbEntity
  8
POCKETS
 62
1
420
16711680
370
-1
 48
1.0
  6
BYLAYER
100
AcDbPolyline
 90
5
 70
0
 10
183.7015697086879129
 20
201.2136906319587979
 30
0.0
 10
183.2013415142318991
 20
201.2136906319587979
 30
0.0
 10
183.2013415142318991
 20
201.7121962775358099
 30
0.0
 10
183.7015697086879129
 20
201.7121962775358099
 30
0.0
 10
183.7015697086879129
 20
201.2136906319587979
 30
0.0
  0
LWPOLYLINE
  5
92
100
AcDbEntity
  8
POCKETS
 62
1
420
16711680
370
-1
 48
1.0
  6
BYLAYER
100
AcDbPolyline
 90
5
 70
0
 10
183.7015697086879129
 20
204.453632818433789
 30
0.0
 10
183.2013415142318991
 20
204.453632818433789
 30
0.0
 10
183.2013415142318991
 20
204.9521384640108863
 30
0.0
 10
183.7015697086879129
 20
204.9521384640108863
 30
0.0
 10
183.7015697086879129
 20
204.453632818433789
 30
0.0
  0
LWPOLYLINE
  5
93
100
AcDbEntity
  8
POCKETS
 62
1
420
16711680
370
-1
 48
1.0
  6
BYLAYER
100
AcDbPolyline
 90
5
 70
0
 10
183.7015697086879129
 20
207.6935750049088938
 30
0.0
 10
183.2013415142318991
 20
207.6935750049088938
 30
0.0
 10
183.2013415142318991
 20
208.1920806504859911
 30
0.0
 10
183.7015697086879129
 20
208.1920806504859911
 30
0.0
 10
183.7015697086879129
 20
207.6935750049088938
 30
0.0
  0
LWPOLYLINE
  5
94
100
AcDbEntity
  8
POCKETS
 62
1
420
16711680
370
-1
 48
1.0
  6
BYLAYER
100
AcDbPolyline
 90
5
 70
0
 10
183.7015697086879129
 20
210.9335171913839986
 30
0.0
 10
183.2013415142318991
 20
210.9335171913839986
 30
0.0
 10
183.2013415142318991
 20
211.4320228369610106
 30
0.0
 10
183.7015697086879129
 20
211.4320228369610106
 30
0.0
 10
183.7015697086879129
 20
210.9335171913839986
 30
0.0
  0
LWPOLYLINE
  5
95
100
AcDbEntity
  8
POCKETS
 62
1
420
16711680
370
-1
 48
1.0
  6
BYLAYER
100
AcDbPolyline
 90
5
 70
0
 10
183.7015697086879129
 20
214.1734593778591034
 30
0.0
 10
183.2013415142318991
 20
214.1734593778591034
 30
0.0
 10
183.2013415142318991
 20
214.671965023436087
 30
0.0
 10
183.7015697086879129
 20
214.671965023436087
 30
0.0
 10
183.7015697086879129
 20
214.1734593778591034
 30
0.0
  0
LWPOLYLINE
  5
96
100
AcDbEntity
  8
POCKETS
 62
1
420
16711680
370
-1
 48
1.0
  6
BYLAYER
100
AcDbPolyline
 90
5
 70
0
 10
183.7015697086879129
 20
217.4134015643340945
 30
0.0
 10
183.2013415142318991
 20
217.4134015643340945
 30
0.0
 10
183.2013415142318991
 20
217.9119072099111918
 30
0.0
 10
183.7015697086879129
 20
217.9119072099111918
 30
0.0
 10
183.7015697086879129
 20
217.4134015643340945
 30
0.0
  0
LWPOLYLINE
  5
97
100
AcDbEntity
  8
POCKETS
 62
1
420
16711680
370
-1
 48
1.0
  6
BYLAYER
100
AcDbPolyline
 90
5
 70
0
 10
183.7015697086879129
 20
220.6533437508091993
 30
0.0
 10
183.2013415142318991
 20
220.6533437508091993
 30
0.0
 10
183.2013415142318991
 20
221.1518493963862966
 30
0.0
 10
183.7015697086879129
 20
221.1518493963862966
 30
0.0
 10
183.7015697086879129
 20
220.6533437508091993
 30
0.0
  0
LWPOLYLINE
  5
98
100
AcDbEntity
  8
POCKETS
 62
1
420
16711680
370
-1
 48
1.0
  6
BYLAYER
100
AcDbPolyline
 90
5
 70
0
 10
183.7015697086879129
 20
223.8932859372843041
 30
0.0
 10
183.2013415142318991
 20
223.8932859372843041
 30
0.0
 10
183.2013415142318991
 20
224.3917915828612877
 30
0.0
 10
183.7015697086879129
 20
224.3917915828612877
 30
0.0
 10
183.7015697086879129
 20
223.8932859372843041
 30
0.0
  0
LWPOLYLINE
  5
99
100
AcDbEntity
  8
POCKETS
 62
1
420
16711680
370
-1
 48
1.0
  6
BYLAYER
100
AcDbPolyline
 90
5
 70
0
 10
183.7015697086879129
 20
227.1332281237594088
 30
0.0
 10
183.2013415142318991
 20
227.1332281237594088
 30
0.0
 10
183.2013415142318991
 20
227.6317337693363925
 30
0.0
 10
183.7015697086879129
 20
227.6317337693363925
 30
0.0
 10
183.7015697086879129
 20
227.1332281237594088
 30
0.0
  0
LWPOLYLINE
  5
9A
100
AcDbEntity
  8
POCKETS
 62
1
420
16711680
370
-1
 48
1.0
  6
BYLAYER
100
AcDbPolyline
 90
5
 70
0
 10
183.7015697086879129
 20
230.3731703102343999
 30
0.0
 10
183.2013415142318991
 20
230.3731703102343999
 30
0.0
 10
183.2013415142318991
 20
230.8716759558114973
 30
0.0
 10
183.7015697086879129
 20
230.8716759558114973
 30
0.0
 10
183.7015697086879129
 20
230.3731703102343999
 30
0.0
  0
LWPOLYLINE
  5
9B
100
AcDbEntity
  8
POCKETS
 62
1
420
16711680
370
-1
 48
1.0
  6
BYLAYER
100
AcDbPolyline
 90
5
 70
0
 10
183.7015697086879129
 20
233.6131124967095047
 30
0.0
 10
183.2013415142318991
 20
233.6131124967095047
 30
0.0
 10
183.2013415142318991
 20
234.1116181422864884
 30
0.0
 10
183.7015697086879129
 20
234.1116181422864884
 30
0.0
 10
183.7015697086879129
 20
233.6131124967095047
 30
0.0
  0
LWPOLYLINE
  5
9C
100
AcDbEntity
  8
POCKETS
 62
1
420
16711680
370
-1
 48
1.0
  6
BYLAYER
100
AcDbPolyline
 90
5
 70
0
 10
183.7015697086879129
 20
236.8530546831846095
 30
0.0
 10
183.2013415142318991
 20
236.8530546831846095
 30
0.0
 10
183.2013415142318991
 20
237.3515603287615932
 30
0.0
 10
183.7015697086879129
 20
237.3515603287615932
 30
0.0
 10
183.7015697086879129
 20
236.8530546831846095
 30
0.0
  0
LWPOLYLINE
  5
9D
100
AcDbEntity
  8
POCKETS
 62
1
420
16711680
370
-1
 48
1.0
  6
BYLAYER
100
AcDbPolyline
 90
5
 70
0
 10
183.7015697086879129
 20
159.3430060110198099
 30
0.0
 10
183.2013415142318991
 20
159.3430060110198099
 30
0.0
 10
183.2013415142318991
 20
159.5929478533599024
 30
0.0
 10
183.7015697086879129
 20
159.5929478533599024
 30
0.0
 10
183.7015697086879129
 20
159.3430060110198099
 30
0.0
  0
LWPOLYLINE
  5
9E
100
AcDbEntity
  8
POCKETS
 62
1
420
16711680
370
-1
 48
1.0
  6
BYLAYER
100
AcDbPolyline
 90
5
 70
0
 10
183.7015697086879129
 20
84.0541841183008671
 30
0.0
 10
183.2013415142318991
 20
84.0541841183008671
 30
0.0
 10
183.2013415142318991
 20
84.5526897638779218
 30
0.0
 10
183.7015697086879129
 20
84.5526897638779218
 30
0.0
 10
183.7015697086879129
 20
84.0541841183008671
 30
0.0
  0
LWPOLYLINE
  5
9F
100
AcDbEntity
  8
POCKETS
 62
1
420
16711680
370
-1
 48
1.0
  6
BYLAYER
100
AcDbPolyline
 90
5
 70
0
 10
183.7015697086879129
 20
87.2942985596638295
 30
0.0
 10
183.2013415142318991
 20
87.2942985596638295
 30
0.0
 10
183.2013415142318991
 20
87.7928042052408983
 30
0.0
 10
183.7015697086879129
 20
87.7928042052408983
 30
0.0
 10
183.7015697086879129
 20
87.2942985596638295
 30
0.0
  0
LWPOLYLINE
  5
A0
100
AcDbEntity
  8
POCKETS
 62
1
420
16711680
370
-1
 48
1.0
  6
BYLAYER
100
AcDbPolyline
 90
5
 70
0
 10
183.7015697086879129
 20
90.5340684912510056
 30
0.0
 10
183.2013415142318991
 20
90.5340684912510056
 30
0.0
 10
183.2013415142318991
 20
91.0325741368280603
 30
0.0
 10
183.7015697086879129
 20
91.0325741368280603
 30
0.0
 10
183.7015697086879129
 20
90.5340684912510056
 30
0.0
  0
LWPOLYLINE
  5
A1
100
AcDbEntity
  8
POCKETS
 62
1
420
16711680
370
-1
 48
1.0
  6
BYLAYER
100
AcDbPolyline
 90
5
 70
0
 10
183.7015697086879129
 20
93.7741829326139822
 30
0.0
 10
183.2013415142318991
 20
93.7741829326139822
 30
0.0
 10
183.2013415142318991
 20
94.2726885781910369
 30
0.0
 10
183.7015697086879129
 20
94.2726885781910369
 30
0.0
 10
183.7015697086879129
 20
93.7741829326139822
 30
0.0
  0
LWPOLYLINE
  5
A2
100
AcDbEntity
  8
POCKETS
 62
1
420
16711680
370
-1
 48
1.0
  6
BYLAYER
100
AcDbPolyline
 90
5
 70
0
 10
91.2012116720802908
 20
93.7738384228381818
 30
0.0
 10
90.7013279874000489
 20
93.7738384228381818
 30
0.0
 10
90.7013279874000489
 20
94.2723440684152365
 30
0.0
 10
91.2012116720802908
 20
94.2723440684152365
 30
0.0
 10
91.2012116720802908
 20
93.7738384228381818
 30
0.0
  0
LWPOLYLINE
  5
A3
100
AcDbEntity
  8
POCKETS
 62
1
420
16711680
370
-1
 48
1.0
  6
BYLAYER
100
AcDbPolyline
 90
5
 70
0
 10
91.2012116720802908
 20
97.0139528642011442
 30
0.0
 10
90.7013279874000489
 20
97.0139528642011442
 30
0.0
 10
90.7013279874000489
 20
97.5121140000024127
 30
0.0
 10
91.2012116720802908
 20
97.5121140000024127
 30
0.0
 10
91.2012116720802908
 20
97.0139528642011442
 30
0.0
  0
LWPOLYLINE
  5
A4
100
AcDbEntity
  8
POCKETS
 62
1
420
16711680
370
-1
 48
1.0
  6
BYLAYER
100
AcDbPolyline
 90
5
 70
0
 10
91.2012116720802908
 20
100.2537227957883061
 30
0.0
 10
90.7013279874000489
 20
100.2537227957883061
 30
0.0
 10
90.7013279874000489
 20
100.7522284413654035
 30
0.0
 10
91.2012116720802908
 20
100.7522284413654035
 30
0.0
 10
91.2012116720802908
 20
100.2537227957883061
 30
0.0
  0
LWPOLYLINE
  5
A5
100
AcDbEntity
  8
POCKETS
 62
1
420
16711680
370
-1
 48
1.0
  6
BYLAYER
100
AcDbPolyline
 90
5
 70
0
 10
91.2012116720802908
 20
103.4938372371512969
 30
0.0
 10
90.7013279874000489
 20
103.4938372371512969
 30
0.0
 10
90.7013279874000489
 20
103.9923428827282947
 30
0.0
 10
91.2012116720802908
 20
103.9923428827282947
 30
0.0
 10
91.2012116720802908
 20
103.4938372371512969
 30
0.0
  0
LWPOLYLINE
  5
A6
100
AcDbEntity
  8
POCKETS
 62
1
420
16711680
370
-1
 48
1.0
  6
BYLAYER
100
AcDbPolyline
 90
5
 70
0
 10
91.2012116720802908
 20
106.7336071687385015
 30
0.0
 10
90.7013279874000489
 20
106.7336071687385015
 30
0.0
 10
90.7013279874000489
 20
107.2321128143154993
 30
0.0
 10
91.2012116720802908
 20
107.2321128143154993
 30
0.0
 10
91.2012116720802908
 20
106.7336071687385015
 30
0.0
  0
LWPOLYLINE
  5
A7
100
AcDbEntity
  8
POCKETS
 62
1
420
16711680
370
-1
 48
1.0
  6
BYLAYER
100
AcDbPolyline
 90
5
 70
0
 10
-30.2987735068335589
 20
240.0931691245475008
 30
0.0
 10
-30.7986571915138008
 20
240.0931691245475008
 30
0.0
 10
-30.7986571915138008
 20
240.343110966887707
 30
0.0
 10
-30.2987735068335589
 20
240.343110966887707
 30
0.0
 10
-30.2987735068335589
 20
240.0931691245475008
 30
0.0
  0
LWPOLYLINE
  5
A8
100
AcDbEntity
  8
POCKETS
 62
1
420
16711680
370
-1
 48
1.0
  6
BYLAYER
100
AcDbPolyline
 90
5
 70
0
 10
-30.2987735068335589
 20
162.3343843942579099
 30
0.0
 10
-30.7986571915138008
 20
162.3343843942579099
 30
0.0
 10
-30.7986571915138008
 20
162.8328900398350072
 30
0.0
 10
-30.2987735068335589
 20
162.8328900398350072
 30
0.0
 10
-30.2987735068335589
 20
162.3343843942579099
 30
0.0
  0
LWPOLYLINE
  5
A9
100
AcDbEntity
  8
POCKETS
 62
1
420
16711680
370
-1
 48
1.0
  6
BYLAYER
100
AcDbPolyline
 90
5
 70
0
 10
-30.2987735068335589
 20
165.5743265807329863
 30
0.0
 10
-30.7986571915138008
 20
165.5743265807329863
 30
0.0
 10
-30.7986571915138008
 20
166.072832226310112
 30
0.0
 10
-30.2987735068335589
 20
166.072832226310112
 30
0.0
 10
-30.2987735068335589
 20
165.5743265807329863
 30
0.0
  0
LWPOLYLINE
  5
AA
100
AcDbEntity
  8
POCKETS
 62
1
420
16711680
370
-1
 48
1.0
  6
BYLAYER
100
AcDbPolyline
 90
5
 70
0
 10
-30.2987735068335589
 20
168.814268767208091
 30
0.0
 10
-30.7986571915138008
 20
168.814268767208091
 30
0.0
 10
-30.7986571915138008
 20
169.3127744127851031
 30
0.0
 10
-30.2987735068335589
 20
169.3127744127851031
 30
0.0
 10
-30.2987735068335589
 20
168.814268767208091
 30
0.0
  0
LWPOLYLINE
  5
AB
100
AcDbEntity
  8
POCKETS
 62
1
420
16711680
370
-1
 48
1.0
  6
BYLAYER
100
AcDbPolyline
 90
5
 70
0
 10
-30.2987735068335589
 20
172.0542109536831958
 30
0.0
 10
-30.7986571915138008
 20
172.0542109536831958
 30
0.0
 10
-30.7986571915138008
 20
172.5527165992602079
 30
0.0
 10
-30.2987735068335589
 20
172.5527165992602079
 30
0.0
 10
-30.2987735068335589
 20
172.0542109536831958
 30
0.0
  0
LWPOLYLINE
  5
AC
100
AcDbEntity
  8
POCKETS
 62
1
420
16711680
370
-1
 48
1.0
  6
BYLAYER
100
AcDbPolyline
 90
5
 70
0
 10
-30.2987735068335589
 20
175.2941531401581869
 30
0.0
 10
-30.7986571915138008
 20
175.2941531401581869
 30
0.0
 10
-30.7986571915138008
 20
175.7926587857353127
 30
0.0
 10
-30.2987735068335589
 20
175.7926587857353127
 30
0.0
 10
-30.2987735068335589
 20
175.2941531401581869
 30
0.0
  0
LWPOLYLINE
  5
AD
100
AcDbEntity
  8
POCKETS
 62
1
420
16711680
370
-1
 48
1.0
  6
BYLAYER
100
AcDbPolyline
 90
5
 70
0
 10
-30.2987735068335589
 20
178.5340953266332917
 30
0.0
 10
-30.7986571915138008
 20
178.5340953266332917
 30
0.0
 10
-30.7986571915138008
 20
179.032600972210389
 30
0.0
 10
-30.2987735068335589
 20
179.032600972210389
 30
0.0
 10
-30.2987735068335589
 20
178.5340953266332917
 30
0.0
  0
LWPOLYLINE
  5
AE
100
AcDbEntity
  8
POCKETS
 62
1
420
16711680
370
-1
 48
1.0
  6
BYLAYER
100
AcDbPolyline
 90
5
 70
0
 10
-30.2987735068335589
 20
181.7740375131083965
 30
0.0
 10
-30.7986571915138008
 20
181.7740375131083965
 30
0.0
 10
-30.7986571915138008
 20
182.2725431586854086
 30
0.0
 10
-30.2987735068335589
 20
182.2725431586854086
 30
0.0
 10
-30.2987735068335589
 20
181.7740375131083965
 30
0.0
  0
LWPOLYLINE
  5
AF
100
AcDbEntity
  8
POCKETS
 62
1
420
16711680
370
-1
 48
1.0
  6
BYLAYER
100
AcDbPolyline
 90
5
 70
0
 10
-30.2987735068335589
 20
185.0139796995833876
 30
0.0
 10
-30.7986571915138008
 20
185.0139796995833876
 30
0.0
 10
-30.7986571915138008
 20
185.5124853451605134
 30
0.0
 10
-30.2987735068335589
 20
185.5124853451605134
 30
0.0
 10
-30.2987735068335589
 20
185.0139796995833876
 30
0.0
  0
LWPOLYLINE
  5
B0
100
AcDbEntity
  8
POCKETS
 62
1
420
16711680
370
-1
 48
1.0
  6
BYLAYER
100
AcDbPolyline
 90
5
 70
0
 10
-30.2987735068335589
 20
188.2539218860584924
 30
0.0
 10
-30.7986571915138008
 20
188.2539218860584924
 30
0.0
 10
-30.7986571915138008
 20
188.7524275316355897
 30
0.0
 10
-30.2987735068335589
 20
188.7524275316355897
 30
0.0
 10
-30.2987735068335589
 20
188.2539218860584924
 30
0.0
  0
LWPOLYLINE
  5
B1
100
AcDbEntity
  8
POCKETS
 62
1
420
16711680
370
-1
 48
1.0
  6
BYLAYER
100
AcDbPolyline
 90
5
 70
0
 10
-30.2987735068335589
 20
191.4938640725335972
 30
0.0
 10
-30.7986571915138008
 20
191.4938640725335972
 30
0.0
 10
-30.7986571915138008
 20
191.9923697181106093
 30
0.0
 10
-30.2987735068335589
 20
191.9923697181106093
 30
0.0
 10
-30.2987735068335589
 20
191.4938640725335972
 30
0.0
  0
LWPOLYLINE
  5
B2
100
AcDbEntity
  8
POCKETS
 62
1
420
16711680
370
-1
 48
1.0
  6
BYLAYER
100
AcDbPolyline
 90
5
 70
0
 10
-30.2987735068335589
 20
194.7338062590085883
 30
0.0
 10
-30.7986571915138008
 20
194.7338062590085883
 30
0.0
 10
-30.7986571915138008
 20
195.232311904585714
 30
0.0
 10
-30.2987735068335589
 20
195.232311904585714
 30
0.0
 10
-30.2987735068335589
 20
194.7338062590085883
 30
0.0
  0
LWPOLYLINE
  5
B3
100
AcDbEntity
  8
POCKETS
 62
1
420
16711680
370
-1
 48
1.0
  6
BYLAYER
100
AcDbPolyline
 90
5
 70
0
 10
-30.2987735068335589
 20
197.9737484454836931
 30
0.0
 10
-30.7986571915138008
 20
197.9737484454836931
 30
0.0
 10
-30.7986571915138008
 20
198.4722540910607904
 30
0.0
 10
-30.2987735068335589
 20
198.4722540910607904
 30
0.0
 10
-30.2987735068335589
 20
197.9737484454836931
 30
0.0
  0
LWPOLYLINE
  5
B4
100
AcDbEntity
  8
POCKETS
 62
1
420
16711680
370
-1
 48
1.0
  6
BYLAYER
100
AcDbPolyline
 90
5
 70
0
 10
-30.2987735068335589
 20
201.2136906319587979
 30
0.0
 10
-30.7986571915138008
 20
201.2136906319587979
 30
0.0
 10
-30.7986571915138008
 20
201.7121962775358099
 30
0.0
 10
-30.2987735068335589
 20
201.7121962775358099
 30
0.0
 10
-30.2987735068335589
 20
201.2136906319587979
 30
0.0
  0
LWPOLYLINE
  5
B5
100
AcDbEntity
  8
POCKETS
 62
1
420
16711680
370
-1
 48
1.0
  6
BYLAYER
100
AcDbPolyline
 90
5
 70
0
 10
-30.2987735068335589
 20
204.453632818433789
 30
0.0
 10
-30.7986571915138008
 20
204.453632818433789
 30
0.0
 10
-30.7986571915138008
 20
204.9521384640108863
 30
0.0
 10
-30.2987735068335589
 20
204.9521384640108863
 30
0.0
 10
-30.2987735068335589
 20
204.453632818433789
 30
0.0
  0
LWPOLYLINE
  5
B6
100
AcDbEntity
  8
POCKETS
 62
1
420
16711680
370
-1
 48
1.0
  6
BYLAYER
100
AcDbPolyline
 90
5
 70
0
 10
-30.2987735068335589
 20
207.6935750049088938
 30
0.0
 10
-30.7986571915138008
 20
207.6935750049088938
 30
0.0
 10
-30.7986571915138008
 20
208.1920806504859911
 30
0.0
 10
-30.2987735068335589
 20
208.1920806504859911
 30
0.0
 10
-30.2987735068335589
 20
207.6935750049088938
 30
0.0
  0
LWPOLYLINE
  5
B7
100
AcDbEntity
  8
POCKETS
 62
1
420
16711680
370
-1
 48
1.0
  6
BYLAYER
100
AcDbPolyline
 90
5
 70
0
 10
-30.2987735068335589
 20
210.9335171913839986
 30
0.0
 10
-30.7986571915138008
 20
210.9335171913839986
 30
0.0
 10
-30.7986571915138008
 20
211.4320228369610106
 30
0.0
 10
-30.2987735068335589
 20
211.4320228369610106
 30
0.0
 10
-30.2987735068335589
 20
210.9335171913839986
 30
0.0
  0
LWPOLYLINE
  5
B8
100
AcDbEntity
  8
POCKETS
 62
1
420
16711680
370
-1
 48
1.0
  6
BYLAYER
100
AcDbPolyline
 90
5
 70
0
 10
-30.2987735068335589
 20
214.1734593778591034
 30
0.0
 10
-30.7986571915138008
 20
214.1734593778591034
 30
0.0
 10
-30.7986571915138008
 20
214.671965023436087
 30
0.0
 10
-30.2987735068335589
 20
214.671965023436087
 30
0.0
 10
-30.2987735068335589
 20
214.1734593778591034
 30
0.0
  0
LWPOLYLINE
  5
B9
100
AcDbEntity
  8
POCKETS
 62
1
420
16711680
370
-1
 48
1.0
  6
BYLAYER
100
AcDbPolyline
 90
5
 70
0
 10
-30.2987735068335589
 20
217.4134015643340945
 30
0.0
 10
-30.7986571915138008
 20
217.4134015643340945
 30
0.0
 10
-30.7986571915138008
 20
217.9119072099111918
 30
0.0
 10
-30.2987735068335589
 20
217.9119072099111918
 30
0.0
 10
-30.2987735068335589
 20
217.4134015643340945
 30
0.0
  0
LWPOLYLINE
  5
BA
100
AcDbEntity
  8
POCKETS
 62
1
420
16711680
370
-1
 48
1.0
  6
BYLAYER
100
AcDbPolyline
 90
5
 70
0
 10
-30.2987735068335589
 20
220.6533437508091993
 30
0.0
 10
-30.7986571915138008
 20
220.6533437508091993
 30
0.0
 10
-30.7986571915138008
 20
221.1518493963862966
 30
0.0
 10
-30.2987735068335589
 20
221.1518493963862966
 30
0.0
 10
-30.2987735068335589
 20
220.6533437508091993
 30
0.0
  0
LWPOLYLINE
  5
BB
100
AcDbEntity
  8
POCKETS
 62
1
420
16711680
370
-1
 48
1.0
  6
BYLAYER
100
AcDbPolyline
 90
5
 70
0
 10
-30.2987735068335589
 20
223.8932859372843041
 30
0.0
 10
-30.7986571915138008
 20
223.8932859372843041
 30
0.0
 10
-30.7986571915138008
 20
224.3917915828612877
 30
0.0
 10
-30.2987735068335589
 20
224.3917915828612877
 30
0.0
 10
-30.2987735068335589
 20
223.8932859372843041
 30
0.0
  0
LWPOLYLINE
  5
BC
100
AcDbEntity
  8
POCKETS
 62
1
420
16711680
370
-1
 48
1.0
  6
BYLAYER
100
AcDbPolyline
 90
5
 70
0
 10
-30.2987735068335589
 20
227.1332281237594088
 30
0.0
 10
-30.7986571915138008
 20
227.1332281237594088
 30
0.0
 10
-30.7986571915138008
 20
227.6317337693363925
 30
0.0
 10
-30.2987735068335589
 20
227.6317337693363925
 30
0.0
 10
-30.2987735068335589
 20
227.1332281237594088
 30
0.0
  0
LWPOLYLINE
  5
BD
100
AcDbEntity
  8
POCKETS
 62
1
420
16711680
370
-1
 48
1.0
  6
BYLAYER
100
AcDbPolyline
 90
5
 70
0
 10
-30.2987735068335589
 20
230.3731703102343999
 30
0.0
 10
-30.7986571915138008
 20
230.3731703102343999
 30
0.0
 10
-30.7986571915138008
 20
230.8716759558114973
 30
0.0
 10
-30.2987735068335589
 20
230.8716759558114973
 30
0.0
 10
-30.2987735068335589
 20
230.3731703102343999
 30
0.0
  0
LWPOLYLINE
  5
BE
100
AcDbEntity
  8
POCKETS
 62
1
420
16711680
370
-1
 48
1.0
  6
BYLAYER
100
AcDbPolyline
 90
5
 70
0
 10
-30.2987735068335589
 20
233.6131124967095047
 30
0.0
 10
-30.7986571915138008
 20
233.6131124967095047
 30
0.0
 10
-30.7986571915138008
 20
234.1116181422864884
 30
0.0
 10
-30.2987735068335589
 20
234.1116181422864884
 30
0.0
 10
-30.2987735068335589
 20
233.6131124967095047
 30
0.0
  0
LWPOLYLINE
  5
BF
100
AcDbEntity
  8
POCKETS
 62
1
420
16711680
370
-1
 48
1.0
  6
BYLAYER
100
AcDbPolyline
 90
5
 70
0
 10
-30.2987735068335589
 20
236.8530546831846095
 30
0.0
 10
-30.7986571915138008
 20
236.8530546831846095
 30
0.0
 10
-30.7986571915138008
 20
237.3515603287615932
 30
0.0
 10
-30.2987735068335589
 20
237.3515603287615932
 30
0.0
 10
-30.2987735068335589
 20
236.8530546831846095
 30
0.0
  0
LWPOLYLINE
  5
C0
100
AcDbEntity
  8
POCKETS
 62
1
420
16711680
370
-1
 48
1.0
  6
BYLAYER
100
AcDbPolyline
 90
5
 70
0
 10
-30.2987735068335589
 20
159.3430060110198099
 30
0.0
 10
-30.7986571915138008
 20
159.3430060110198099
 30
0.0
 10
-30.7986571915138008
 20
159.5929478533599024
 30
0.0
 10
-30.2987735068335589
 20
159.5929478533599024
 30
0.0
 10
-30.2987735068335589
 20
159.3430060110198099
 30
0.0
  0
LWPOLYLINE
  5
C1
100
AcDbEntity
  8
POCKETS
 62
1
420
16711680
370
-1
 48
1.0
  6
BYLAYER
100
AcDbPolyline
 90
5
 70
0
 10
-30.2987735068335589
 20
84.0541841183008671
 30
0.0
 10
-30.7986571915138008
 20
84.0541841183008671
 30
0.0
 10
-30.7986571915138008
 20
84.5523452541021214
 30
0.0
 10
-30.2987735068335589
 20
84.5523452541021214
 30
0.0
 10
-30.2987735068335589
 20
84.0541841183008671
 30
0.0
  0
LWPOLYLINE
  5
C2
100
AcDbEntity
  8
POCKETS
 62
1
420
16711680
370
-1
 48
1.0
  6
BYLAYER
100
AcDbPolyline
 90
5
 70
0
 10
-30.2987735068335589
 20
87.2939540498880433
 30
0.0
 10
-30.7986571915138008
 20
87.2939540498880433
 30
0.0
 10
-30.7986571915138008
 20
87.792459695465098
 30
0.0
 10
-30.2987735068335589
 20
87.792459695465098
 30
0.0
 10
-30.2987735068335589
 20
87.2939540498880433
 30
0.0
  0
LWPOLYLINE
  5
C3
100
AcDbEntity
  8
POCKETS
 62
1
420
16711680
370
-1
 48
1.0
  6
BYLAYER
100
AcDbPolyline
 90
5
 70
0
 10
-30.2987735068335589
 20
90.5340684912510056
 30
0.0
 10
-30.7986571915138008
 20
90.5340684912510056
 30
0.0
 10
-30.7986571915138008
 20
91.0322296270522742
 30
0.0
 10
-30.2987735068335589
 20
91.0322296270522742
 30
0.0
 10
-30.2987735068335589
 20
90.5340684912510056
 30
0.0
  0
LWPOLYLINE
  5
C4
100
AcDbEntity
  8
POCKETS
 62
1
420
16711680
370
-1
 48
1.0
  6
BYLAYER
100
AcDbPolyline
 90
5
 70
0
 10
-30.2987735068335589
 20
93.7738384228381818
 30
0.0
 10
-30.7986571915138008
 20
93.7738384228381818
 30
0.0
 10
-30.7986571915138008
 20
94.2723440684152365
 30
0.0
 10
-30.2987735068335589
 20
94.2723440684152365
 30
0.0
 10
-30.2987735068335589
 20
93.7738384228381818
 30
0.0
  0
LWPOLYLINE
  5
C5
100
AcDbEntity
  8
POCKETS
 62
1
420
16711680
370
-1
 48
1.0
  6
BYLAYER
100
AcDbPolyline
 90
5
 70
0
 10
62.2012400199982878
 20
93.7738384228381818
 30
0.0
 10
61.701356335318053
 20
93.7738384228381818
 30
0.0
 10
61.701356335318053
 20
94.2723440684152365
 30
0.0
 10
62.2012400199982878
 20
94.2723440684152365
 30
0.0
 10
62.2012400199982878
 20
93.7738384228381818
 30
0.0
  0
LWPOLYLINE
  5
C6
100
AcDbEntity
  8
POCKETS
 62
1
420
16711680
370
-1
 48
1.0
  6
BYLAYER
100
AcDbPolyline
 90
5
 70
0
 10
62.2012400199982878
 20
97.0139528642011442
 30
0.0
 10
61.701356335318053
 20
97.0139528642011442
 30
0.0
 10
61.701356335318053
 20
97.5121140000024127
 30
0.0
 10
62.2012400199982878
 20
97.5121140000024127
 30
0.0
 10
62.2012400199982878
 20
97.0139528642011442
 30
0.0
  0
LWPOLYLINE
  5
C7
100
AcDbEntity
  8
POCKETS
 62
1
420
16711680
370
-1
 48
1.0
  6
BYLAYER
100
AcDbPolyline
 90
5
 70
0
 10
62.2012400199982878
 20
100.2537227957883061
 30
0.0
 10
61.701356335318053
 20
100.2537227957883061
 30
0.0
 10
61.701356335318053
 20
100.7522284413654035
 30
0.0
 10
62.2012400199982878
 20
100.7522284413654035
 30
0.0
 10
62.2012400199982878
 20
100.2537227957883061
 30
0.0
  0
LWPOLYLINE
  5
C8
100
AcDbEntity
  8
POCKETS
 62
1
420
16711680
370
-1
 48
1.0
  6
BYLAYER
100
AcDbPolyline
 90
5
 70
0
 10
62.2012400199982878
 20
103.4938372371512969
 30
0.0
 10
61.701356335318053
 20
103.4938372371512969
 30
0.0
 10
61.701356335318053
 20
103.9923428827282947
 30
0.0
 10
62.2012400199982878
 20
103.9923428827282947
 30
0.0
 10
62.2012400199982878
 20
103.4938372371512969
 30
0.0
  0
LWPOLYLINE
  5
C9
100
AcDbEntity
  8
POCKETS
 62
1
420
16711680
370
-1
 48
1.0
  6
BYLAYER
100
AcDbPolyline
 90
5
 70
0
 10
62.2012400199982878
 20
106.7336071687385015
 30
0.0
 10
61.701356335318053
 20
106.7336071687385015
 30
0.0
 10
61.701356335318053
 20
107.2321128143154993
 30
0.0
 10
62.2012400199982878
 20
107.2321128143154993
 30
0.0
 10
62.2012400199982878
 20
106.7336071687385015
 30
0.0
  0
LWPOLYLINE
  5
CA
100
AcDbEntity
  8
POCKETS
 62
1
420
16711680
370
-1
 48
1.0
  6
BYLAYER
100
AcDbPolyline
 90
5
 70
0
 10
62.2012400199982878
 20
162.3343843942579099
 30
0.0
 10
61.701356335318053
 20
162.3343843942579099
 30
0.0
 10
61.701356335318053
 20
162.8328900398350072
 30
0.0
 10
62.2012400199982878
 20
162.8328900398350072
 30
0.0
 10
62.2012400199982878
 20
162.3343843942579099
 30
0.0
  0
LWPOLYLINE
  5
CB
100
AcDbEntity
  8
POCKETS
 62
1
420
16711680
370
-1
 48
1.0
  6
BYLAYER
100
AcDbPolyline
 90
5
 70
0
 10
62.2012400199982878
 20
165.5743265807329863
 30
0.0
 10
61.701356335318053
 20
165.5743265807329863
 30
0.0
 10
61.701356335318053
 20
166.072832226310112
 30
0.0
 10
62.2012400199982878
 20
166.072832226310112
 30
0.0
 10
62.2012400199982878
 20
165.5743265807329863
 30
0.0
  0
LWPOLYLINE
  5
CC
100
AcDbEntity
  8
POCKETS
 62
1
420
16711680
370
-1
 48
1.0
  6
BYLAYER
100
AcDbPolyline
 90
5
 70
0
 10
62.2012400199982878
 20
168.814268767208091
 30
0.0
 10
61.701356335318053
 20
168.814268767208091
 30
0.0
 10
61.701356335318053
 20
169.3127744127851031
 30
0.0
 10
62.2012400199982878
 20
169.3127744127851031
 30
0.0
 10
62.2012400199982878
 20
168.814268767208091
 30
0.0
  0
LWPOLYLINE
  5
CD
100
AcDbEntity
  8
POCKETS
 62
1
420
16711680
370
-1
 48
1.0
  6
BYLAYER
100
AcDbPolyline
 90
5
 70
0
 10
62.2012400199982878
 20
172.0542109536831958
 30
0.0
 10
61.701356335318053
 20
172.0542109536831958
 30
0.0
 10
61.701356335318053
 20
172.5527165992602079
 30
0.0
 10
62.2012400199982878
 20
172.5527165992602079
 30
0.0
 10
62.2012400199982878
 20
172.0542109536831958
 30
0.0
  0
LWPOLYLINE
  5
CE
100
AcDbEntity
  8
POCKETS
 62
1
420
16711680
370
-1
 48
1.0
  6
BYLAYER
100
AcDbPolyline
 90
5
 70
0
 10
62.2012400199982878
 20
175.2941531401581869
 30
0.0
 10
61.701356335318053
 20
175.2941531401581869
 30
0.0
 10
61.701356335318053
 20
175.7926587857353127
 30
0.0
 10
62.2012400199982878
 20
175.7926587857353127
 30
0.0
 10
62.2012400199982878
 20
175.2941531401581869
 30
0.0
  0
LWPOLYLINE
  5
CF
100
AcDbEntity
  8
POCKETS
 62
1
420
16711680
370
-1
 48
1.0
  6
BYLAYER
100
AcDbPolyline
 90
5
 70
0
 10
62.2012400199982878
 20
178.5340953266332917
 30
0.0
 10
61.701356335318053
 20
178.5340953266332917
 30
0.0
 10
61.701356335318053
 20
179.032600972210389
 30
0.0
 10
62.2012400199982878
 20
179.032600972210389
 30
0.0
 10
62.2012400199982878
 20
178.5340953266332917
 30
0.0
  0
LWPOLYLINE
  5
D0
100
AcDbEntity
  8
POCKETS
 62
1
420
16711680
370
-1
 48
1.0
  6
BYLAYER
100
AcDbPolyline
 90
5
 70
0
 10
62.2012400199982878
 20
181.7740375131083965
 30
0.0
 10
61.701356335318053
 20
181.7740375131083965
 30
0.0
 10
61.701356335318053
 20
182.2725431586854086
 30
0.0
 10
62.2012400199982878
 20
182.2725431586854086
 30
0.0
 10
62.2012400199982878
 20
181.7740375131083965
 30
0.0
  0
LWPOLYLINE
  5
D1
100
AcDbEntity
  8
POCKETS
 62
1
420
16711680
370
-1
 48
1.0
  6
BYLAYER
100
AcDbPolyline
 90
5
 70
0
 10
62.2012400199982878
 20
185.0139796995833876
 30
0.0
 10
61.701356335318053
 20
185.0139796995833876
 30
0.0
 10
61.701356335318053
 20
185.5124853451605134
 30
0.0
 10
62.2012400199982878
 20
185.5124853451605134
 30
0.0
 10
62.2012400199982878
 20
185.0139796995833876
 30
0.0
  0
LWPOLYLINE
  5
D2
100
AcDbEntity
  8
POCKETS
 62
1
420
16711680
370
-1
 48
1.0
  6
BYLAYER
100
AcDbPolyline
 90
5
 70
0
 10
62.2012400199982878
 20
188.2539218860584924
 30
0.0
 10
61.701356335318053
 20
188.2539218860584924
 30
0.0
 10
61.701356335318053
 20
188.7524275316355897
 30
0.0
 10
62.2012400199982878
 20
188.7524275316355897
 30
0.0
 10
62.2012400199982878
 20
188.2539218860584924
 30
0.0
  0
LWPOLYLINE
  5
D3
100
AcDbEntity
  8
POCKETS
 62
1
420
16711680
370
-1
 48
1.0
  6
BYLAYER
100
AcDbPolyline
 90
5
 70
0
 10
62.2012400199982878
 20
191.4938640725335972
 30
0.0
 10
61.701356335318053
 20
191.4938640725335972
 30
0.0
 10
61.701356335318053
 20
191.9923697181106093
 30
0.0
 10
62.2012400199982878
 20
191.9923697181106093
 30
0.0
 10
62.2012400199982878
 20
191.4938640725335972
 30
0.0
  0
LWPOLYLINE
  5
D4
100
AcDbEntity
  8
POCKETS
 62
1
420
16711680
370
-1
 48
1.0
  6
BYLAYER
100
AcDbPolyline
 90
5
 70
0
 10
62.2012400199982878
 20
194.7338062590085883
 30
0.0
 10
61.701356335318053
 20
194.7338062590085883
 30
0.0
 10
61.701356335318053
 20
195.232311904585714
 30
0.0
 10
62.2012400199982878
 20
195.232311904585714
 30
0.0
 10
62.2012400199982878
 20
194.7338062590085883
 30
0.0
  0
LWPOLYLINE
  5
D5
100
AcDbEntity
  8
POCKETS
 62
1
420
16711680
370
-1
 48
1.0
  6
BYLAYER
100
AcDbPolyline
 90
5
 70
0
 10
62.2012400199982878
 20
197.9737484454836931
 30
0.0
 10
61.701356335318053
 20
197.9737484454836931
 30
0.0
 10
61.701356335318053
 20
198.4722540910607904
 30
0.0
 10
62.2012400199982878
 20
198.4722540910607904
 30
0.0
 10
62.2012400199982878
 20
197.9737484454836931
 30
0.0
  0
LWPOLYLINE
  5
D6
100
AcDbEntity
  8
POCKETS
 62
1
420
16711680
370
-1
 48
1.0
  6
BYLAYER
100
AcDbPolyline
 90
5
 70
0
 10
62.2012400199982878
 20
201.2136906319587979
 30
0.0
 10
61.701356335318053
 20
201.2136906319587979
 30
0.0
 10
61.701356335318053
 20
201.7121962775358099
 30
0.0
 10
62.2012400199982878
 20
201.7121962775358099
 30
0.0
 10
62.2012400199982878
 20
201.2136906319587979
 30
0.0
  0
LWPOLYLINE
  5
D7
100
AcDbEntity
  8
POCKETS
 62
1
420
16711680
370
-1
 48
1.0
  6
BYLAYER
100
AcDbPolyline
 90
5
 70
0
 10
62.2012400199982878
 20
204.453632818433789
 30
0.0
 10
61.701356335318053
 20
204.453632818433789
 30
0.0
 10
61.701356335318053
 20
204.9521384640108863
 30
0.0
 10
62.2012400199982878
 20
204.9521384640108863
 30
0.0
 10
62.2012400199982878
 20
204.453632818433789
 30
0.0
  0
LWPOLYLINE
  5
D8
100
AcDbEntity
  8
POCKETS
 62
1
420
16711680
370
-1
 48
1.0
  6
BYLAYER
100
AcDbPolyline
 90
5
 70
0
 10
62.2012400199982878
 20
207.6935750049088938
 30
0.0
 10
61.701356335318053
 20
207.6935750049088938
 30
0.0
 10
61.701356335318053
 20
208.1920806504859911
 30
0.0
 10
62.2012400199982878
 20
208.1920806504859911
 30
0.0
 10
62.2012400199982878
 20
207.6935750049088938
 30
0.0
  0
LWPOLYLINE
  5
D9
100
AcDbEntity
  8
POCKETS
 62
1
420
16711680
370
-1
 48
1.0
  6
BYLAYER
100
AcDbPolyline
 90
5
 70
0
 10
62.2012400199982878
 20
210.9335171913839986
 30
0.0
 10
61.701356335318053
 20
210.9335171913839986
 30
0.0
 10
61.701356335318053
 20
211.4320228369610106
 30
0.0
 10
62.2012400199982878
 20
211.4320228369610106
 30
0.0
 10
62.2012400199982878
 20
210.9335171913839986
 30
0.0
  0
LWPOLYLINE
  5
DA
100
AcDbEntity
  8
POCKETS
 62
1
420
16711680
370
-1
 48
1.0
  6
BYLAYER
100
AcDbPolyline
 90
5
 70
0
 10
62.2012400199982878
 20
214.1734593778591034
 30
0.0
 10
61.701356335318053
 20
214.1734593778591034
 30
0.0
 10
61.701356335318053
 20
214.671965023436087
 30
0.0
 10
62.2012400199982878
 20
214.671965023436087
 30
0.0
 10
62.2012400199982878
 20
214.1734593778591034
 30
0.0
  0
LWPOLYLINE
  5
DB
100
AcDbEntity
  8
POCKETS
 62
1
420
16711680
370
-1
 48
1.0
  6
BYLAYER
100
AcDbPolyline
 90
5
 70
0
 10
62.2012400199982878
 20
159.3430060110198099
 30
0.0
 10
61.701356335318053
 20
159.3430060110198099
 30
0.0
 10
61.701356335318053
 20
159.5929478533599024
 30
0.0
 10
62.2012400199982878
 20
159.5929478533599024
 30
0.0
 10
62.2012400199982878
 20
159.3430060110198099
 30
0.0
  0
LWPOLYLINE
  5
DC
100
AcDbEntity
  8
POCKETS
 62
1
420
16711680
370
-1
 48
1.0
  6
BYLAYER
100
AcDbPolyline
 90
5
 70
0
 10
91.2012116720802908
 20
162.3343843942579099
 30
0.0
 10
90.7013279874000489
 20
162.3343843942579099
 30
0.0
 10
90.7013279874000489
 20
162.8328900398350072
 30
0.0
 10
91.2012116720802908
 20
162.8328900398350072
 30
0.0
 10
91.2012116720802908
 20
162.3343843942579099
 30
0.0
  0
LWPOLYLINE
  5
DD
100
AcDbEntity
  8
POCKETS
 62
1
420
16711680
370
-1
 48
1.0
  6
BYLAYER
100
AcDbPolyline
 90
5
 70
0
 10
91.2012116720802908
 20
165.5743265807329863
 30
0.0
 10
90.7013279874000489
 20
165.5743265807329863
 30
0.0
 10
90.7013279874000489
 20
166.072832226310112
 30
0.0
 10
91.2012116720802908
 20
166.072832226310112
 30
0.0
 10
91.2012116720802908
 20
165.5743265807329863
 30
0.0
  0
LWPOLYLINE
  5
DE
100
AcDbEntity
  8
POCKETS
 62
1
420
16711680
370
-1
 48
1.0
  6
BYLAYER
100
AcDbPolyline
 90
5
 70
0
 10
91.2012116720802908
 20
168.814268767208091
 30
0.0
 10
90.7013279874000489
 20
168.814268767208091
 30
0.0
 10
90.7013279874000489
 20
169.3127744127851031
 30
0.0
 10
91.2012116720802908
 20
169.3127744127851031
 30
0.0
 10
91.2012116720802908
 20
168.814268767208091
 30
0.0
  0
LWPOLYLINE
  5
DF
100
AcDbEntity
  8
POCKETS
 62
1
420
16711680
370
-1
 48
1.0
  6
BYLAYER
100
AcDbPolyline
 90
5
 70
0
 10
91.2012116720802908
 20
172.0542109536831958
 30
0.0
 10
90.7013279874000489
 20
172.0542109536831958
 30
0.0
 10
90.7013279874000489
 20
172.5527165992602079
 30
0.0
 10
91.2012116720802908
 20
172.5527165992602079
 30
0.0
 10
91.2012116720802908
 20
172.0542109536831958
 30
0.0
  0
LWPOLYLINE
  5
E0
100
AcDbEntity
  8
POCKETS
 62
1
420
16711680
370
-1
 48
1.0
  6
BYLAYER
100
AcDbPolyline
 90
5
 70
0
 10
91.2012116720802908
 20
175.2941531401581869
 30
0.0
 10
90.7013279874000489
 20
175.2941531401581869
 30
0.0
 10
90.7013279874000489
 20
175.7926587857353127
 30
0.0
 10
91.2012116720802908
 20
175.7926587857353127
 30
0.0
 10
91.2012116720802908
 20
175.2941531401581869
 30
0.0
  0
LWPOLYLINE
  5
E1
100
AcDbEntity
  8
POCKETS
 62
1
420
16711680
370
-1
 48
1.0
  6
BYLAYER
100
AcDbPolyline
 90
5
 70
0
 10
91.2012116720802908
 20
178.5340953266332917
 30
0.0
 10
90.7013279874000489
 20
178.5340953266332917
 30
0.0
 10
90.7013279874000489
 20
179.032600972210389
 30
0.0
 10
91.2012116720802908
 20
179.032600972210389
 30
0.0
 10
91.2012116720802908
 20
178.5340953266332917
 30
0.0
  0
LWPOLYLINE
  5
E2
100
AcDbEntity
  8
POCKETS
 62
1
420
16711680
370
-1
 48
1.0
  6
BYLAYER
100
AcDbPolyline
 90
5
 70
0
 10
91.2012116720802908
 20
181.7740375131083965
 30
0.0
 10
90.7013279874000489
 20
181.7740375131083965
 30
0.0
 10
90.7013279874000489
 20
182.2725431586854086
 30
0.0
 10
91.2012116720802908
 20
182.2725431586854086
 30
0.0
 10
91.2012116720802908
 20
181.7740375131083965
 30
0.0
  0
LWPOLYLINE
  5
E3
100
AcDbEntity
  8
POCKETS
 62
1
420
16711680
370
-1
 48
1.0
  6
BYLAYER
100
AcDbPolyline
 90
5
 70
0
 10
91.2012116720802908
 20
185.0139796995833876
 30
0.0
 10
90.7013279874000489
 20
185.0139796995833876
 30
0.0
 10
90.7013279874000489
 20
185.5124853451605134
 30
0.0
 10
91.2012116720802908
 20
185.5124853451605134
 30
0.0
 10
91.2012116720802908
 20
185.0139796995833876
 30
0.0
  0
LWPOLYLINE
  5
E4
100
AcDbEntity
  8
POCKETS
 62
1
420
16711680
370
-1
 48
1.0
  6
BYLAYER
100
AcDbPolyline
 90
5
 70
0
 10
91.2012116720802908
 20
188.2539218860584924
 30
0.0
 10
90.7013279874000489
 20
188.2539218860584924
 30
0.0
 10
90.7013279874000489
 20
188.7524275316355897
 30
0.0
 10
91.2012116720802908
 20
188.7524275316355897
 30
0.0
 10
91.2012116720802908
 20
188.2539218860584924
 30
0.0
  0
LWPOLYLINE
  5
E5
100
AcDbEntity
  8
POCKETS
 62
1
420
16711680
370
-1
 48
1.0
  6
BYLAYER
100
AcDbPolyline
 90
5
 70
0
 10
91.2012116720802908
 20
191.4938640725335972
 30
0.0
 10
90.7013279874000489
 20
191.4938640725335972
 30
0.0
 10
90.7013279874000489
 20
191.9923697181106093
 30
0.0
 10
91.2012116720802908
 20
191.9923697181106093
 30
0.0
 10
91.2012116720802908
 20
191.4938640725335972
 30
0.0
  0
LWPOLYLINE
  5
E6
100
AcDbEntity
  8
POCKETS
 62
1
420
16711680
370
-1
 48
1.0
  6
BYLAYER
100
AcDbPolyline
 90
5
 70
0
 10
91.2012116720802908
 20
194.7338062590085883
 30
0.0
 10
90.7013279874000489
 20
194.7338062590085883
 30
0.0
 10
90.7013279874000489
 20
195.232311904585714
 30
0.0
 10
91.2012116720802908
 20
195.232311904585714
 30
0.0
 10
91.2012116720802908
 20
194.7338062590085883
 30
0.0
  0
LWPOLYLINE
  5
E7
100
AcDbEntity
  8
POCKETS
 62
1
420
16711680
370
-1
 48
1.0
  6
BYLAYER
100
AcDbPolyline
 90
5
 70
0
 10
91.2012116720802908
 20
197.9737484454836931
 30
0.0
 10
90.7013279874000489
 20
197.9737484454836931
 30
0.0
 10
90.7013279874000489
 20
198.4722540910607904
 30
0.0
 10
91.2012116720802908
 20
198.4722540910607904
 30
0.0
 10
91.2012116720802908
 20
197.9737484454836931
 30
0.0
  0
LWPOLYLINE
  5
E8
100
AcDbEntity
  8
POCKETS
 62
1
420
16711680
370
-1
 48
1.0
  6
BYLAYER
100
AcDbPolyline
 90
5
 70
0
 10
91.2012116720802908
 20
201.2136906319587979
 30
0.0
 10
90.7013279874000489
 20
201.2136906319587979
 30
0.0
 10
90.7013279874000489
 20
201.7121962775358099
 30
0.0
 10
91.2012116720802908
 20
201.7121962775358099
 30
0.0
 10
91.2012116720802908
 20
201.2136906319587979
 30
0.0
  0
LWPOLYLINE
  5
E9
100
AcDbEntity
  8
POCKETS
 62
1
420
16711680
370
-1
 48
1.0
  6
BYLAYER
100
AcDbPolyline
 90
5
 70
0
 10
91.2012116720802908
 20
204.453632818433789
 30
0.0
 10
90.7013279874000489
 20
204.453632818433789
 30
0.0
 10
90.7013279874000489
 20
204.9521384640108863
 30
0.0
 10
91.2012116720802908
 20
204.9521384640108863
 30
0.0
 10
91.2012116720802908
 20
204.453632818433789
 30
0.0
  0
LWPOLYLINE
  5
EA
100
AcDbEntity
  8
POCKETS
 62
1
420
16711680
370
-1
 48
1.0
  6
BYLAYER
100
AcDbPolyline
 90
5
 70
0
 10
91.2012116720802908
 20
207.6935750049088938
 30
0.0
 10
90.7013279874000489
 20
207.6935750049088938
 30
0.0
 10
90.7013279874000489
 20
208.1920806504859911
 30
0.0
 10
91.2012116720802908
 20
208.1920806504859911
 30
0.0
 10
91.2012116720802908
 20
207.6935750049088938
 30
0.0
  0
LWPOLYLINE
  5
EB
100
AcDbEntity
  8
POCKETS
 62
1
420
16711680
370
-1
 48
1.0
  6
BYLAYER
100
AcDbPolyline
 90
5
 70
0
 10
91.2012116720802908
 20
210.9335171913839986
 30
0.0
 10
90.7013279874000489
 20
210.9335171913839986
 30
0.0
 10
90.7013279874000489
 20
211.4320228369610106
 30
0.0
 10
91.2012116720802908
 20
211.4320228369610106
 30
0.0
 10
91.2012116720802908
 20
210.9335171913839986
 30
0.0
  0
LWPOLYLINE
  5
EC
100
AcDbEntity
  8
POCKETS
 62
1
420
16711680
370
-1
 48
1.0
  6
BYLAYER
100
AcDbPolyline
 90
5
 70
0
 10
91.2012116720802908
 20
214.1734593778591034
 30
0.0
 10
90.7013279874000489
 20
214.1734593778591034
 30
0.0
 10
90.7013279874000489
 20
214.671965023436087
 30
0.0
 10
91.2012116720802908
 20
214.671965023436087
 30
0.0
 10
91.2012116720802908
 20
214.1734593778591034
 30
0.0
  0
LWPOLYLINE
  5
ED
100
AcDbEntity
  8
POCKETS
 62
1
420
16711680
370
-1
 48
1.0
  6
BYLAYER
100
AcDbPolyline
 90
5
 70
0
 10
91.2012116720802908
 20
159.3430060110198099
 30
0.0
 10
90.7013279874000489
 20
159.3430060110198099
 30
0.0
 10
90.7013279874000489
 20
159.5929478533599024
 30
0.0
 10
91.2012116720802908
 20
159.5929478533599024
 30
0.0
 10
91.2012116720802908
 20
159.3430060110198099
 30
0.0
  0
ENDBLK
  5
EE
100
AcDbEntity
  8
0
100
AcDbBlockEnd
  0
ENDSEC
  0
SECTION
  2
ENTITIES
  0
INSERT
  5
EF
100
AcDbEntity
  8
POCKETS
 62
256
370
-1
 48
1.0
  6
BYLAYER
100
AcDbBlockReference
  2
BLOCK_2
 10
0.0
 20
0.0
 30
0.0
  0
LWPOLYLINE
  5
F0
100
AcDbEntity
  8
POCKETS
 62
1
420
16711680
370
-1
 48
1.0
  6
BYLAYER
100
AcDbPolyline
 90
48
 70
0
 10
185.9222797234700124
 20
160.2397649574172078
 30
0.0
 10
185.1285292000357003
 20
160.2421765258478104
 30
0.0
 10
184.3337451472739019
 20
159.9803490962426906
 30
0.0
 10
183.802855582771997
 20
159.4529046294987893
 30
0.0
 10
183.271966018270092
 20
158.925460162754888
 30
0.0
 10
182.7414209635439875
 20
158.3980156960109014
 30
0.0
 10
182.4740813775262041
 20
157.6052987019039051
 30
0.0
 10
182.2070863012841073
 20
156.8122371980211938
 30
0.0
 10
182.2053637524051908
 20
156.2830701823982054
 30
0.0
 10
161.5678501431115137
 20
156.348871549575307
 30
0.0
 10
180.9465250316459901
 20
93.315640421029272
 30
0.0
 10
185.9736116800636978
 20
93.2997929713426544
 30
0.0
 10
185.9474289371032114
 20
85.0977042291874568
 30
0.0
 10
181.4495093043084069
 20
85.1121736397709014
 30
0.0
 10
173.5130375992920051
 20
85.401906361215481
 30
0.0
 10
166.1060774196743921
 20
85.9548445513683248
 30
0.0
 10
159.7581402908541861
 20
86.5039931339874215
 30
0.0
 10
153.939714687432712
 20
87.3163471853147968
 30
0.0
 10
148.6504560996341127
 20
88.1269786877631702
 30
0.0
 10
141.5122135451375129
 20
89.7372173798344619
 30
0.0
 10
132.2586809672523884
 20
91.8831687732688067
 30
0.0
 10
124.8544768658410931
 20
93.2298574868560337
 30
0.0
 10
119.8301462956298025
 20
94.0397999697528206
 30
0.0
 10
114.0113761824324996
 20
94.8521540210801817
 30
0.0
 10
107.6634390536122936
 20
95.4013026036992784
 30
0.0
 10
100.2564788739946948
 20
95.9538962840763361
 30
0.0
 10
92.0557681709426845
 20
96.2446625348483025
 30
0.0
 10
87.5578485381479084
 20
96.2591319454317471
 30
0.0
 10
87.5833422615568225
 20
104.461220687586902
 30
0.0
 10
92.0812618943515986
 20
104.4467512770035
 30
0.0
 10
112.3556621999561003
 20
156.5056234975625955
 30
0.0
 10
87.7497404832663648
 20
156.5838272166683112
 30
0.0
 10
87.9753943864128587
 20
227.491862800363208
 30
0.0
 10
89.2990009450217457
 20
227.7523121908650978
 30
0.0
 10
97.7725633905043168
 20
229.8417639810687945
 30
0.0
 10
106.5096758144709952
 20
231.6662877536853102
 30
0.0
 10
114.7169322032630987
 20
233.2276060575935901
 30
0.0
 10
120.8054534709088017
 20
234.2666475413948035
 30
0.0
 10
127.6870362424372018
 20
235.0383494391782051
 30
0.0
 10
134.833547031552996
 20
235.8093623174100912
 30
0.0
 10
142.5088803265157935
 20
236.5783081369870899
 30
0.0
 10
150.7123471077742067
 20
237.081636919425307
 30
0.0
 10
159.1807419066198008
 20
237.5839321725360946
 30
0.0
 10
167.912686683949488
 20
237.8206103885081006
 30
0.0
 10
172.6751898245557868
 20
237.8054519583731121
 30
0.0
 10
178.513941504749198
 20
243.3431020945207024
 30
0.0
 10
186.4514467390928871
 20
243.3179528808875887
 30
0.0
 10
185.9222797234700124
 20
160.2397649574172078
 30
0.0
  0
LWPOLYLINE
  5
F1
100
AcDbEntity
  8
POCKETS
 62
1
420
16711680
370
-1
 48
1.0
  6
BYLAYER
100
AcDbPolyline
 90
48
 70
0
 10
-33.0195394611837969
 20
160.2397649574172078
 30
0.0
 10
-33.5487064768067214
 20
243.3179528808875887
 30
0.0
 10
-25.6112012424629896
 20
243.3431020945207024
 30
0.0
 10
-19.7726218171574217
 20
237.8054519583731121
 30
0.0
 10
-15.0101186765511798
 20
237.8206103885081006
 30
0.0
 10
-6.2781738992214828
 20
237.5839321725360946
 30
0.0
 10
2.1902208996241428
 20
237.081636919425307
 30
0.0
 10
10.3938599357704096
 20
236.5783081369870899
 30
0.0
 10
18.0693654856211587
 20
235.8093623174100912
 30
0.0
 10
25.2155317649610886
 20
235.0383494391782051
 30
0.0
 10
32.0972867913774635
 20
234.2666475413948035
 30
0.0
 10
38.1859803139110525
 20
233.2276060575935901
 30
0.0
 10
46.3930644478152772
 20
231.6662877536853102
 30
0.0
 10
55.1300046168940199
 20
229.8417639810687945
 30
0.0
 10
63.603567062376591
 20
227.7523121908650978
 30
0.0
 10
64.927345875873371
 20
227.491862800363208
 30
0.0
 10
65.1529997790198649
 20
156.5838272166683112
 30
0.0
 10
40.5470780623300868
 20
156.5056234975625955
 30
0.0
 10
60.821306113046731
 20
104.4467512770035
 30
0.0
 10
65.3192257458415071
 20
104.461220687586902
 30
0.0
 10
65.3450639790262215
 20
96.2591319454317471
 30
0.0
 10
60.8471443462314525
 20
96.2446625348483025
 30
0.0
 10
52.646261388291542
 20
95.9538962840763361
 30
0.0
 10
45.2394734635618079
 20
95.4013026036992784
 30
0.0
 10
38.8913640798537017
 20
94.8521540210801817
 30
0.0
 10
33.0727662215443132
 20
94.0397999697528206
 30
0.0
 10
28.04843565133298
 20
93.2298574868560337
 30
0.0
 10
20.6442315499217202
 20
91.8831687732688067
 30
0.0
 10
11.3906989720366294
 20
89.7372173798344619
 30
0.0
 10
4.2521119077642142
 20
88.1269786877631702
 30
0.0
 10
-1.0369744251464681
 20
87.3163471853147968
 30
0.0
 10
-6.8554000285679626
 20
86.5039931339874215
 30
0.0
 10
-13.2035094122760697
 20
85.9548445513683248
 30
0.0
 10
-20.6102973370058002
 20
85.401906361215481
 30
0.0
 10
-28.5467690420221416
 20
85.1121736397709014
 30
0.0
 10
-33.0446886748169177
 20
85.0977042291874568
 30
0.0
 10
-33.0708714177774326
 20
93.2997929713426544
 30
0.0
 10
-28.0437847693597391
 20
93.315640421029272
 30
0.0
 10
-8.6651098808252396
 20
156.348871549575307
 30
0.0
 10
-29.3026234901189397
 20
156.2830701823982054
 30
0.0
 10
-29.3043460389979202
 20
156.8122371980211938
 30
0.0
 10
-29.5715133701278496
 20
157.6052987019039051
 30
0.0
 10
-29.838680701257779
 20
158.3980156960109014
 30
0.0
 10
-30.3693980108717696
 20
158.925460162754888
 30
0.0
 10
-30.900287575373671
 20
159.4529046294987893
 30
0.0
 10
-31.4311771398755688
 20
159.9803490962426906
 30
0.0
 10
-32.225788937749428
 20
160.2421765258478104
 30
0.0
 10
-33.0195394611837969
 20
160.2397649574172078
 30
0.0
  0
ENDSEC
  0
SECTION
  2
OBJECTS
  0
DICTIONARY
  5
C
100
AcDbDictionary
280
0
281
1
  3
ACAD_GROUP
350
D
  3
ACAD_LAYOUT
350
1A
  3
ACAD_MLINESTYLE
350
17
  3
ACAD_PLOTSETTINGS
350
19
  3
ACAD_PLOTSTYLENAME
350
E
  3
AcDbVariableDictionary
350
F2
  3
QCAD_OBJECTS
350
F3
  0
DICTIONARY
  5
D
100
AcDbDictionary
280
0
281
1
  0
ACDBDICTIONARYWDFLT
  5
E
100
AcDbDictionary
281
1
  3
Normal
350
F
100
AcDbDictionaryWithDefault
340
F
  0
ACDBPLACEHOLDER
  5
F
  0
DICTIONARY
  5
17
100
AcDbDictionary
280
0
281
1
  3
Standard
350
18
  0
MLINESTYLE
  5
18
100
AcDbMlineStyle
  2
STANDARD
 70
0
  3

 62
256
 51
90.0
 52
90.0
 71
2
 49
0.5
 62
256
  6
BYLAYER
 49
-0.5
 62
256
  6
BYLAYER
  0
DICTIONARY
  5
19
100
AcDbDictionary
280
0
281
1
  0
DICTIONARY
  5
1A
100
AcDbDictionary
281
1
  3
Layout1
350
1E
  3
Layout2
350
26
  3
Model
350
22
  0
LAYOUT
  5
1E
100
AcDbPlotSettings
  1

  2
none_device
  4

  6

 40
0.0
 41
0.0
 42
0.0
 43
0.0
 44
0.0
 45
0.0
 46
0.0
 47
0.0
 48
0.0
 49
0.0
140
0.0
141
0.0
142
1.0
143
1.0
 70
688
 72
0
 73
0
 74
5
  7

 75
16
147
1.0
148
0.0
149
0.0
100
AcDbLayout
  1
Layout1
 70
1
 71
1
 10
0.0
 20
0.0
 11
420.0
 21
297.0
 12
0.0
 22
0.0
 32
0.0
 14
100000000000000000000.0
 24
100000000000000000000.0
 34
100000000000000000000.0
 15
-100000000000000000000.0
 25
-100000000000000000000.0
 35
-100000000000000000000.0
146
0.0
 13
0.0
 23
0.0
 33
0.0
 16
1.0
 26
0.0
 36
0.0
 17
0.0
 27
1.0
 37
0.0
 76
0
330
1B
  0
LAYOUT
  5
22
100
AcDbPlotSettings
  1

  2
none_device
  4

  6

 40
0.0
 41
0.0
 42
0.0
 43
0.0
 44
0.0
 45
0.0
 46
0.0
 47
0.0
 48
0.0
 49
0.0
140
0.0
141
0.0
142
1.0
143
1.0
 70
1712
 72
0
 73
0
 74
0
  7

 75
0
147
1.0
148
0.0
149
0.0
100
AcDbLayout
  1
Model
 70
1
 71
0
 10
0.0
 20
0.0
 11
12.0
 21
9.0
 12
0.0
 22
0.0
 32
0.0
 14
0.0
 24
0.0
 34
0.0
 15
0.0
 25
0.0
 35
0.0
146
0.0
 13
0.0
 23
0.0
 33
0.0
 16
1.0
 26
0.0
 36
0.0
 17
0.0
 27
1.0
 37
0.0
 76
0
330
1F
  0
LAYOUT
  5
26
100
AcDbPlotSettings
  1

  2
none_device
  4

  6

 40
0.0
 41
0.0
 42
0.0
 43
0.0
 44
0.0
 45
0.0
 46
0.0
 47
0.0
 48
0.0
 49
0.0
140
0.0
141
0.0
142
1.0
143
1.0
 70
688
 72
0
 73
0
 74
5
  7

 75
16
147
1.0
148
0.0
149
0.0
100
AcDbLayout
  1
Layout2
 70
1
 71
2
 10
0.0
 20
0.0
 11
12.0
 21
9.0
 12
0.0
 22
0.0
 32
0.0
 14
0.0
 24
0.0
 34
0.0
 15
0.0
 25
0.0
 35
0.0
146
0.0
 13
0.0
 23
0.0
 33
0.0
 16
1.0
 26
0.0
 36
0.0
 17
0.0
 27
1.0
 37
0.0
 76
0
330
23
  0
DICTIONARY
  5
F2
100
AcDbDictionary
281
1
  3
DIMASSOC
350
F5
  3
HIDETEXT
350
F4
  0
DICTIONARYVAR
  5
F4
100
DictionaryVariables
280
0
  1
2
  0
DICTIONARYVAR
  5
F5
100
DictionaryVariables
280
0
  1
1
  0
DICTIONARY
  5
F3
100
AcDbDictionary
281
1
  3
ColorSettings/BackgroundColor
350
F6
  3
ColorSettings/ColorMode
350
F7
  3
Grid/DisplayGrid00
350
F8
  3
Grid/DisplayGrid01
350
F9
  3
Grid/DisplayGrid02
350
FA
  3
Grid/DisplayGrid03
350
FB
  3
Grid/GridSpacingX00
350
FC
  3
Grid/GridSpacingX01
350
FD
  3
Grid/GridSpacingX02
350
FE
  3
Grid/GridSpacingX03
350
FF
  3
Grid/GridSpacingY00
350
100
  3
Grid/GridSpacingY01
350
101
  3
Grid/GridSpacingY02
350
102
  3
Grid/GridSpacingY03
350
103
  3
Grid/IsometricGrid00
350
104
  3
Grid/IsometricGrid01
350
105
  3
Grid/IsometricGrid02
350
106
  3
Grid/IsometricGrid03
350
107
  3
Grid/IsometricProjection00
350
108
  3
Grid/IsometricProjection01
350
109
  3
Grid/IsometricProjection02
350
10A
  3
Grid/IsometricProjection03
350
10B
  3
Grid/MetaGridSpacingX00
350
10C
  3
Grid/MetaGridSpacingX01
350
10D
  3
Grid/MetaGridSpacingX02
350
10E
  3
Grid/MetaGridSpacingX03
350
10F
  3
Grid/MetaGridSpacingY00
350
110
  3
Grid/MetaGridSpacingY01
350
111
  3
Grid/MetaGridSpacingY02
350
112
  3
Grid/MetaGridSpacingY03
350
113
  3
MultiPageSettings/Columns
350
114
  3
MultiPageSettings/GlueMarginsBottom
350
115
  3
MultiPageSettings/GlueMarginsLeft
350
116
  3
MultiPageSettings/GlueMarginsRight
350
117
  3
MultiPageSettings/GlueMarginsTop
350
118
  3
MultiPageSettings/PrintCropMarks
350
119
  3
MultiPageSettings/Rows
350
11A
  3
PageSettings/OffsetX
350
11B
  3
PageSettings/OffsetY
350
11C
  3
PageSettings/PageOrientation
350
11D
  3
PageSettings/PaperHeight
350
11E
  3
PageSettings/PaperWidth
350
11F
  3
PageSettings/Scale
350
120
  3
PageSettings/ShowPaperBorders
350
121
  3
UnitSettings/PaperUnit
350
122
  3
ViewportCenter
350
123
  3
ViewportHeight
350
124
  3
ViewportWidth
350
125
  0
XRECORD
  5
F6
330
F3
100
AcDbXrecord
280
1
1000
White
  0
XRECORD
  5
F7
330
F3
100
AcDbXrecord
280
1
1000
FullColor
  0
XRECORD
  5
F8
330
F3
100
AcDbXrecord
280
1
290
1
  0
XRECORD
  5
F9
330
F3
100
AcDbXrecord
280
1
290
1
  0
XRECORD
  5
FA
330
F3
100
AcDbXrecord
280
1
290
1
  0
XRECORD
  5
FB
330
F3
100
AcDbXrecord
280
1
290
1
  0
XRECORD
  5
FC
330
F3
100
AcDbXrecord
280
1
1000
auto
  0
XRECORD
  5
FD
330
F3
100
AcDbXrecord
280
1
1000
auto
  0
XRECORD
  5
FE
330
F3
100
AcDbXrecord
280
1
1000
auto
  0
XRECORD
  5
FF
330
F3
100
AcDbXrecord
280
1
1000
auto
  0
XRECORD
  5
100
330
F3
100
AcDbXrecord
280
1
1000
auto
  0
XRECORD
  5
101
330
F3
100
AcDbXrecord
280
1
1000
auto
  0
XRECORD
  5
102
330
F3
100
AcDbXrecord
280
1
1000
auto
  0
XRECORD
  5
103
330
F3
100
AcDbXrecord
280
1
1000
auto
  0
XRECORD
  5
104
330
F3
100
AcDbXrecord
280
1
290
0
  0
XRECORD
  5
105
330
F3
100
AcDbXrecord
280
1
290
0
  0
XRECORD
  5
106
330
F3
100
AcDbXrecord
280
1
290
0
  0
XRECORD
  5
107
330
F3
100
AcDbXrecord
280
1
290
0
  0
XRECORD
  5
108
330
F3
100
AcDbXrecord
280
1
 90
0
  0
XRECORD
  5
109
330
F3
100
AcDbXrecord
280
1
 90
0
  0
XRECORD
  5
10A
330
F3
100
AcDbXrecord
280
1
 90
0
  0
XRECORD
  5
10B
330
F3
100
AcDbXrecord
280
1
 90
0
  0
XRECORD
  5
10C
330
F3
100
AcDbXrecord
280
1
1000
auto
  0
XRECORD
  5
10D
330
F3
100
AcDbXrecord
280
1
1000
auto
  0
XRECORD
  5
10E
330
F3
100
AcDbXrecord
280
1
1000
auto
  0
XRECORD
  5
10F
330
F3
100
AcDbXrecord
280
1
1000
auto
  0
XRECORD
  5
110
330
F3
100
AcDbXrecord
280
1
1000
auto
  0
XRECORD
  5
111
330
F3
100
AcDbXrecord
280
1
1000
auto
  0
XRECORD
  5
112
330
F3
100
AcDbXrecord
280
1
1000
auto
  0
XRECORD
  5
113
330
F3
100
AcDbXrecord
280
1
1000
auto
  0
XRECORD
  5
114
330
F3
100
AcDbXrecord
280
1
 90
1
  0
XRECORD
  5
115
330
F3
100
AcDbXrecord
280
1
 40
10.0
  0
XRECORD
  5
116
330
F3
100
AcDbXrecord
280
1
 40
10.0
  0
XRECORD
  5
117
330
F3
100
AcDbXrecord
280
1
 40
10.0
  0
XRECORD
  5
118
330
F3
100
AcDbXrecord
280
1
 40
10.0
  0
XRECORD
  5
119
330
F3
100
AcDbXrecord
280
1
290
0
  0
XRECORD
  5
11A
330
F3
100
AcDbXrecord
280
1
 90
1
  0
XRECORD
  5
11B
330
F3
100
AcDbXrecord
280
1
 40
0.0
  0
XRECORD
  5
11C
330
F3
100
AcDbXrecord
280
1
 40
0.0
  0
XRECORD
  5
11D
330
F3
100
AcDbXrecord
280
1
1000
Portrait
  0
XRECORD
  5
11E
330
F3
100
AcDbXrecord
280
1
 40
297.0
  0
XRECORD
  5
11F
330
F3
100
AcDbXrecord
280
1
 40
210.0
  0
XRECORD
  5
120
330
F3
100
AcDbXrecord
280
1
1000
1:1
  0
XRECORD
  5
121
330
F3
100
AcDbXrecord
280
1
290
1
  0
XRECORD
  5
122
330
F3
100
AcDbXrecord
280
1
 90
4
  0
XRECORD
  5
124
330
F3
100
AcDbXrecord
280
1
 40
169.5268283327556276
  0
XRECORD
  5
125
330
F3
100
AcDbXrecord
280
1
 40
305.8410689032045866
  0
ENDSEC
  0
EOF
